<svg id="svg" version="1.1" xmlns="http://www.w3.org/2000/svg" xmlns:xlink="http://www.w3.org/1999/xlink" width="400" height="385.98130841121497" viewBox="0, 0, 400,385.98130841121497">
  <g id="svgg">
    <path id="path0" d="M137.066 98.885 C 132.294 99.914,128.447 101.587,125.290 104.006 C 123.473 105.398,120.077 108.837,120.077 109.286 C 120.077 109.457,119.855 109.827,119.583 110.108 C 119.133 110.572,117.326 114.138,116.585 116.023 C 112.036 127.606,118.357 142.506,130.117 147.919 C 132.756 149.134,133.427 149.358,135.907 149.856 C 148.654 152.415,160.462 145.608,165.567 132.756 C 167.244 128.537,167.288 119.686,165.648 116.622 C 165.430 116.215,165.251 115.536,165.251 115.115 C 165.251 114.694,165.121 114.292,164.961 114.221 C 164.802 114.151,164.175 113.098,163.568 111.882 C 159.190 103.117,146.439 96.863,137.066 98.885 M258.494 98.842 C 258.069 99.024,257.207 99.186,256.577 99.201 C 253.433 99.275,246.707 102.783,243.491 106.027 C 240.679 108.862,238.737 112.001,237.067 116.409 C 235.433 120.720,235.439 128.466,237.078 132.625 C 237.246 133.050,237.702 134.222,238.093 135.230 C 238.484 136.238,238.933 137.063,239.093 137.064 C 239.252 137.065,239.382 137.247,239.382 137.468 C 239.382 138.128,242.233 141.776,244.056 143.450 C 246.948 146.105,249.080 147.368,253.475 149.034 C 263.773 152.936,277.000 148.294,283.177 138.610 C 286.321 133.681,288.046 127.545,287.505 123.211 C 287.370 122.124,287.149 120.363,287.016 119.297 C 286.882 118.231,286.622 117.265,286.437 117.151 C 286.252 117.036,286.100 116.644,286.100 116.279 C 286.100 113.855,281.152 106.862,277.413 104.004 C 272.173 99.998,262.161 97.266,258.494 98.842 M392.754 161.004 C 392.754 161.747,392.833 162.051,392.930 161.680 C 393.027 161.308,393.027 160.700,392.930 160.328 C 392.833 159.957,392.754 160.261,392.754 161.004 M397.395 185.135 C 397.399 185.985,397.478 186.287,397.570 185.806 C 397.663 185.326,397.659 184.631,397.563 184.262 C 397.466 183.893,397.390 184.286,397.395 185.135 M79.542 228.861 C 79.545 229.657,79.899 231.959,80.329 233.977 C 80.759 235.994,81.206 238.253,81.321 238.996 C 81.437 239.739,81.677 240.782,81.854 241.313 C 82.032 241.844,82.473 243.320,82.835 244.595 C 83.646 247.454,85.249 252.436,85.693 253.475 C 85.874 253.900,86.240 254.855,86.505 255.598 C 88.710 261.767,93.001 270.367,97.280 277.193 C 99.185 280.232,102.967 285.666,103.481 286.100 C 103.606 286.207,104.220 286.988,104.845 287.838 C 107.276 291.143,117.800 301.965,121.389 304.850 C 122.429 305.687,123.472 306.547,123.706 306.762 C 123.940 306.977,125.087 307.890,126.255 308.791 C 127.423 309.692,128.726 310.699,129.151 311.029 C 129.575 311.359,130.574 311.998,131.371 312.449 C 132.167 312.900,132.819 313.411,132.819 313.585 C 132.819 313.758,133.004 313.900,133.230 313.900 C 133.457 313.900,134.212 314.334,134.908 314.865 C 135.604 315.396,136.317 315.830,136.493 315.830 C 136.668 315.830,137.086 316.066,137.421 316.355 C 138.436 317.227,149.703 323.166,150.345 323.166 C 150.462 323.166,151.475 323.577,152.596 324.080 C 153.716 324.582,155.415 325.298,156.371 325.670 C 157.326 326.043,158.456 326.489,158.880 326.663 C 161.270 327.641,170.046 330.244,173.166 330.900 C 184.409 333.266,190.568 333.927,201.351 333.927 C 210.437 333.927,217.854 333.273,224.903 331.849 C 229.938 330.832,231.002 330.597,232.625 330.145 C 233.475 329.908,234.865 329.520,235.714 329.284 C 237.795 328.704,242.865 327.070,243.822 326.670 C 244.247 326.492,245.376 326.045,246.332 325.676 C 249.015 324.638,249.450 324.459,251.931 323.364 C 256.876 321.180,262.034 318.426,268.152 314.700 C 269.766 313.717,276.115 309.269,276.448 308.888 C 276.554 308.767,277.423 308.064,278.378 307.326 C 285.777 301.614,295.598 291.410,301.224 283.591 C 305.390 277.802,311.057 267.839,313.855 261.388 C 315.877 256.726,316.317 255.624,317.171 253.089 C 317.528 252.027,317.963 250.811,318.138 250.386 C 319.586 246.864,322.590 234.142,323.038 229.633 L 323.259 227.413 201.398 227.413 L 79.537 227.413 79.542 228.861 M397.402 246.718 C 397.402 247.674,397.478 248.065,397.570 247.587 C 397.662 247.109,397.662 246.327,397.570 245.849 C 397.478 245.372,397.402 245.763,397.402 246.718 M197.410 382.912 C 198.852 382.987,201.111 382.986,202.429 382.911 C 203.748 382.836,202.568 382.775,199.807 382.775 C 197.046 382.776,195.968 382.838,197.410 382.912 " stroke="none" fill="#070606" fill-rule="evenodd"></path>
    <path id="path1" d="M181.371 0.307 C 179.400 0.394,178.764 0.558,178.764 0.983 C 178.764 1.435,178.048 1.544,175.097 1.544 C 172.909 1.544,171.429 1.700,171.429 1.931 C 171.429 2.151,170.270 2.317,168.726 2.317 C 166.505 2.317,166.023 2.427,166.023 2.935 C 166.023 3.469,165.654 3.516,163.317 3.282 C 160.928 3.042,160.639 3.082,160.849 3.628 C 161.049 4.151,160.749 4.247,158.922 4.247 C 157.198 4.247,156.757 4.373,156.757 4.862 C 156.757 5.379,156.446 5.435,154.826 5.212 C 153.174 4.985,152.896 5.040,152.896 5.592 C 152.896 6.076,152.583 6.220,151.641 6.168 C 149.540 6.053,148.975 6.154,149.249 6.597 C 149.416 6.868,149.114 6.991,148.403 6.943 C 146.465 6.812,145.946 6.936,145.946 7.529 C 145.946 7.947,145.517 8.108,144.402 8.108 C 143.552 8.108,142.857 8.282,142.857 8.494 C 142.857 8.707,142.268 8.880,141.547 8.880 C 140.700 8.880,140.153 9.100,139.999 9.501 C 139.825 9.954,139.397 10.080,138.413 9.965 C 137.485 9.856,137.066 9.964,137.066 10.309 C 137.066 10.625,136.565 10.811,135.714 10.811 C 134.881 10.811,134.363 10.998,134.363 11.300 C 134.363 11.612,133.883 11.767,133.039 11.727 C 132.051 11.681,131.768 11.801,131.922 12.203 C 132.072 12.592,131.796 12.741,130.929 12.741 C 130.270 12.741,129.730 12.915,129.730 13.127 C 129.730 13.340,129.122 13.514,128.378 13.514 C 127.435 13.514,127.027 13.688,127.027 14.093 C 127.027 14.453,126.662 14.672,126.062 14.672 C 125.531 14.672,125.097 14.846,125.097 15.058 C 125.097 15.270,124.581 15.444,123.950 15.444 C 123.099 15.444,122.860 15.590,123.023 16.014 C 123.199 16.472,122.936 16.553,121.682 16.428 C 120.451 16.306,120.168 16.389,120.335 16.824 C 120.484 17.214,120.252 17.375,119.539 17.375 C 118.986 17.375,118.533 17.548,118.533 17.761 C 118.533 17.973,118.098 18.147,117.568 18.147 C 116.967 18.147,116.602 18.366,116.602 18.726 C 116.602 19.081,116.241 19.305,115.669 19.305 C 115.156 19.305,114.635 19.522,114.511 19.788 C 114.332 20.171,114.240 20.172,114.062 19.791 C 113.798 19.228,112.741 20.089,112.741 20.867 C 112.741 21.148,112.368 21.254,111.776 21.141 C 111.129 21.017,110.811 21.130,110.811 21.482 C 110.811 21.811,110.369 22.008,109.630 22.008 C 108.941 22.008,108.548 22.169,108.687 22.394 C 108.819 22.606,108.558 22.780,108.108 22.780 C 107.657 22.780,107.398 22.954,107.531 23.169 C 107.663 23.383,107.456 23.674,107.071 23.816 C 106.686 23.959,106.227 24.261,106.052 24.489 C 105.830 24.777,105.673 24.758,105.538 24.424 C 105.314 23.874,104.247 24.726,104.247 25.455 C 104.247 25.683,103.802 25.869,103.259 25.869 C 102.699 25.869,102.374 26.036,102.510 26.255 C 102.641 26.467,102.477 26.641,102.146 26.641 C 101.815 26.641,101.544 26.902,101.544 27.220 C 101.544 27.539,101.274 27.799,100.942 27.799 C 100.611 27.799,100.438 27.642,100.557 27.449 C 100.676 27.257,100.438 27.187,100.027 27.294 C 99.539 27.422,99.362 27.699,99.515 28.097 C 99.684 28.538,99.579 28.641,99.133 28.470 C 98.475 28.217,96.911 29.339,96.911 30.065 C 96.911 30.305,96.551 30.502,96.111 30.502 C 95.257 30.502,94.208 31.337,94.208 32.019 C 94.208 32.246,93.774 32.432,93.243 32.432 C 92.712 32.432,92.278 32.606,92.278 32.819 C 92.278 33.031,92.017 33.205,91.699 33.205 C 91.380 33.205,91.120 33.469,91.120 33.791 C 91.120 34.224,90.867 34.314,90.154 34.135 C 89.513 33.974,89.189 34.054,89.189 34.372 C 89.189 35.002,87.639 36.336,87.213 36.072 C 87.031 35.960,86.988 36.144,87.117 36.482 C 87.247 36.820,87.202 37.070,87.016 37.036 C 86.135 36.875,85.307 37.105,85.521 37.452 C 85.652 37.664,85.489 37.838,85.158 37.838 C 84.827 37.838,84.556 38.024,84.556 38.252 C 84.556 38.877,83.535 39.768,82.819 39.768 C 82.102 39.768,81.081 40.660,81.081 41.285 C 81.081 41.513,80.909 41.699,80.699 41.699 C 80.180 41.699,78.768 42.937,78.951 43.232 C 79.031 43.362,78.721 43.497,78.261 43.532 C 77.801 43.567,77.364 43.776,77.290 43.998 C 77.216 44.220,76.984 44.402,76.774 44.402 C 76.348 44.402,75.290 45.367,75.290 45.756 C 75.290 46.069,72.315 49.035,72.000 49.035 C 71.873 49.035,71.876 48.861,72.008 48.649 C 72.139 48.436,72.137 48.263,72.003 48.263 C 71.606 48.263,70.656 49.332,70.656 49.779 C 70.656 50.007,70.480 50.193,70.265 50.193 C 69.763 50.193,66.023 53.941,66.023 54.445 C 66.023 54.655,65.852 54.826,65.642 54.826 C 65.138 54.826,61.390 58.566,61.390 59.068 C 61.390 59.283,61.204 59.459,60.976 59.459 C 60.442 59.459,59.459 60.442,59.459 60.976 C 59.459 61.204,59.263 61.390,59.022 61.390 C 58.417 61.390,57.112 62.958,57.370 63.375 C 57.609 63.763,54.683 66.795,54.069 66.795 C 53.848 66.795,53.668 66.982,53.668 67.209 C 53.668 67.764,52.677 68.726,52.106 68.726 C 51.825 68.726,51.719 69.100,51.832 69.691 C 51.933 70.222,51.854 70.656,51.656 70.656 C 51.165 70.656,50.193 71.664,50.193 72.173 C 50.193 72.401,50.007 72.587,49.779 72.587 C 49.085 72.587,48.263 73.642,48.263 74.531 C 48.263 75.120,48.089 75.306,47.683 75.150 C 47.331 75.015,47.104 75.149,47.104 75.495 C 47.104 75.807,46.931 76.062,46.718 76.062 C 46.506 76.062,46.332 76.322,46.332 76.641 C 46.332 76.959,46.053 77.220,45.711 77.220 C 45.241 77.220,45.149 77.455,45.332 78.185 C 45.480 78.773,45.410 79.151,45.154 79.151 C 44.466 79.151,43.629 80.195,43.629 81.054 C 43.629 81.493,43.443 81.853,43.216 81.853 C 42.681 81.853,41.699 82.836,41.699 83.370 C 41.699 83.598,41.438 83.784,41.120 83.784 C 40.791 83.784,40.541 84.130,40.541 84.584 C 40.541 85.460,39.700 86.486,38.982 86.486 C 38.689 86.486,38.613 86.831,38.769 87.452 C 38.947 88.164,38.857 88.417,38.424 88.417 C 38.088 88.417,37.838 88.759,37.838 89.217 C 37.838 90.072,37.002 91.120,36.321 91.120 C 36.093 91.120,35.907 91.554,35.907 92.085 C 35.907 92.616,35.734 93.050,35.521 93.050 C 35.309 93.050,35.135 93.485,35.135 94.015 C 35.135 94.546,34.937 94.981,34.695 94.981 C 34.102 94.981,33.232 96.173,33.217 97.008 C 33.210 97.379,33.031 97.683,32.819 97.683 C 32.606 97.683,32.432 98.118,32.432 98.649 C 32.432 99.249,32.214 99.614,31.853 99.614 C 31.493 99.614,31.274 99.979,31.274 100.579 C 31.274 101.110,31.100 101.544,30.888 101.544 C 30.676 101.544,30.502 101.979,30.502 102.510 C 30.502 103.141,30.286 103.475,29.878 103.475 C 29.420 103.475,29.303 103.733,29.438 104.440 C 29.562 105.087,29.449 105.405,29.097 105.405 C 28.794 105.405,28.571 105.814,28.571 106.371 C 28.571 107.388,28.022 107.671,27.635 106.853 C 27.509 106.588,27.490 106.935,27.593 107.625 C 27.732 108.559,27.634 108.880,27.210 108.880 C 26.875 108.880,26.641 109.242,26.641 109.760 C 26.641 110.244,26.297 110.888,25.877 111.191 C 25.312 111.598,25.237 111.823,25.588 112.055 C 25.942 112.290,25.891 112.470,25.386 112.768 C 25.014 112.987,24.710 113.577,24.710 114.080 C 24.710 114.582,24.515 115.059,24.276 115.138 C 24.037 115.218,23.842 115.754,23.842 116.329 C 23.842 116.998,23.635 117.375,23.266 117.375 C 22.860 117.375,22.744 117.659,22.874 118.340 C 22.998 118.987,22.886 119.305,22.533 119.305 C 22.190 119.305,22.008 119.774,22.008 120.656 C 22.008 121.574,21.830 122.008,21.453 122.008 C 21.034 122.008,20.952 122.340,21.119 123.367 C 21.305 124.514,21.241 124.688,20.708 124.484 C 20.196 124.287,20.077 124.504,20.077 125.634 C 20.077 126.400,19.903 127.027,19.691 127.027 C 19.479 127.027,19.305 127.617,19.305 128.337 C 19.305 129.186,19.086 129.731,18.683 129.886 C 18.237 130.057,18.110 130.463,18.235 131.314 C 18.348 132.085,18.227 132.574,17.892 132.703 C 17.582 132.822,17.375 133.504,17.375 134.404 C 17.375 135.231,17.201 135.907,16.988 135.907 C 16.776 135.907,16.602 136.608,16.602 137.464 C 16.602 138.436,16.401 139.098,16.066 139.226 C 15.747 139.349,15.612 139.747,15.732 140.208 C 15.844 140.634,15.751 141.622,15.527 142.403 C 14.215 146.969,13.853 148.547,13.148 152.777 C 12.964 153.880,12.688 154.986,12.535 155.234 C 12.208 155.762,11.744 159.054,10.225 171.622 C 9.390 178.536,9.012 199.100,9.629 204.054 C 9.867 205.965,10.247 209.353,10.473 211.583 C 11.122 217.978,11.448 220.408,12.158 224.131 C 12.522 226.042,12.967 228.388,13.147 229.344 C 13.327 230.299,13.644 231.982,13.852 233.082 C 14.061 234.183,14.417 235.431,14.644 235.856 C 14.872 236.281,15.058 237.151,15.058 237.790 C 15.058 238.428,15.232 239.058,15.444 239.189 C 15.656 239.320,15.836 239.982,15.844 240.660 C 15.851 241.337,16.106 242.326,16.409 242.857 C 16.713 243.388,16.967 244.290,16.975 244.861 C 16.982 245.433,17.162 246.008,17.375 246.139 C 17.587 246.270,17.761 246.782,17.761 247.276 C 17.761 247.770,18.020 248.672,18.337 249.280 C 18.655 249.888,18.915 250.680,18.917 251.039 C 18.918 251.398,19.093 251.799,19.305 251.931 C 19.517 252.062,19.691 252.459,19.691 252.814 C 19.691 253.370,21.004 257.249,22.005 259.653 C 22.182 260.077,22.886 261.815,23.569 263.514 C 25.851 269.188,29.949 277.741,32.820 282.819 C 33.660 284.305,34.469 285.782,34.617 286.100 C 34.765 286.419,35.321 287.375,35.852 288.224 C 36.384 289.073,37.011 290.116,37.246 290.541 C 38.674 293.121,47.427 305.890,48.230 306.564 C 48.356 306.670,49.178 307.712,50.056 308.880 C 50.934 310.048,51.975 311.357,52.370 311.789 C 52.765 312.221,53.864 313.524,54.812 314.685 C 59.883 320.895,70.147 331.076,77.992 337.679 C 81.194 340.373,83.325 342.011,89.873 346.808 C 90.665 347.388,91.523 348.040,91.779 348.256 C 92.036 348.472,92.360 348.649,92.500 348.649 C 92.639 348.649,93.559 349.236,94.543 349.954 C 100.765 354.493,117.509 363.539,125.869 366.877 C 127.390 367.485,129.475 368.394,130.207 368.769 C 130.576 368.957,131.121 369.112,131.418 369.112 C 131.715 369.112,132.456 369.372,133.064 369.689 C 133.672 370.006,134.474 370.267,134.846 370.268 C 135.217 370.269,135.521 370.444,135.521 370.656 C 135.521 370.869,135.825 371.048,136.197 371.055 C 136.979 371.070,140.821 372.353,141.192 372.723 C 141.329 372.861,141.849 372.973,142.348 372.973 C 142.846 372.973,143.555 373.130,143.924 373.323 C 144.293 373.515,145.724 373.969,147.104 374.331 C 148.485 374.693,149.961 375.131,150.386 375.306 C 150.811 375.480,151.680 375.710,152.317 375.815 C 152.954 375.921,154.517 376.297,155.792 376.652 C 158.145 377.307,160.082 377.684,164.344 378.318 C 165.650 378.512,166.953 378.820,167.239 379.001 C 167.756 379.328,169.378 379.556,176.448 380.296 C 178.465 380.507,180.811 380.853,181.660 381.064 C 183.769 381.589,216.256 381.573,218.533 381.046 C 220.195 380.661,224.975 380.079,229.923 379.660 C 231.197 379.552,232.458 379.283,232.726 379.064 C 232.993 378.844,234.296 378.520,235.621 378.343 C 238.660 377.939,241.209 377.446,244.402 376.647 C 252.020 374.741,252.472 374.622,253.604 374.209 C 254.170 374.003,255.415 373.618,256.371 373.354 C 258.952 372.639,261.495 371.792,262.253 371.394 C 262.622 371.201,263.189 371.042,263.514 371.042 C 263.838 371.042,264.405 370.887,264.774 370.696 C 265.142 370.505,266.226 370.053,267.181 369.691 C 268.137 369.329,269.221 368.877,269.589 368.686 C 269.958 368.496,270.431 368.340,270.641 368.340 C 271.044 368.340,273.161 367.412,281.853 363.424 C 285.226 361.877,293.041 357.892,293.629 357.419 C 294.429 356.777,302.924 351.712,303.571 351.491 C 303.943 351.365,304.247 351.108,304.247 350.920 C 304.247 350.733,304.414 350.579,304.617 350.579 C 306.458 350.579,326.123 334.775,333.941 327.012 C 336.639 324.333,337.966 322.932,343.448 316.975 C 344.516 315.815,346.839 313.041,348.610 310.811 C 350.380 308.581,352.241 306.247,352.745 305.624 C 354.834 303.043,362.311 291.767,364.227 288.308 C 364.790 287.292,365.497 286.076,365.798 285.605 C 367.917 282.297,375.676 266.662,375.676 265.699 C 375.676 265.532,376.110 264.495,376.641 263.395 C 377.172 262.294,377.606 261.217,377.606 261.001 C 377.606 260.784,377.762 260.306,377.953 259.937 C 378.143 259.568,378.598 258.485,378.964 257.529 C 379.330 256.573,379.762 255.444,379.924 255.019 C 380.086 254.595,380.536 253.205,380.922 251.931 C 381.309 250.656,381.764 249.449,381.933 249.247 C 382.101 249.045,382.239 248.478,382.239 247.987 C 382.239 247.496,382.392 246.792,382.577 246.423 C 382.914 245.757,383.704 243.087,384.547 239.768 C 384.790 238.813,385.231 237.162,385.526 236.100 C 386.133 233.920,386.387 232.725,386.858 229.848 C 387.039 228.745,387.293 227.670,387.423 227.460 C 387.795 226.858,388.863 219.176,390.382 206.178 C 391.494 196.658,390.291 168.896,388.395 160.323 C 388.195 159.417,388.032 158.201,388.034 157.620 C 388.037 156.599,387.169 152.408,386.450 149.973 C 386.258 149.320,386.100 148.397,386.100 147.920 C 386.100 147.443,385.920 146.717,385.700 146.306 C 385.480 145.894,385.284 144.787,385.266 143.844 C 385.243 142.703,385.038 142.056,384.653 141.909 C 384.236 141.748,384.141 141.359,384.312 140.504 C 384.474 139.696,384.360 139.131,383.953 138.724 C 383.550 138.321,383.436 137.770,383.601 137.018 C 383.780 136.202,383.683 135.844,383.235 135.673 C 382.824 135.515,382.625 134.949,382.625 133.936 C 382.625 133.109,382.452 132.432,382.239 132.432 C 382.027 132.432,381.853 131.824,381.853 131.081 C 381.853 130.137,381.679 129.730,381.274 129.730 C 380.870 129.730,380.695 129.322,380.695 128.378 C 380.695 127.635,380.521 127.027,380.309 127.027 C 380.097 127.027,379.923 126.332,379.923 125.483 C 379.923 124.539,379.754 123.976,379.488 124.035 C 379.250 124.088,378.974 123.914,378.877 123.649 C 378.780 123.383,378.883 123.166,379.106 123.166 C 379.330 123.166,379.412 122.905,379.290 122.587 C 379.168 122.268,378.826 122.008,378.530 122.008 C 378.173 122.008,377.992 121.554,377.992 120.656 C 377.992 119.913,377.819 119.305,377.606 119.305 C 377.394 119.305,377.220 118.789,377.220 118.159 C 377.220 117.299,377.076 117.068,376.641 117.235 C 376.192 117.407,376.062 117.144,376.062 116.064 C 376.062 115.299,375.888 114.672,375.676 114.672 C 375.463 114.672,375.290 114.237,375.290 113.707 C 375.290 113.106,375.071 112.741,374.710 112.741 C 374.350 112.741,374.131 112.377,374.131 111.776 C 374.131 111.245,373.958 110.811,373.745 110.811 C 373.533 110.811,373.359 110.279,373.359 109.630 C 373.359 108.941,373.198 108.548,372.973 108.687 C 372.743 108.829,372.587 108.370,372.587 107.552 C 372.587 106.588,372.414 106.178,372.008 106.178 C 371.512 106.178,371.374 105.843,371.442 104.812 C 371.466 104.455,370.345 103.475,369.912 103.475 C 369.684 103.475,369.498 103.041,369.498 102.510 C 369.498 101.979,369.324 101.544,369.112 101.544 C 368.900 101.544,368.726 101.110,368.726 100.579 C 368.726 99.950,368.510 99.614,368.105 99.614 C 367.718 99.614,367.567 99.401,367.703 99.046 C 367.823 98.734,367.668 98.225,367.358 97.915 C 367.049 97.606,366.795 96.993,366.795 96.553 C 366.795 96.113,366.622 95.753,366.409 95.753 C 366.197 95.753,366.023 95.430,366.023 95.035 C 366.023 94.640,365.589 93.990,365.058 93.592 C 364.526 93.193,364.093 92.474,364.093 91.993 C 364.093 91.474,363.858 91.120,363.514 91.120 C 363.185 91.120,362.934 90.773,362.934 90.320 C 362.934 89.461,362.098 88.417,361.410 88.417 C 361.154 88.417,361.084 88.039,361.231 87.452 C 361.387 86.831,361.311 86.486,361.018 86.486 C 360.300 86.486,359.459 85.460,359.459 84.584 C 359.459 84.144,359.273 83.784,359.046 83.784 C 358.309 83.784,357.529 82.706,357.529 81.688 C 357.529 81.142,357.347 80.695,357.125 80.695 C 356.422 80.695,354.826 78.832,354.826 78.010 C 354.826 77.575,354.640 77.220,354.413 77.220 C 353.878 77.220,352.896 76.238,352.896 75.703 C 352.896 75.476,352.635 75.290,352.317 75.290 C 351.956 75.290,351.737 74.925,351.737 74.324 C 351.737 73.793,351.564 73.359,351.351 73.359 C 351.139 73.359,350.965 73.109,350.965 72.803 C 350.965 72.497,350.765 72.122,350.519 71.971 C 350.234 71.794,350.179 71.866,350.367 72.170 C 350.581 72.517,350.442 72.508,349.847 72.136 C 349.334 71.816,349.035 71.229,349.035 70.541 C 349.035 69.914,348.871 69.554,348.649 69.691 C 348.436 69.822,348.263 69.659,348.263 69.328 C 348.263 68.997,348.076 68.726,347.849 68.726 C 347.225 68.726,346.332 67.706,346.332 66.993 C 346.332 66.647,346.161 66.469,345.952 66.599 C 345.743 66.728,345.053 66.304,344.420 65.656 C 343.698 64.917,343.474 64.479,343.820 64.479 C 344.137 64.479,343.727 63.822,342.857 62.934 C 342.025 62.085,341.163 61.390,340.942 61.390 C 340.721 61.390,340.541 61.204,340.541 60.976 C 340.541 60.442,339.558 59.459,339.024 59.459 C 338.796 59.459,338.610 59.283,338.610 59.068 C 338.610 58.566,334.862 54.826,334.358 54.826 C 334.148 54.826,333.977 54.644,333.977 54.422 C 333.977 53.895,330.275 50.193,329.748 50.193 C 329.526 50.193,329.344 50.007,329.344 49.779 C 329.344 49.260,328.367 48.263,327.859 48.263 C 327.649 48.263,327.390 48.045,327.283 47.780 C 327.135 47.414,327.081 47.421,327.058 47.811 C 327.023 48.394,323.938 45.420,323.938 44.803 C 323.938 44.582,323.752 44.402,323.525 44.402 C 322.990 44.402,322.008 43.419,322.008 42.885 C 322.008 42.657,321.573 42.471,321.042 42.471 C 320.512 42.471,320.077 42.297,320.077 42.085 C 320.077 41.873,319.798 41.699,319.457 41.699 C 319.064 41.699,318.918 41.486,319.059 41.120 C 319.181 40.801,319.105 40.541,318.889 40.541 C 318.674 40.541,318.069 40.112,317.546 39.589 C 317.007 39.050,316.345 38.733,316.019 38.858 C 315.674 38.990,315.444 38.857,315.444 38.524 C 315.444 38.218,315.010 37.736,314.479 37.452 C 313.948 37.168,313.514 36.685,313.514 36.379 C 313.514 35.979,313.243 35.892,312.548 36.066 C 311.836 36.245,311.583 36.154,311.583 35.722 C 311.583 35.399,311.409 35.135,311.197 35.135 C 310.985 35.135,310.811 34.856,310.811 34.514 C 310.811 34.045,310.575 33.952,309.846 34.135 C 309.133 34.314,308.880 34.224,308.880 33.791 C 308.880 33.469,308.620 33.205,308.301 33.205 C 307.983 33.205,307.722 33.031,307.722 32.819 C 307.722 32.606,307.375 32.432,306.950 32.432 C 306.439 32.432,306.178 32.175,306.178 31.672 C 306.178 31.155,305.992 30.983,305.598 31.135 C 305.280 31.257,305.019 31.164,305.019 30.929 C 305.019 30.694,304.585 30.502,304.054 30.502 C 303.523 30.502,303.089 30.320,303.089 30.098 C 303.089 29.876,302.654 29.260,302.124 28.729 C 301.593 28.198,301.158 27.946,301.158 28.168 C 301.158 28.390,300.985 28.571,300.772 28.571 C 300.560 28.571,300.386 28.385,300.386 28.158 C 300.386 27.476,299.338 26.641,298.483 26.641 C 298.043 26.641,297.683 26.467,297.683 26.255 C 297.683 26.042,297.249 25.869,296.718 25.869 C 296.118 25.869,295.753 25.650,295.753 25.290 C 295.753 24.934,295.391 24.710,294.814 24.710 C 294.135 24.710,293.842 24.470,293.753 23.842 C 293.658 23.176,293.336 22.945,292.375 22.852 C 291.684 22.785,291.120 22.568,291.120 22.369 C 291.120 22.170,290.685 22.008,290.154 22.008 C 289.598 22.008,289.189 21.785,289.189 21.482 C 289.189 21.130,288.871 21.017,288.224 21.141 C 287.516 21.276,287.259 21.159,287.259 20.701 C 287.259 20.293,286.925 20.077,286.293 20.077 C 285.763 20.077,285.328 19.903,285.328 19.691 C 285.328 19.479,284.894 19.305,284.363 19.305 C 283.762 19.305,283.398 19.086,283.398 18.726 C 283.398 18.366,283.033 18.147,282.432 18.147 C 281.902 18.147,281.467 17.973,281.467 17.761 C 281.467 17.548,281.033 17.375,280.502 17.375 C 279.868 17.375,279.537 17.159,279.537 16.747 C 279.537 16.256,279.285 16.170,278.378 16.351 C 277.510 16.525,277.220 16.440,277.220 16.014 C 277.220 15.667,276.851 15.444,276.278 15.444 C 275.759 15.444,275.228 15.270,275.097 15.058 C 274.965 14.846,274.415 14.672,273.874 14.672 C 273.158 14.672,272.951 14.514,273.113 14.093 C 273.287 13.638,273.006 13.514,271.803 13.514 C 270.960 13.514,270.270 13.340,270.270 13.127 C 270.270 12.915,269.836 12.741,269.305 12.741 C 268.670 12.741,268.340 12.526,268.340 12.112 C 268.340 11.608,268.070 11.526,266.988 11.701 C 265.969 11.867,265.637 11.784,265.637 11.366 C 265.637 10.992,265.209 10.811,264.327 10.811 C 263.588 10.811,262.930 10.585,262.818 10.293 C 262.689 9.957,262.201 9.837,261.426 9.951 C 260.512 10.085,260.232 9.980,260.232 9.503 C 260.232 9.034,259.851 8.880,258.687 8.880 C 257.838 8.880,257.143 8.707,257.143 8.494 C 257.143 8.282,256.535 8.108,255.792 8.108 C 254.848 8.108,254.440 7.933,254.440 7.529 C 254.440 7.100,253.990 6.950,252.703 6.950 C 251.747 6.950,250.965 6.776,250.965 6.564 C 250.965 6.351,250.097 6.178,249.035 6.178 C 247.516 6.178,247.104 6.045,247.104 5.555 C 247.104 5.035,246.816 4.975,245.364 5.193 C 243.977 5.401,243.577 5.331,243.392 4.850 C 243.226 4.417,242.628 4.247,241.271 4.247 C 239.878 4.247,239.382 4.100,239.382 3.687 C 239.382 3.237,238.891 3.163,236.873 3.309 C 234.805 3.458,234.363 3.387,234.363 2.903 C 234.363 2.431,233.801 2.317,231.467 2.317 C 229.794 2.317,228.571 2.154,228.571 1.931 C 228.571 1.701,227.105 1.544,224.945 1.544 C 222.010 1.544,221.274 1.429,221.086 0.940 C 220.896 0.444,220.111 0.335,216.701 0.332 C 214.417 0.330,207.641 0.240,201.643 0.132 C 195.465 0.021,190.001 0.094,189.038 0.299 C 188.103 0.499,186.581 0.556,185.657 0.427 C 184.733 0.299,182.804 0.244,181.371 0.307 M147.162 98.694 C 153.753 100.382,159.679 104.531,163.112 109.861 C 164.220 111.580,164.737 112.598,166.049 115.637 C 168.030 120.223,168.016 128.324,166.020 133.398 C 160.703 146.909,148.683 153.055,133.609 149.969 C 128.641 148.952,120.794 142.824,118.297 138.012 C 118.036 137.508,117.569 136.611,117.259 136.019 C 114.081 129.938,113.695 121.402,116.312 115.058 C 117.007 113.375,117.947 111.397,118.147 111.197 C 118.254 111.091,118.601 110.496,118.920 109.874 C 120.769 106.264,127.508 101.026,132.239 99.522 C 133.301 99.185,134.691 98.739,135.328 98.530 C 137.259 97.899,144.447 97.998,147.162 98.694 M268.147 98.723 C 273.538 100.057,283.398 107.017,283.398 109.489 C 283.398 109.791,283.535 110.039,283.702 110.039 C 284.237 110.039,286.706 115.350,287.381 117.954 C 287.915 120.013,287.893 129.137,287.349 131.081 C 286.588 133.805,285.919 135.521,285.620 135.521 C 285.459 135.521,285.328 135.847,285.328 136.246 C 285.328 136.645,285.068 137.187,284.749 137.452 C 284.431 137.716,284.170 138.172,284.170 138.464 C 284.170 138.757,283.996 138.996,283.784 138.996 C 283.571 138.996,283.398 139.169,283.398 139.379 C 283.398 140.113,280.295 143.432,277.582 145.601 C 268.941 152.507,253.632 152.543,245.709 145.674 C 245.096 145.143,244.242 144.422,243.811 144.072 C 237.118 138.642,233.346 125.984,235.972 117.761 C 237.963 111.527,240.588 107.546,245.361 103.523 C 250.603 99.105,260.912 96.933,268.147 98.723 M323.706 227.349 C 324.177 228.112,322.108 240.008,321.193 241.790 C 321.004 242.159,320.849 242.815,320.849 243.248 C 320.849 244.017,319.120 249.799,318.537 250.978 C 318.376 251.303,318.123 252.127,317.973 252.807 C 317.824 253.488,317.541 254.144,317.345 254.265 C 317.149 254.387,316.988 254.825,316.988 255.240 C 316.988 255.655,316.840 256.297,316.659 256.665 C 316.337 257.322,315.822 258.477,314.468 261.583 C 313.256 264.364,311.222 268.492,309.998 270.656 C 309.337 271.824,308.390 273.508,307.893 274.398 C 306.746 276.455,303.774 281.213,303.478 281.467 C 303.354 281.573,302.318 282.963,301.176 284.556 C 292.263 296.984,276.909 310.809,264.479 317.601 C 263.736 318.007,263.040 318.427,262.934 318.533 C 262.531 318.936,256.562 321.990,253.282 323.471 C 248.266 325.737,246.999 326.248,243.629 327.365 C 241.612 328.034,239.660 328.753,239.291 328.962 C 238.922 329.172,238.194 329.344,237.673 329.344 C 237.152 329.344,236.618 329.517,236.486 329.730 C 236.355 329.942,235.891 330.116,235.454 330.116 C 235.017 330.116,233.768 330.395,232.677 330.736 C 229.072 331.865,228.333 332.046,227.347 332.046 C 226.810 332.046,225.866 332.218,225.251 332.428 C 221.670 333.649,211.783 334.511,201.351 334.511 C 190.434 334.511,185.136 334.005,175.676 332.058 C 174.720 331.861,173.038 331.530,171.937 331.321 C 170.836 331.113,169.588 330.757,169.163 330.529 C 168.738 330.302,168.029 330.116,167.588 330.116 C 167.146 330.116,166.483 329.960,166.114 329.769 C 165.746 329.578,163.967 328.961,162.162 328.397 C 160.357 327.834,158.533 327.229,158.108 327.053 C 157.683 326.877,156.554 326.426,155.598 326.051 C 149.066 323.485,140.439 319.121,134.752 315.508 C 133.582 314.765,132.568 314.012,132.497 313.835 C 132.426 313.658,132.206 313.514,132.008 313.514 C 131.681 313.514,126.324 309.801,125.869 309.258 C 125.763 309.132,125.310 308.778,124.862 308.472 C 121.036 305.852,112.412 297.637,107.231 291.676 C 104.638 288.694,97.345 278.916,96.879 277.798 C 96.790 277.586,95.719 275.736,94.498 273.687 C 93.277 271.638,92.278 269.784,92.278 269.569 C 92.278 269.353,92.148 269.118,91.988 269.048 C 91.641 268.893,88.293 261.986,87.248 259.266 C 87.085 258.842,86.673 257.860,86.333 257.085 C 85.993 256.309,85.714 255.432,85.714 255.135 C 85.714 254.838,85.571 254.430,85.396 254.228 C 85.222 254.026,84.752 252.819,84.352 251.544 C 83.952 250.270,83.487 249.063,83.318 248.861 C 83.150 248.659,83.012 248.092,83.012 247.601 C 83.012 247.110,82.857 246.406,82.667 246.037 C 82.128 244.987,81.081 241.142,81.081 240.212 C 81.081 239.750,80.926 239.070,80.737 238.701 C 80.347 237.944,79.534 233.978,79.174 231.081 C 79.042 230.019,78.794 228.925,78.622 228.649 C 77.558 226.942,71.122 227.027,201.123 227.027 C 268.434 227.027,323.596 227.172,323.706 227.349 " stroke="none" fill="#face3f" fill-rule="evenodd"></path>
  </g>
</svg>