<svg id="svg" version="1.1" xmlns="http://www.w3.org/2000/svg" xmlns:xlink="http://www.w3.org/1999/xlink" width="400" height="385.98130841121497" viewBox="0, 0, 400,385.98130841121497">
  <g id="svgg">
    <path id="path0" d="M132.762 100.011 C 120.778 103.891,114.533 112.419,114.534 124.903 C 114.534 130.074,114.709 131.689,115.452 133.398 C 115.637 133.822,116.133 134.961,116.556 135.927 C 117.378 137.809,120.456 142.201,121.781 143.383 C 123.926 145.296,125.795 146.718,126.166 146.718 C 126.392 146.718,126.634 146.848,126.705 147.008 C 126.826 147.279,128.258 148.008,130.502 148.942 C 134.717 150.696,143.430 151.141,147.104 149.790 C 153.830 147.317,159.930 142.608,161.969 138.314 C 162.394 137.420,162.872 136.686,163.031 136.684 C 163.190 136.682,163.320 136.367,163.320 135.985 C 163.320 135.602,163.472 135.125,163.657 134.923 C 165.221 133.218,166.219 120.668,164.995 118.095 C 164.756 117.592,164.253 116.313,163.878 115.251 C 161.756 109.251,155.911 103.469,149.228 100.761 C 144.886 99.001,136.991 98.642,132.762 100.011 M253.475 99.972 C 248.232 101.779,246.133 103.011,242.903 106.178 C 240.100 108.925,239.432 109.691,238.331 111.420 C 237.255 113.112,236.344 115.423,235.148 119.498 C 234.596 121.379,234.805 129.185,235.474 131.628 C 239.456 146.190,256.168 154.597,269.884 148.939 C 271.614 148.225,273.548 147.302,273.745 147.095 C 273.851 146.984,274.459 146.562,275.097 146.158 C 290.400 136.436,289.714 112.321,273.860 102.693 C 268.468 99.418,258.820 98.130,253.475 99.972 M394.692 168.919 C 394.696 169.768,394.775 170.070,394.868 169.590 C 394.960 169.110,394.957 168.415,394.860 168.046 C 394.763 167.677,394.688 168.069,394.692 168.919 M190.154 189.216 C 182.695 189.833,174.826 191.120,169.498 192.593 C 168.755 192.799,167.191 193.226,166.023 193.542 C 163.074 194.340,156.812 196.438,155.347 197.118 C 154.678 197.429,154.024 197.683,153.895 197.683 C 153.765 197.683,152.836 198.048,151.830 198.493 C 148.831 199.820,145.795 201.205,145.126 201.551 C 143.126 202.587,138.247 205.263,137.259 205.867 C 136.622 206.256,135.796 206.679,135.425 206.807 C 135.053 206.935,134.749 207.193,134.749 207.381 C 134.749 207.569,134.574 207.722,134.361 207.722 C 133.954 207.722,122.769 215.613,121.421 216.851 C 120.992 217.245,119.863 218.247,118.911 219.078 C 114.360 223.052,109.256 228.228,105.787 232.386 C 104.834 233.529,103.853 234.673,103.607 234.929 C 98.665 240.076,88.879 257.395,85.165 267.568 C 84.584 269.160,83.966 270.811,83.793 271.236 C 83.274 272.506,81.776 277.314,81.447 278.764 C 81.278 279.508,80.853 281.245,80.503 282.625 C 79.382 287.040,78.023 294.883,78.326 295.186 C 78.663 295.523,321.960 295.371,322.168 295.033 C 322.489 294.515,320.477 284.565,318.800 278.378 C 318.141 275.945,315.754 268.711,315.042 266.988 C 312.972 261.980,312.252 260.380,310.265 256.371 C 298.512 232.653,278.862 213.239,254.633 201.406 C 247.200 197.775,241.226 195.462,234.363 193.557 C 233.195 193.232,231.631 192.798,230.888 192.590 C 230.145 192.383,228.755 192.060,227.799 191.873 C 226.844 191.685,224.759 191.263,223.166 190.934 C 214.418 189.128,200.174 188.386,190.154 189.216 " stroke="none" fill="#060606" fill-rule="evenodd"></path>
    <path id="path1" d="M186.197 0.305 C 183.713 0.393,183.012 0.541,183.012 0.981 C 183.012 1.439,182.250 1.544,178.930 1.544 C 175.914 1.544,174.705 1.688,174.299 2.094 C 173.878 2.515,173.070 2.592,170.851 2.424 C 168.331 2.234,167.954 2.288,167.954 2.840 C 167.954 3.312,167.595 3.475,166.555 3.475 C 165.286 3.475,165.204 3.412,165.668 2.799 C 166.103 2.224,166.098 2.196,165.638 2.606 C 165.340 2.872,164.393 3.103,163.533 3.119 C 162.673 3.136,162.186 3.237,162.452 3.345 C 163.587 3.803,162.779 4.247,160.811 4.247 C 159.181 4.247,158.687 4.382,158.687 4.826 C 158.687 5.263,158.218 5.405,156.780 5.405 C 155.730 5.405,154.764 5.579,154.633 5.792 C 154.502 6.004,153.623 6.178,152.680 6.178 C 151.737 6.178,150.965 6.351,150.965 6.564 C 150.965 6.776,150.183 6.950,149.228 6.950 C 147.941 6.950,147.490 7.100,147.490 7.529 C 147.490 7.947,147.061 8.108,145.946 8.108 C 145.097 8.108,144.402 8.282,144.402 8.494 C 144.402 8.707,143.788 8.880,143.038 8.880 C 142.182 8.880,141.592 9.096,141.452 9.459 C 141.316 9.814,140.731 10.039,139.943 10.039 C 139.235 10.039,138.548 10.212,138.417 10.425 C 138.286 10.637,137.581 10.811,136.850 10.811 C 135.897 10.811,135.521 10.983,135.521 11.421 C 135.521 11.897,135.268 11.975,134.363 11.776 C 133.457 11.577,133.205 11.655,133.205 12.131 C 133.205 12.548,132.847 12.741,132.079 12.741 C 131.459 12.741,130.882 12.952,130.796 13.209 C 130.711 13.466,130.132 13.684,129.509 13.692 C 128.816 13.701,128.416 13.893,128.475 14.189 C 128.537 14.502,128.095 14.672,127.220 14.672 C 126.477 14.672,125.869 14.846,125.869 15.058 C 125.869 15.270,125.434 15.444,124.903 15.444 C 124.268 15.444,123.938 15.659,123.938 16.074 C 123.938 16.576,123.669 16.660,122.610 16.488 C 121.562 16.318,121.326 16.389,121.493 16.823 C 121.643 17.215,121.409 17.375,120.686 17.375 C 120.125 17.375,119.565 17.640,119.440 17.965 C 119.297 18.339,118.946 18.471,118.485 18.325 C 118.020 18.177,117.673 18.312,117.524 18.699 C 117.397 19.032,116.866 19.305,116.345 19.305 C 115.812 19.305,115.503 19.474,115.637 19.691 C 115.772 19.910,115.448 20.077,114.888 20.077 C 114.267 20.077,113.900 20.292,113.900 20.656 C 113.900 21.017,113.535 21.236,112.934 21.236 C 112.403 21.236,111.969 21.409,111.969 21.622 C 111.969 21.834,111.535 22.008,111.004 22.008 C 110.374 22.008,110.039 22.224,110.039 22.629 C 110.039 23.098,109.803 23.191,109.073 23.007 C 108.361 22.829,108.108 22.919,108.108 23.352 C 108.108 23.674,107.847 23.938,107.529 23.938 C 107.210 23.938,106.950 24.112,106.950 24.324 C 106.950 24.537,106.602 24.710,106.178 24.710 C 105.749 24.710,105.405 24.968,105.405 25.290 C 105.405 25.650,105.041 25.869,104.440 25.869 C 103.909 25.869,103.475 26.042,103.475 26.255 C 103.475 26.467,103.041 26.641,102.510 26.641 C 101.979 26.641,101.544 26.827,101.544 27.055 C 101.544 27.736,100.496 28.571,99.641 28.571 C 99.173 28.571,98.842 28.822,98.842 29.177 C 98.842 29.607,98.618 29.711,98.068 29.536 C 97.553 29.373,97.216 29.494,97.061 29.896 C 96.933 30.229,96.576 30.502,96.268 30.502 C 95.960 30.502,95.815 30.676,95.946 30.888 C 96.085 31.113,95.693 31.274,95.003 31.274 C 94.354 31.274,93.822 31.460,93.822 31.688 C 93.822 32.293,92.727 33.289,92.331 33.044 C 91.915 32.787,90.347 34.094,90.347 34.698 C 90.347 34.938,90.087 35.135,89.768 35.135 C 89.450 35.135,89.189 35.309,89.189 35.521 C 89.189 35.734,88.755 35.907,88.224 35.907 C 87.693 35.907,87.259 36.093,87.259 36.321 C 87.259 36.960,86.190 37.879,85.374 37.941 C 84.898 37.976,84.717 38.195,84.858 38.563 C 85.015 38.970,84.894 39.060,84.430 38.882 C 84.007 38.720,83.784 38.830,83.784 39.201 C 83.784 39.513,83.513 39.768,83.182 39.768 C 82.851 39.768,82.668 39.911,82.776 40.086 C 83.028 40.493,81.534 41.786,81.113 41.525 C 80.712 41.278,79.151 42.604,79.151 43.192 C 79.151 43.433,78.964 43.629,78.737 43.629 C 78.202 43.629,77.220 44.612,77.220 45.146 C 77.220 45.374,76.959 45.560,76.641 45.560 C 76.322 45.560,76.062 45.734,76.062 45.946 C 76.062 46.158,75.702 46.332,75.262 46.332 C 74.505 46.332,73.359 47.146,73.359 47.683 C 73.359 48.167,72.247 49.035,71.626 49.035 C 71.280 49.035,71.101 49.203,71.228 49.409 C 71.542 49.916,69.256 52.258,68.751 51.946 C 68.509 51.796,68.440 51.936,68.579 52.297 C 68.705 52.626,68.616 52.896,68.381 52.896 C 68.146 52.896,67.954 53.156,67.954 53.475 C 67.954 53.793,67.772 54.054,67.550 54.054 C 67.026 54.054,65.251 55.829,65.251 56.353 C 65.251 56.575,65.065 56.757,64.837 56.757 C 64.303 56.757,63.320 57.739,63.320 58.274 C 63.320 58.501,63.131 58.687,62.900 58.687 C 62.669 58.687,61.720 59.469,60.791 60.425 C 59.862 61.380,58.922 62.162,58.702 62.162 C 58.481 62.162,58.301 62.348,58.301 62.576 C 58.301 63.026,57.351 64.093,56.950 64.093 C 56.549 64.093,55.598 65.160,55.598 65.609 C 55.598 65.837,55.425 66.023,55.212 66.023 C 55.000 66.023,54.826 66.458,54.826 66.988 C 54.826 67.519,54.640 67.954,54.413 67.954 C 53.859 67.954,52.896 68.943,52.896 69.512 C 52.896 69.762,52.635 69.867,52.317 69.745 C 51.992 69.620,51.737 69.734,51.737 70.004 C 51.737 70.269,51.390 70.736,50.965 71.042 C 50.541 71.349,50.193 71.995,50.193 72.479 C 50.193 73.004,49.959 73.359,49.614 73.359 C 49.295 73.359,49.035 73.545,49.035 73.773 C 49.035 74.223,48.084 75.290,47.683 75.290 C 47.096 75.290,46.337 76.385,46.815 76.544 C 47.363 76.727,46.291 77.992,45.587 77.992 C 45.360 77.992,45.174 78.253,45.174 78.571 C 45.174 78.890,45.000 79.151,44.788 79.151 C 44.575 79.151,44.402 79.510,44.402 79.950 C 44.402 80.805,43.566 81.853,42.885 81.853 C 42.657 81.853,42.471 82.212,42.471 82.651 C 42.471 83.090,41.856 84.029,41.105 84.738 C 40.191 85.600,39.903 86.092,40.236 86.226 C 40.618 86.379,40.622 86.433,40.251 86.456 C 39.986 86.473,39.768 86.766,39.768 87.107 C 39.768 87.514,39.558 87.647,39.159 87.493 C 38.656 87.301,38.594 87.463,38.803 88.417 C 39.013 89.371,38.950 89.533,38.448 89.341 C 38.048 89.187,37.838 89.320,37.838 89.727 C 37.838 90.068,37.664 90.347,37.452 90.347 C 37.239 90.347,37.066 90.782,37.066 91.313 C 37.066 91.913,36.847 92.278,36.486 92.278 C 35.964 92.278,35.736 92.736,35.862 93.533 C 35.887 93.692,35.734 93.822,35.521 93.822 C 35.309 93.822,35.135 94.083,35.135 94.402 C 35.135 94.720,34.856 94.981,34.514 94.981 C 34.045 94.981,33.952 95.216,34.135 95.946 C 34.314 96.658,34.224 96.911,33.791 96.911 C 33.423 96.911,33.205 97.270,33.205 97.876 C 33.205 98.407,33.031 98.842,32.819 98.842 C 32.606 98.842,32.432 99.276,32.432 99.807 C 32.432 100.338,32.246 100.772,32.019 100.772 C 31.337 100.772,30.502 101.820,30.502 102.675 C 30.502 103.129,30.251 103.475,29.923 103.475 C 29.559 103.475,29.344 103.842,29.344 104.463 C 29.344 105.023,29.177 105.348,28.958 105.212 C 28.731 105.072,28.571 105.480,28.571 106.196 C 28.571 107.077,28.422 107.361,28.039 107.214 C 27.628 107.057,27.549 107.325,27.692 108.387 C 27.846 109.534,27.774 109.725,27.259 109.528 C 26.765 109.338,26.641 109.560,26.641 110.630 C 26.641 111.366,26.467 111.969,26.255 111.969 C 26.042 111.969,25.869 112.403,25.869 112.934 C 25.869 113.535,25.650 113.900,25.290 113.900 C 24.929 113.900,24.710 114.264,24.710 114.865 C 24.710 115.396,24.537 115.830,24.324 115.830 C 24.112 115.830,23.938 116.351,23.938 116.988 C 23.938 118.155,23.398 118.560,23.035 117.664 C 22.927 117.399,22.896 117.920,22.966 118.822 C 23.060 120.034,22.951 120.463,22.550 120.463 C 22.188 120.463,22.008 120.911,22.008 121.815 C 22.008 122.558,21.834 123.166,21.622 123.166 C 21.409 123.166,21.236 123.582,21.236 124.090 C 21.236 124.598,20.975 125.114,20.656 125.236 C 20.318 125.366,20.077 125.945,20.077 126.629 C 20.077 127.273,19.903 127.799,19.691 127.799 C 19.479 127.799,19.305 128.494,19.305 129.344 C 19.305 130.479,19.147 130.888,18.708 130.888 C 18.236 130.888,18.164 131.169,18.365 132.239 C 18.574 133.350,18.503 133.591,17.967 133.591 C 17.456 133.591,17.341 133.886,17.433 134.961 C 17.498 135.715,17.365 136.453,17.137 136.602 C 16.909 136.751,16.699 137.566,16.670 138.414 C 16.642 139.262,16.441 140.015,16.224 140.087 C 16.008 140.160,15.830 140.870,15.830 141.667 C 15.830 142.463,15.703 143.242,15.547 143.398 C 15.181 143.764,13.770 149.793,13.112 153.801 C 12.909 155.042,12.633 156.234,12.499 156.450 C 12.366 156.666,12.090 158.083,11.887 159.599 C 8.847 182.259,8.550 195.052,10.644 213.127 C 11.276 218.584,11.567 220.612,12.164 223.745 C 12.528 225.656,12.970 228.089,13.147 229.151 C 13.826 233.232,14.246 235.112,14.644 235.856 C 14.872 236.281,15.058 237.151,15.058 237.790 C 15.058 238.428,15.232 239.058,15.444 239.189 C 15.656 239.320,15.836 239.982,15.844 240.660 C 15.851 241.337,16.106 242.326,16.409 242.857 C 16.713 243.388,16.967 244.290,16.975 244.861 C 16.982 245.433,17.162 246.008,17.375 246.139 C 17.587 246.270,17.761 246.854,17.761 247.436 C 17.761 248.018,17.912 248.659,18.097 248.861 C 18.282 249.063,18.737 250.270,19.107 251.544 C 19.477 252.819,20.004 254.382,20.277 255.019 C 20.549 255.656,21.059 257.033,21.409 258.079 C 22.074 260.068,23.118 262.698,24.408 265.637 C 24.828 266.593,25.432 267.983,25.751 268.726 C 26.557 270.609,28.915 275.634,29.645 277.027 C 29.979 277.664,30.422 278.533,30.630 278.958 C 30.838 279.382,31.150 279.990,31.323 280.309 C 31.497 280.627,31.936 281.496,32.300 282.239 C 32.902 283.470,34.589 286.355,35.813 288.246 C 36.080 288.659,36.413 289.257,36.553 289.575 C 37.907 292.660,51.795 312.027,54.826 315.058 C 54.932 315.164,56.409 316.815,58.108 318.726 C 65.306 326.824,76.710 337.387,84.363 343.044 C 85.212 343.671,86.244 344.494,86.656 344.872 C 87.067 345.251,87.533 345.560,87.690 345.560 C 87.847 345.560,88.209 345.793,88.495 346.079 C 88.780 346.364,89.704 347.050,90.549 347.604 C 91.394 348.158,93.633 349.662,95.525 350.946 C 97.416 352.231,99.020 353.282,99.088 353.282 C 99.157 353.282,100.128 353.864,101.247 354.575 C 103.417 355.954,106.405 357.668,108.301 358.623 C 108.938 358.944,109.546 359.307,109.653 359.430 C 109.759 359.553,110.367 359.891,111.004 360.180 C 111.641 360.470,112.423 360.856,112.741 361.038 C 113.060 361.220,113.929 361.650,114.672 361.993 C 115.415 362.336,116.544 362.893,117.181 363.230 C 119.148 364.270,120.620 364.942,124.710 366.668 C 126.872 367.581,128.712 368.399,129.435 368.769 C 129.804 368.957,130.354 369.112,130.658 369.112 C 130.963 369.112,131.790 369.402,132.498 369.756 C 134.869 370.945,135.122 371.042,135.825 371.042 C 136.210 371.042,136.690 371.181,136.892 371.349 C 137.094 371.518,138.301 371.973,139.575 372.359 C 140.849 372.746,142.239 373.192,142.664 373.350 C 144.755 374.129,146.795 374.730,150.579 375.680 C 151.322 375.867,152.973 376.306,154.247 376.655 C 156.744 377.340,159.156 377.828,162.606 378.345 C 163.806 378.524,165.022 378.819,165.309 378.999 C 165.824 379.322,166.800 379.475,173.489 380.280 C 175.366 380.506,177.102 380.815,177.348 380.967 C 179.418 382.247,220.968 382.247,223.038 380.967 C 223.284 380.815,225.020 380.506,226.897 380.280 C 233.586 379.475,234.562 379.322,235.077 378.999 C 235.364 378.819,236.580 378.524,237.780 378.345 C 241.230 377.828,243.642 377.340,246.139 376.655 C 247.413 376.306,249.064 375.867,249.807 375.680 C 251.694 375.206,256.693 373.725,257.915 373.278 C 258.234 373.161,259.537 372.748,260.811 372.361 C 262.085 371.973,263.292 371.518,263.494 371.349 C 263.696 371.181,264.176 371.042,264.561 371.042 C 264.946 371.042,265.563 370.887,265.932 370.696 C 266.301 370.505,267.384 370.050,268.340 369.685 C 270.131 368.999,271.168 368.583,273.166 367.747 C 273.803 367.481,274.759 367.091,275.290 366.882 C 275.820 366.673,277.183 366.046,278.317 365.490 C 279.452 364.934,280.625 364.479,280.924 364.479 C 281.223 364.479,281.467 364.305,281.467 364.093 C 281.467 363.880,281.697 363.707,281.978 363.707 C 282.260 363.707,283.780 363.038,285.357 362.221 C 286.934 361.403,289.527 360.059,291.120 359.234 C 292.712 358.409,294.102 357.631,294.208 357.504 C 294.315 357.378,295.345 356.768,296.497 356.147 C 298.599 355.016,306.735 349.826,307.609 349.058 C 307.866 348.833,308.169 348.649,308.284 348.649 C 308.564 348.649,312.052 346.157,314.672 344.086 C 316.995 342.248,317.157 342.122,319.692 340.167 C 326.200 335.149,339.100 322.661,344.633 316.023 C 345.872 314.537,346.989 313.234,347.115 313.127 C 347.902 312.463,353.704 304.834,356.510 300.772 C 358.343 298.118,360.018 295.736,360.231 295.480 C 360.444 295.223,360.618 294.907,360.618 294.778 C 360.618 294.649,361.052 293.974,361.583 293.278 C 362.114 292.582,362.548 291.902,362.548 291.766 C 362.548 291.631,363.127 290.605,363.834 289.486 C 364.541 288.367,365.238 287.191,365.382 286.873 C 365.526 286.554,365.958 285.772,366.343 285.135 C 369.466 279.960,373.067 272.650,376.281 264.961 C 376.614 264.165,377.071 263.079,377.298 262.548 C 377.524 262.017,377.838 261.236,377.996 260.811 C 378.153 260.386,378.485 259.537,378.732 258.924 C 378.979 258.312,379.703 256.227,380.341 254.291 C 380.978 252.356,381.666 250.471,381.870 250.102 C 382.073 249.733,382.239 249.079,382.239 248.649 C 382.239 248.218,382.389 247.564,382.571 247.196 C 383.164 245.997,384.170 242.581,384.170 241.766 C 384.170 241.330,384.344 240.865,384.556 240.734 C 384.768 240.602,384.942 239.973,384.942 239.334 C 384.942 238.696,385.149 237.794,385.403 237.330 C 385.841 236.526,385.974 235.918,386.821 230.813 C 387.022 229.604,387.308 228.418,387.457 228.177 C 387.791 227.637,388.171 225.133,389.829 212.548 C 391.469 200.098,390.652 170.139,388.395 159.937 C 388.195 159.031,388.031 157.673,388.031 156.919 C 388.031 156.165,387.863 155.234,387.658 154.851 C 387.453 154.468,387.098 153.133,386.869 151.884 C 386.010 147.192,385.855 146.485,385.581 146.043 C 385.427 145.793,385.285 144.811,385.266 143.860 C 385.243 142.712,385.039 142.056,384.658 141.911 C 384.237 141.749,384.150 141.349,384.328 140.397 C 384.503 139.467,384.401 138.962,383.967 138.602 C 383.551 138.257,383.438 137.759,383.604 137.004 C 383.780 136.203,383.681 135.844,383.235 135.673 C 382.824 135.515,382.625 134.949,382.625 133.936 C 382.625 132.960,382.449 132.432,382.124 132.432 C 381.778 132.432,381.671 132.013,381.780 131.081 C 381.903 130.031,381.799 129.730,381.316 129.730 C 380.864 129.730,380.695 129.363,380.695 128.378 C 380.695 127.635,380.521 127.027,380.309 127.027 C 380.097 127.027,379.923 126.482,379.923 125.815 C 379.923 125.127,379.630 124.365,379.247 124.053 C 378.780 123.673,378.714 123.444,379.032 123.310 C 379.633 123.058,379.228 122.008,378.530 122.008 C 378.173 122.008,377.992 121.554,377.992 120.656 C 377.992 119.774,377.810 119.305,377.467 119.305 C 377.114 119.305,377.002 118.987,377.126 118.340 C 377.261 117.632,377.144 117.375,376.686 117.375 C 376.230 117.375,376.062 117.010,376.062 116.023 C 376.062 115.280,375.888 114.672,375.676 114.672 C 375.463 114.672,375.290 114.237,375.290 113.707 C 375.290 113.106,375.071 112.741,374.710 112.741 C 374.350 112.741,374.131 112.377,374.131 111.776 C 374.131 111.245,373.958 110.811,373.745 110.811 C 373.533 110.811,373.359 110.376,373.359 109.846 C 373.359 109.283,373.159 108.921,372.881 108.977 C 372.571 109.039,372.445 108.699,372.522 108.013 C 372.616 107.183,372.510 107.003,372.035 107.186 C 371.579 107.361,371.429 107.168,371.429 106.412 C 371.429 105.858,371.255 105.405,371.042 105.405 C 370.830 105.405,370.656 104.971,370.656 104.440 C 370.656 103.840,370.438 103.475,370.077 103.475 C 369.717 103.475,369.498 103.110,369.498 102.510 C 369.498 101.979,369.324 101.544,369.112 101.544 C 368.900 101.544,368.726 101.110,368.726 100.579 C 368.726 99.979,368.507 99.614,368.147 99.614 C 367.786 99.614,367.568 99.249,367.568 98.649 C 367.568 98.118,367.394 97.683,367.181 97.683 C 366.969 97.683,366.795 97.323,366.795 96.884 C 366.795 96.029,365.960 94.981,365.279 94.981 C 365.051 94.981,364.865 94.546,364.865 94.015 C 364.865 93.485,364.691 93.050,364.479 93.050 C 364.266 93.050,364.093 92.616,364.093 92.085 C 364.093 91.554,363.907 91.120,363.679 91.120 C 363.060 91.120,362.081 90.020,362.334 89.609 C 362.456 89.413,362.293 88.989,361.973 88.669 C 361.652 88.348,361.390 87.900,361.390 87.672 C 361.390 87.445,361.129 87.259,360.811 87.259 C 360.489 87.259,360.232 86.915,360.232 86.486 C 360.232 86.062,360.058 85.714,359.846 85.714 C 359.633 85.714,359.446 85.236,359.429 84.653 C 359.412 84.069,359.311 83.808,359.204 84.073 C 358.894 84.841,358.301 84.633,358.301 83.756 C 358.301 82.901,357.466 81.853,356.784 81.853 C 356.557 81.853,356.371 81.680,356.371 81.467 C 356.371 81.255,356.552 81.081,356.774 81.081 C 356.996 81.081,356.744 80.647,356.213 80.116 C 355.682 79.585,355.063 79.151,354.836 79.151 C 354.591 79.151,354.523 78.762,354.668 78.185 C 354.851 77.455,354.759 77.220,354.289 77.220 C 353.947 77.220,353.668 77.034,353.668 76.806 C 353.668 76.272,352.686 75.290,352.151 75.290 C 351.924 75.290,351.737 74.894,351.737 74.410 C 351.737 73.926,351.390 73.279,350.965 72.973 C 350.541 72.667,350.193 72.194,350.193 71.922 C 350.193 71.651,349.932 71.429,349.614 71.429 C 349.295 71.429,349.035 71.255,349.035 71.042 C 349.035 70.830,348.764 70.656,348.433 70.656 C 348.102 70.656,347.938 70.483,348.069 70.270 C 348.201 70.058,348.037 69.884,347.706 69.884 C 347.322 69.884,347.104 69.536,347.104 68.919 C 347.104 68.388,346.931 67.954,346.718 67.954 C 346.506 67.954,346.332 67.693,346.332 67.375 C 346.332 67.056,346.150 66.795,345.928 66.795 C 345.401 66.795,341.699 63.094,341.699 62.567 C 341.699 62.344,341.438 62.162,341.120 62.162 C 340.791 62.162,340.541 61.816,340.541 61.362 C 340.541 60.508,339.705 59.459,339.024 59.459 C 338.796 59.459,338.610 59.283,338.610 59.068 C 338.610 58.566,334.862 54.826,334.358 54.826 C 334.148 54.826,333.977 54.646,333.977 54.425 C 333.977 53.786,331.011 50.965,330.339 50.965 C 329.550 50.965,326.542 47.963,326.843 47.476 C 326.969 47.272,326.802 47.104,326.471 47.104 C 326.140 47.104,325.869 46.931,325.869 46.718 C 325.869 46.506,325.608 46.332,325.290 46.332 C 324.971 46.332,324.710 46.146,324.710 45.918 C 324.710 45.237,323.662 44.402,322.808 44.402 C 322.368 44.402,322.008 44.228,322.008 44.015 C 322.008 43.803,321.747 43.629,321.429 43.629 C 321.110 43.629,320.849 43.407,320.849 43.135 C 320.849 42.864,320.502 42.391,320.077 42.085 C 319.653 41.779,319.305 41.306,319.305 41.034 C 319.305 40.763,319.044 40.541,318.726 40.541 C 318.407 40.541,318.147 40.367,318.147 40.154 C 318.147 39.942,317.787 39.768,317.347 39.768 C 316.590 39.768,315.444 38.955,315.444 38.417 C 315.444 37.828,314.262 37.066,313.348 37.066 C 312.802 37.066,312.355 36.879,312.355 36.652 C 312.355 36.027,311.334 35.135,310.618 35.135 C 309.994 35.135,308.880 34.269,308.880 33.784 C 308.880 33.186,307.784 32.439,307.611 32.919 C 307.500 33.227,307.107 33.020,306.506 32.336 C 305.993 31.752,305.275 31.274,304.910 31.274 C 304.546 31.274,304.247 31.100,304.247 30.888 C 304.247 30.676,303.986 30.502,303.668 30.502 C 303.349 30.502,303.089 30.221,303.089 29.878 C 303.089 29.456,302.852 29.315,302.361 29.444 C 301.671 29.624,300.386 28.586,300.386 27.848 C 300.386 27.668,299.952 27.603,299.421 27.705 C 298.713 27.840,298.456 27.723,298.456 27.265 C 298.456 26.891,298.135 26.641,297.656 26.641 C 296.801 26.641,295.753 25.805,295.753 25.124 C 295.753 24.897,295.319 24.710,294.788 24.710 C 294.257 24.710,293.822 24.537,293.822 24.324 C 293.822 24.112,293.388 23.938,292.857 23.938 C 292.228 23.938,291.892 23.722,291.892 23.317 C 291.892 22.848,291.657 22.755,290.927 22.938 C 290.214 23.117,289.961 23.027,289.961 22.594 C 289.961 22.233,289.606 22.008,289.037 22.008 C 288.529 22.008,288.015 21.750,287.894 21.435 C 287.769 21.109,287.418 20.961,287.080 21.090 C 286.698 21.237,286.486 21.097,286.486 20.698 C 286.486 20.293,286.150 20.077,285.521 20.077 C 284.990 20.077,284.556 19.903,284.556 19.691 C 284.556 19.479,284.122 19.305,283.591 19.305 C 282.961 19.305,282.625 19.089,282.625 18.684 C 282.625 18.214,282.390 18.122,281.660 18.305 C 280.948 18.484,280.695 18.394,280.695 17.961 C 280.695 17.586,280.331 17.375,279.688 17.375 C 278.930 17.375,278.740 17.224,278.916 16.765 C 279.109 16.262,278.946 16.200,277.992 16.409 C 277.087 16.608,276.834 16.531,276.834 16.054 C 276.834 15.614,276.457 15.444,275.483 15.444 C 274.739 15.444,274.131 15.270,274.131 15.058 C 274.131 14.846,273.697 14.672,273.166 14.672 C 272.565 14.672,272.201 14.453,272.201 14.093 C 272.201 13.688,271.793 13.514,270.849 13.514 C 270.106 13.514,269.498 13.340,269.498 13.127 C 269.498 12.915,268.958 12.741,268.298 12.741 C 267.347 12.741,267.149 12.611,267.341 12.110 C 267.545 11.578,267.372 11.514,266.224 11.700 C 265.197 11.867,264.865 11.785,264.865 11.366 C 264.865 10.976,264.406 10.811,263.320 10.811 C 262.471 10.811,261.776 10.637,261.776 10.425 C 261.776 10.212,261.168 10.039,260.425 10.039 C 259.481 10.039,259.073 9.864,259.073 9.459 C 259.073 9.041,258.644 8.880,257.529 8.880 C 256.680 8.880,255.985 8.707,255.985 8.494 C 255.985 8.282,255.271 8.108,254.399 8.108 C 253.103 8.108,252.857 7.995,253.050 7.490 C 253.251 6.968,253.017 6.893,251.552 7.010 C 250.407 7.101,249.754 6.983,249.631 6.663 C 249.520 6.372,248.744 6.178,247.696 6.178 C 246.733 6.178,245.946 6.004,245.946 5.792 C 245.946 5.579,245.072 5.405,244.003 5.405 C 242.633 5.405,241.995 5.235,241.838 4.826 C 241.678 4.409,241.024 4.247,239.493 4.247 C 237.913 4.247,237.418 4.119,237.561 3.747 C 237.689 3.414,237.356 3.216,236.566 3.156 C 235.914 3.106,235.107 2.854,234.775 2.595 C 234.242 2.180,234.233 2.204,234.700 2.799 C 235.183 3.416,235.108 3.475,233.831 3.475 C 232.791 3.475,232.432 3.312,232.432 2.840 C 232.432 2.288,232.055 2.234,229.535 2.424 C 227.316 2.592,226.508 2.515,226.087 2.094 C 225.681 1.688,224.472 1.544,221.456 1.544 C 218.088 1.544,217.375 1.443,217.375 0.966 C 217.375 0.460,215.810 0.411,204.923 0.575 C 198.074 0.678,191.776 0.634,190.927 0.478 C 190.077 0.321,187.949 0.244,186.197 0.305 M142.813 98.483 C 146.000 99.000,149.780 100.030,150.041 100.453 C 150.150 100.628,150.502 100.772,150.824 100.772 C 151.691 100.772,156.306 103.905,158.301 105.847 C 169.116 116.375,169.170 132.808,158.424 143.533 C 156.456 145.497,154.595 147.104,154.289 147.104 C 153.983 147.104,153.674 147.236,153.604 147.397 C 153.402 147.856,149.425 149.807,148.690 149.807 C 148.328 149.807,147.866 149.953,147.664 150.131 C 145.962 151.634,136.057 151.634,131.853 150.132 C 125.171 147.743,116.602 140.459,116.602 137.167 C 116.602 136.899,116.467 136.680,116.301 136.680 C 115.086 136.680,112.969 126.065,113.567 122.973 C 113.732 122.124,113.874 120.700,113.883 119.810 C 113.892 118.920,114.073 118.085,114.286 117.954 C 114.498 117.822,114.672 117.383,114.672 116.976 C 114.672 113.033,122.485 103.697,127.799 101.288 C 131.538 99.594,132.616 99.263,136.873 98.505 C 139.591 98.020,139.948 98.019,142.813 98.483 M263.410 98.498 C 266.849 99.023,271.438 100.525,273.415 101.773 C 274.225 102.284,274.977 102.703,275.086 102.703 C 275.569 102.703,280.135 107.005,281.467 108.716 C 283.031 110.725,285.328 114.879,285.328 115.700 C 285.328 115.990,285.483 116.528,285.673 116.897 C 286.105 117.737,286.781 120.815,287.100 123.398 C 287.330 125.260,286.496 131.126,285.733 133.012 C 285.561 133.436,285.107 134.566,284.723 135.521 C 282.361 141.403,273.249 149.807,269.233 149.807 C 268.827 149.807,268.329 149.961,268.127 150.149 C 266.581 151.592,254.268 151.592,252.722 150.149 C 252.520 149.961,252.060 149.807,251.700 149.807 C 248.235 149.807,239.494 142.226,237.008 137.066 C 231.786 126.224,233.614 114.305,241.755 106.121 C 243.794 104.072,248.610 100.772,249.562 100.772 C 249.884 100.772,250.236 100.628,250.345 100.453 C 250.693 99.889,257.071 98.337,259.935 98.120 C 260.303 98.092,261.866 98.262,263.410 98.498 M210.618 188.629 C 218.777 189.418,221.334 189.790,226.834 190.989 C 233.171 192.370,242.157 195.049,243.031 195.817 C 243.233 195.994,243.713 196.139,244.098 196.139 C 244.483 196.139,245.100 196.304,245.469 196.506 C 245.837 196.708,246.791 197.143,247.587 197.472 C 252.572 199.530,256.943 201.648,260.553 203.754 C 262.110 204.662,263.464 205.405,263.561 205.405 C 263.658 205.405,264.209 205.722,264.784 206.108 C 265.359 206.495,267.394 207.842,269.305 209.101 C 271.216 210.360,272.867 211.478,272.973 211.585 C 273.079 211.693,274.204 212.553,275.472 213.497 C 278.489 215.742,278.927 216.093,281.246 218.125 C 284.304 220.804,294.282 230.909,295.564 232.625 C 296.199 233.475,296.892 234.356,297.104 234.585 C 297.693 235.217,299.084 237.030,300.784 239.382 C 301.628 240.550,302.492 241.716,302.704 241.972 C 302.916 242.229,303.089 242.620,303.089 242.841 C 303.089 243.062,303.235 243.243,303.413 243.243 C 303.591 243.243,303.935 243.634,304.176 244.112 C 304.418 244.590,305.053 245.676,305.587 246.525 C 306.121 247.375,306.677 248.330,306.822 248.649 C 306.968 248.967,307.186 249.315,307.308 249.421 C 308.138 250.145,312.739 259.684,315.037 265.444 C 315.715 267.143,316.431 268.835,316.629 269.203 C 316.827 269.572,316.988 270.213,316.988 270.628 C 316.988 271.043,317.147 271.481,317.341 271.601 C 317.535 271.721,317.811 272.512,317.954 273.359 C 318.097 274.206,318.373 274.997,318.566 275.117 C 318.760 275.237,318.919 275.817,318.919 276.406 C 318.919 276.995,319.049 277.608,319.208 277.767 C 319.571 278.130,320.463 281.546,320.728 283.591 C 320.838 284.440,321.084 285.300,321.275 285.502 C 321.466 285.704,321.622 286.374,321.622 286.991 C 321.622 287.608,321.892 289.155,322.222 290.428 C 322.552 291.702,322.769 293.378,322.704 294.152 L 322.587 295.560 200.426 295.657 C 118.516 295.722,78.111 295.625,77.796 295.364 C 77.457 295.083,77.421 294.515,77.669 293.336 C 77.858 292.436,78.173 290.743,78.370 289.575 C 79.144 284.982,80.183 280.543,80.741 279.445 C 80.928 279.077,81.081 278.387,81.081 277.914 C 81.081 277.164,81.549 275.595,82.613 272.780 C 82.773 272.355,83.122 271.313,83.389 270.463 C 83.898 268.837,84.766 266.672,85.361 265.546 C 85.555 265.177,85.714 264.704,85.714 264.495 C 85.714 263.674,89.939 254.879,92.305 250.772 C 93.162 249.286,93.961 247.765,94.081 247.394 C 94.201 247.022,94.452 246.718,94.640 246.718 C 94.827 246.718,94.981 246.564,94.981 246.376 C 94.981 246.025,98.029 241.274,98.477 240.927 C 98.614 240.820,98.795 240.541,98.880 240.305 C 99.667 238.120,110.287 226.100,116.414 220.459 C 122.030 215.289,132.655 207.336,133.945 207.336 C 134.175 207.336,134.363 207.190,134.363 207.012 C 134.363 206.834,134.754 206.489,135.232 206.246 C 135.709 206.004,137.143 205.196,138.417 204.451 C 140.572 203.191,148.390 199.279,150.579 198.364 C 151.110 198.143,152.066 197.743,152.703 197.477 C 155.126 196.464,155.868 196.173,158.502 195.205 C 159.993 194.657,161.485 194.208,161.816 194.208 C 162.148 194.208,162.544 194.084,162.696 193.932 C 163.405 193.224,175.479 190.345,181.081 189.549 C 191.593 188.055,201.493 187.747,210.618 188.629 " stroke="none" fill="#face3f" fill-rule="evenodd"></path>
  </g>
</svg>