<svg id="svg" version="1.1" xmlns="http://www.w3.org/2000/svg" xmlns:xlink="http://www.w3.org/1999/xlink" width="400" height="385.98130841121497" viewBox="0, 0, 400,385.98130841121497">
  <g id="svgg">
    <path id="path0" d="M131.274 98.904 C 121.062 100.995,113.617 107.362,110.806 116.409 C 110.542 117.259,110.174 118.353,109.989 118.841 C 109.552 119.993,109.552 129.042,109.989 130.194 C 110.174 130.682,110.539 131.776,110.798 132.625 C 116.707 151.938,143.534 156.577,155.661 140.383 C 160.894 133.395,162.440 125.393,160.143 117.181 C 156.775 105.138,143.103 96.482,131.274 98.904 M252.703 98.842 C 252.278 99.024,251.413 99.186,250.780 99.201 C 250.148 99.216,248.410 99.690,246.919 100.254 C 227.405 107.644,224.090 133.057,240.997 145.658 C 241.780 146.241,242.605 146.718,242.831 146.718 C 243.058 146.718,243.244 146.848,243.245 147.008 C 243.245 147.167,244.071 147.617,245.079 148.007 C 246.087 148.398,247.259 148.858,247.683 149.029 C 252.054 150.790,260.115 150.748,264.479 148.940 C 269.862 146.711,272.812 144.576,276.158 140.490 C 277.781 138.508,280.309 133.879,280.309 132.890 C 280.309 132.511,280.457 132.036,280.638 131.834 C 281.922 130.402,281.925 118.612,280.642 117.201 C 280.459 116.999,280.309 116.502,280.309 116.096 C 280.309 113.761,275.854 107.515,271.618 103.910 C 267.299 100.235,256.312 97.291,252.703 98.842 M392.754 161.004 C 392.754 161.747,392.833 162.051,392.930 161.680 C 393.027 161.308,393.027 160.700,392.930 160.328 C 392.833 159.957,392.754 160.261,392.754 161.004 M397.395 185.135 C 397.399 185.985,397.478 186.287,397.570 185.806 C 397.663 185.326,397.659 184.631,397.563 184.262 C 397.466 183.893,397.390 184.286,397.395 185.135 M397.402 246.718 C 397.402 247.674,397.478 248.065,397.570 247.587 C 397.662 247.109,397.662 246.327,397.570 245.849 C 397.478 245.372,397.402 245.763,397.402 246.718 M78.503 246.192 C 78.197 246.317,78.152 246.717,78.366 247.417 C 78.541 247.988,79.069 249.759,79.540 251.351 C 80.440 254.396,80.953 255.715,82.471 258.886 C 82.981 259.951,83.398 261.022,83.398 261.267 C 83.398 261.512,83.528 261.770,83.687 261.840 C 83.847 261.911,84.323 262.664,84.745 263.514 C 85.168 264.363,85.602 265.145,85.711 265.251 C 85.819 265.357,86.776 266.745,87.838 268.336 C 92.992 276.058,102.165 285.076,110.605 290.721 C 114.782 293.514,115.956 294.254,117.968 295.361 C 119.234 296.057,120.444 296.756,120.656 296.913 C 121.717 297.700,133.654 303.475,134.218 303.475 C 134.340 303.475,134.987 303.719,135.656 304.017 C 136.325 304.315,138.176 305.024,139.768 305.592 C 141.361 306.161,143.012 306.765,143.436 306.936 C 143.861 307.107,145.251 307.551,146.525 307.924 C 147.799 308.297,149.189 308.739,149.614 308.905 C 150.039 309.072,150.820 309.298,151.351 309.408 C 151.882 309.518,153.359 309.893,154.633 310.242 C 155.907 310.590,157.645 311.024,158.494 311.206 C 159.344 311.387,161.255 311.809,162.741 312.142 C 166.296 312.940,171.365 313.744,178.378 314.622 C 191.903 316.314,208.566 316.313,222.008 314.619 C 231.406 313.434,235.770 312.685,242.181 311.156 C 242.978 310.966,244.281 310.666,245.077 310.490 C 245.874 310.313,247.133 309.979,247.876 309.747 C 248.620 309.515,250.792 308.859,252.703 308.289 C 254.614 307.719,256.525 307.111,256.950 306.938 C 257.375 306.765,258.591 306.331,259.653 305.974 C 261.854 305.232,262.563 304.960,264.537 304.093 C 265.312 303.753,266.046 303.475,266.167 303.475 C 266.477 303.475,270.179 301.784,274.710 299.573 C 291.163 291.545,303.159 281.563,313.419 267.363 C 313.687 266.992,314.649 265.301,315.609 263.514 C 315.837 263.089,316.110 262.654,316.216 262.548 C 317.242 261.523,320.599 253.036,321.745 248.574 C 322.476 245.724,323.281 245.945,312.194 245.949 L 302.510 245.953 301.150 247.204 C 299.290 248.916,296.378 251.277,293.761 253.197 C 290.853 255.329,285.345 259.073,285.116 259.073 C 285.016 259.073,283.589 259.907,281.946 260.925 C 276.917 264.041,267.619 268.361,260.618 270.836 C 254.314 273.064,250.850 274.133,245.560 275.483 C 240.770 276.705,237.863 277.337,232.239 278.379 C 226.081 279.521,218.630 280.286,209.438 280.721 C 194.194 281.442,177.797 280.356,165.058 277.783 C 159.224 276.605,156.753 276.037,153.571 275.142 C 152.350 274.798,150.439 274.270,149.324 273.967 C 145.863 273.028,139.345 270.781,136.814 269.654 C 136.145 269.356,135.492 269.112,135.362 269.112 C 134.705 269.112,123.203 263.559,119.305 261.360 C 113.238 257.938,106.368 253.150,101.405 248.885 L 97.984 245.946 88.471 245.976 C 83.238 245.993,78.753 246.090,78.503 246.192 M197.201 382.912 C 198.740 382.985,201.260 382.985,202.799 382.912 C 204.339 382.839,203.079 382.779,200.000 382.779 C 196.921 382.779,195.661 382.839,197.201 382.912 " stroke="none" fill="#0a0908" fill-rule="evenodd"></path>
    <path id="path1" d="M181.365 0.384 C 179.928 0.491,178.756 0.753,178.761 0.965 C 178.765 1.189,177.216 1.398,175.084 1.462 C 172.847 1.529,171.491 1.719,171.630 1.945 C 171.770 2.171,170.715 2.317,168.942 2.317 C 166.550 2.317,166.023 2.426,166.023 2.921 C 166.023 3.353,165.720 3.491,164.961 3.404 C 164.327 3.331,163.942 3.076,164.006 2.771 C 164.064 2.489,163.931 2.371,163.710 2.508 C 163.489 2.644,163.384 2.879,163.476 3.028 C 163.569 3.178,162.973 3.263,162.152 3.217 C 160.989 3.152,160.706 3.257,160.873 3.690 C 161.043 4.135,160.649 4.247,158.922 4.247 C 157.201 4.247,156.757 4.373,156.757 4.860 C 156.757 5.358,156.476 5.426,155.265 5.221 C 154.168 5.036,153.613 5.129,153.169 5.573 C 152.819 5.924,151.904 6.178,150.993 6.178 C 150.128 6.178,149.421 6.351,149.421 6.564 C 149.421 6.776,148.639 6.950,147.683 6.950 C 146.396 6.950,145.946 7.100,145.946 7.529 C 145.946 7.947,145.517 8.108,144.402 8.108 C 143.552 8.108,142.857 8.282,142.857 8.494 C 142.857 8.707,142.249 8.880,141.506 8.880 C 140.511 8.880,140.154 9.047,140.154 9.513 C 140.154 10.049,139.813 10.117,137.934 9.954 C 136.713 9.848,136.018 9.836,136.390 9.928 C 137.570 10.220,137.118 10.811,135.714 10.811 C 134.763 10.811,134.363 10.984,134.363 11.397 C 134.363 11.830,134.110 11.920,133.398 11.742 C 132.668 11.558,132.432 11.651,132.432 12.120 C 132.432 12.573,132.065 12.741,131.081 12.741 C 130.338 12.741,129.730 12.904,129.730 13.103 C 129.730 13.302,129.165 13.519,128.475 13.586 C 127.724 13.658,127.259 13.900,127.317 14.189 C 127.377 14.489,126.976 14.672,126.255 14.672 C 125.618 14.672,125.097 14.846,125.097 15.058 C 125.097 15.270,124.662 15.444,124.131 15.444 C 123.500 15.444,123.166 15.660,123.166 16.068 C 123.166 16.508,122.932 16.631,122.370 16.484 C 121.883 16.357,121.493 16.489,121.364 16.825 C 121.112 17.480,119.691 17.568,119.691 16.929 C 119.691 16.684,119.367 16.858,118.970 17.315 C 118.574 17.773,117.879 18.147,117.426 18.147 C 116.951 18.147,116.602 18.392,116.602 18.726 C 116.602 19.086,116.238 19.305,115.637 19.305 C 115.106 19.305,114.672 19.479,114.672 19.691 C 114.672 19.903,114.237 20.077,113.707 20.077 C 113.075 20.077,112.741 20.293,112.741 20.701 C 112.741 21.159,112.484 21.276,111.776 21.141 C 111.129 21.017,110.811 21.130,110.811 21.482 C 110.811 21.785,110.402 22.008,109.846 22.008 C 109.315 22.008,108.880 22.192,108.880 22.417 C 108.880 22.641,108.707 22.718,108.494 22.587 C 108.282 22.456,108.108 22.706,108.108 23.143 C 108.108 23.734,107.860 23.938,107.143 23.938 C 106.612 23.938,106.178 24.120,106.178 24.341 C 106.178 24.563,105.960 24.716,105.695 24.682 C 104.679 24.550,104.247 24.731,104.247 25.290 C 104.247 25.618,103.901 25.869,103.447 25.869 C 102.579 25.869,101.544 26.707,101.544 27.412 C 101.544 27.676,101.236 27.753,100.770 27.606 C 100.256 27.442,99.918 27.563,99.764 27.966 C 99.636 28.299,99.105 28.571,98.585 28.571 C 98.052 28.571,97.742 28.740,97.876 28.958 C 98.008 29.170,97.844 29.344,97.513 29.344 C 97.182 29.344,96.911 29.604,96.911 29.923 C 96.911 30.283,96.547 30.502,95.946 30.502 C 95.415 30.502,94.981 30.676,94.981 30.888 C 94.981 31.100,94.726 31.274,94.414 31.274 C 94.068 31.274,93.933 31.500,94.069 31.853 C 94.232 32.279,94.018 32.432,93.257 32.432 C 92.199 32.432,91.120 33.202,91.120 33.957 C 91.120 34.195,90.701 34.302,90.154 34.203 C 89.624 34.107,89.189 34.203,89.189 34.416 C 89.189 35.067,88.064 35.973,87.606 35.691 C 87.315 35.511,87.260 35.690,87.436 36.245 C 87.664 36.962,87.545 37.066,86.490 37.066 C 85.783 37.066,85.382 37.226,85.521 37.452 C 85.652 37.664,85.489 37.838,85.158 37.838 C 84.827 37.838,84.556 38.024,84.556 38.252 C 84.556 38.933,83.508 39.768,82.653 39.768 C 82.213 39.768,81.853 39.942,81.853 40.154 C 81.853 40.367,81.593 40.541,81.274 40.541 C 80.956 40.541,80.695 40.763,80.695 41.034 C 80.695 41.306,80.347 41.779,79.923 42.085 C 79.498 42.391,79.151 42.864,79.151 43.135 C 79.151 43.407,78.716 43.629,78.185 43.629 C 77.654 43.629,77.220 43.803,77.220 44.015 C 77.220 44.228,77.034 44.402,76.806 44.402 C 76.355 44.402,75.290 45.353,75.290 45.756 C 75.290 46.409,72.137 49.035,71.347 49.041 C 70.692 49.045,70.601 49.134,70.997 49.385 C 71.413 49.648,71.339 49.783,70.662 49.998 C 69.710 50.300,66.023 53.834,66.023 54.445 C 66.023 54.655,65.852 54.826,65.642 54.826 C 65.138 54.826,61.390 58.566,61.390 59.068 C 61.390 59.283,61.204 59.459,60.976 59.459 C 60.442 59.459,59.459 60.442,59.459 60.976 C 59.459 61.204,59.199 61.390,58.880 61.390 C 58.552 61.390,58.301 61.736,58.301 62.190 C 58.301 63.188,57.300 64.235,56.700 63.865 C 56.429 63.697,56.355 63.755,56.513 64.011 C 56.791 64.461,54.741 66.795,54.067 66.795 C 53.848 66.795,53.668 67.015,53.668 67.283 C 53.668 67.551,53.230 68.099,52.696 68.501 C 52.037 68.995,51.796 69.461,51.949 69.944 C 52.079 70.352,51.988 70.656,51.736 70.656 C 51.180 70.656,50.193 71.627,50.193 72.173 C 50.193 72.401,49.932 72.587,49.614 72.587 C 49.272 72.587,49.032 72.943,49.029 73.456 C 49.024 74.158,48.951 74.213,48.649 73.745 C 48.357 73.294,48.273 73.400,48.268 74.228 C 48.265 74.812,48.076 75.290,47.849 75.290 C 47.314 75.290,46.332 76.272,46.332 76.806 C 46.332 77.034,46.158 77.220,45.946 77.220 C 45.734 77.220,45.560 77.654,45.560 78.185 C 45.560 78.716,45.374 79.151,45.146 79.151 C 44.465 79.151,43.629 80.199,43.629 81.054 C 43.629 81.493,43.443 81.853,43.216 81.853 C 42.534 81.853,41.699 82.901,41.699 83.756 C 41.699 84.210,41.448 84.556,41.120 84.556 C 40.801 84.556,40.541 84.827,40.541 85.158 C 40.541 85.489,40.367 85.652,40.154 85.521 C 39.931 85.383,39.768 85.753,39.768 86.398 C 39.768 87.194,39.491 87.663,38.803 88.031 C 38.272 88.315,37.838 88.878,37.838 89.282 C 37.838 90.082,36.981 91.120,36.321 91.120 C 36.093 91.120,35.907 91.554,35.907 92.085 C 35.907 92.616,35.734 93.050,35.521 93.050 C 35.309 93.050,35.135 93.485,35.135 94.015 C 35.135 94.546,34.943 94.981,34.708 94.981 C 34.473 94.981,34.384 94.711,34.510 94.381 C 34.642 94.038,34.577 93.883,34.359 94.018 C 34.149 94.148,33.977 94.591,33.977 95.003 C 33.977 95.416,33.803 95.753,33.591 95.753 C 33.378 95.753,33.205 95.937,33.205 96.162 C 33.205 96.387,33.378 96.463,33.591 96.332 C 34.320 95.881,33.976 96.741,33.205 97.297 C 32.780 97.603,32.432 98.268,32.432 98.775 C 32.432 99.436,32.268 99.634,31.853 99.474 C 31.419 99.307,31.274 99.538,31.274 100.398 C 31.274 101.029,31.100 101.544,30.888 101.544 C 30.676 101.544,30.502 101.979,30.502 102.510 C 30.502 103.141,30.286 103.475,29.878 103.475 C 29.420 103.475,29.303 103.733,29.438 104.440 C 29.562 105.087,29.449 105.405,29.097 105.405 C 28.788 105.405,28.571 105.820,28.571 106.412 C 28.571 107.171,28.421 107.361,27.962 107.185 C 27.459 106.992,27.397 107.154,27.606 108.108 C 27.805 109.014,27.727 109.266,27.251 109.266 C 26.915 109.266,26.641 109.539,26.641 109.873 C 26.641 110.207,26.396 110.725,26.096 111.025 C 25.797 111.324,25.644 111.923,25.757 112.354 C 25.915 112.959,25.818 113.084,25.336 112.899 C 24.831 112.705,24.710 112.926,24.710 114.051 C 24.710 114.817,24.537 115.444,24.324 115.444 C 24.112 115.444,23.938 115.878,23.938 116.409 C 23.938 117.010,23.719 117.375,23.359 117.375 C 22.973 117.375,22.780 117.761,22.780 118.533 C 22.780 119.170,22.606 119.691,22.394 119.691 C 22.181 119.691,22.008 120.318,22.008 121.084 C 22.008 122.166,21.878 122.427,21.426 122.253 C 20.944 122.068,20.886 122.295,21.089 123.563 C 21.290 124.823,21.222 125.097,20.706 125.097 C 20.265 125.097,20.077 125.442,20.077 126.255 C 20.077 126.892,19.903 127.413,19.691 127.413 C 19.479 127.413,19.305 128.003,19.305 128.723 C 19.305 129.573,19.086 130.117,18.682 130.272 C 18.261 130.434,18.118 130.822,18.242 131.470 C 18.345 132.013,18.197 132.616,17.900 132.863 C 17.611 133.103,17.375 133.973,17.375 134.796 C 17.375 135.620,17.201 136.293,16.988 136.293 C 16.776 136.293,16.602 136.988,16.602 137.838 C 16.602 138.687,16.446 139.382,16.255 139.382 C 16.064 139.382,15.824 140.121,15.722 141.023 C 15.619 141.926,15.242 143.707,14.883 144.981 C 14.190 147.441,13.770 149.411,13.179 152.970 C 12.978 154.180,12.707 155.341,12.577 155.552 C 12.192 156.175,11.393 161.955,10.222 172.587 C 8.529 187.955,9.303 208.196,12.178 223.745 C 12.531 225.656,12.961 228.002,13.134 228.958 C 13.306 229.913,13.730 231.824,14.075 233.205 C 14.689 235.659,15.055 237.227,15.741 240.347 C 15.928 241.197,16.285 242.271,16.535 242.735 C 16.784 243.199,16.988 244.014,16.988 244.546 C 16.988 245.079,17.143 245.610,17.332 245.727 C 17.521 245.843,17.760 246.505,17.863 247.197 C 17.966 247.889,18.271 249.064,18.542 249.807 C 19.392 252.139,19.571 252.661,20.068 254.247 C 20.334 255.097,20.770 256.313,21.036 256.950 C 21.302 257.587,21.993 259.324,22.573 260.811 C 23.959 264.363,24.105 264.720,25.110 266.988 C 28.057 273.644,30.800 279.253,32.850 282.819 C 33.704 284.305,34.501 285.825,34.621 286.197 C 34.741 286.569,34.993 286.873,35.180 286.873 C 35.368 286.873,35.521 287.048,35.521 287.262 C 35.521 288.189,46.779 305.219,48.281 306.564 C 48.399 306.670,49.008 307.452,49.634 308.301 C 50.260 309.151,50.946 310.034,51.158 310.265 C 51.371 310.495,52.153 311.442,52.896 312.369 C 61.036 322.522,73.427 334.395,84.942 343.078 C 87.172 344.759,89.054 346.266,89.125 346.426 C 89.196 346.587,89.458 346.718,89.708 346.718 C 89.958 346.718,90.631 347.153,91.203 347.683 C 91.776 348.214,92.322 348.649,92.417 348.649 C 92.512 348.649,94.387 349.842,96.584 351.300 C 98.781 352.758,101.448 354.426,102.510 355.008 C 103.571 355.589,104.614 356.198,104.826 356.360 C 106.267 357.459,118.497 363.707,119.208 363.707 C 119.474 363.707,119.691 363.880,119.691 364.093 C 119.691 364.305,119.919 364.479,120.198 364.479 C 120.476 364.479,121.389 364.803,122.225 365.200 C 123.061 365.597,124.440 366.216,125.290 366.575 C 126.139 366.935,127.326 367.479,127.927 367.784 C 128.528 368.090,129.269 368.340,129.573 368.340 C 129.877 368.340,130.428 368.499,130.797 368.693 C 132.317 369.495,134.324 370.270,134.881 370.270 C 135.208 370.270,135.583 370.444,135.714 370.656 C 135.846 370.869,136.367 371.042,136.873 371.042 C 137.378 371.042,137.900 371.216,138.031 371.429 C 138.162 371.641,138.563 371.816,138.922 371.817 C 139.281 371.818,140.073 372.079,140.681 372.396 C 141.289 372.713,142.191 372.973,142.685 372.973 C 143.180 372.973,143.691 373.147,143.822 373.359 C 143.954 373.571,144.418 373.745,144.855 373.745 C 145.572 373.745,148.390 374.549,150.386 375.324 C 150.811 375.488,151.680 375.710,152.317 375.815 C 152.954 375.921,154.517 376.297,155.792 376.652 C 158.145 377.307,160.082 377.684,164.344 378.318 C 165.650 378.512,166.938 378.807,167.207 378.974 C 167.713 379.286,170.636 379.694,176.641 380.289 C 178.552 380.478,180.898 380.817,181.853 381.041 C 184.253 381.604,216.665 381.606,218.691 381.044 C 219.521 380.813,221.780 380.469,223.710 380.278 C 230.765 379.582,232.636 379.329,233.147 379.003 C 233.433 378.821,234.650 378.524,235.849 378.345 C 238.934 377.883,241.501 377.373,244.402 376.647 C 245.782 376.302,247.519 375.872,248.263 375.691 C 249.006 375.511,250.569 375.077,251.737 374.726 C 252.905 374.376,254.295 373.999,254.826 373.888 C 255.357 373.778,256.139 373.547,256.564 373.375 C 256.988 373.203,258.378 372.746,259.653 372.359 C 260.927 371.973,262.134 371.518,262.336 371.349 C 262.538 371.181,263.018 371.042,263.403 371.042 C 263.788 371.042,264.405 370.887,264.774 370.696 C 265.142 370.505,266.226 370.053,267.181 369.691 C 268.137 369.329,269.221 368.877,269.589 368.686 C 269.958 368.496,270.566 368.334,270.941 368.327 C 271.315 368.321,271.959 368.060,272.371 367.748 C 272.783 367.437,273.435 367.181,273.819 367.181 C 274.203 367.181,274.517 367.008,274.517 366.795 C 274.517 366.583,274.952 366.409,275.483 366.409 C 276.014 366.409,276.448 366.236,276.448 366.023 C 276.448 365.811,276.638 365.637,276.871 365.637 C 277.929 365.637,292.845 358.185,296.139 356.010 C 296.670 355.660,297.756 355.037,298.552 354.626 C 299.348 354.215,300.000 353.744,300.000 353.580 C 300.000 353.416,300.201 353.282,300.446 353.282 C 300.692 353.282,301.462 352.847,302.158 352.317 C 302.854 351.786,303.530 351.351,303.660 351.351 C 304.126 351.351,318.646 340.867,319.691 339.777 C 319.797 339.666,320.705 338.916,321.709 338.109 C 322.712 337.303,323.757 336.434,324.031 336.179 C 324.305 335.923,326.088 334.324,327.994 332.625 C 332.432 328.669,337.966 323.132,341.892 318.721 C 343.591 316.813,345.068 315.164,345.174 315.058 C 345.873 314.361,349.418 310.015,351.315 307.528 C 353.861 304.192,360.206 295.012,361.989 292.085 C 363.025 290.386,363.966 288.909,364.082 288.803 C 364.197 288.697,364.799 287.654,365.420 286.486 C 366.040 285.319,366.855 283.842,367.231 283.205 C 368.591 280.900,375.037 267.636,376.144 264.865 C 376.356 264.334,376.753 263.378,377.026 262.741 C 377.300 262.104,377.736 260.975,377.996 260.232 C 378.256 259.488,378.689 258.359,378.958 257.722 C 379.228 257.085,379.663 255.869,379.926 255.019 C 380.189 254.170,380.534 253.209,380.693 252.883 C 380.853 252.558,381.105 251.734,381.255 251.054 C 381.404 250.373,381.687 249.717,381.883 249.596 C 382.079 249.474,382.239 248.949,382.239 248.428 C 382.239 247.906,382.392 247.178,382.577 246.809 C 382.914 246.143,383.704 243.473,384.547 240.154 C 384.790 239.199,385.231 237.548,385.526 236.486 C 386.133 234.306,386.387 233.111,386.858 230.234 C 387.039 229.131,387.293 228.057,387.423 227.846 C 387.722 227.362,388.496 222.198,389.832 211.776 C 390.992 202.731,390.683 168.128,389.425 166.092 C 389.286 165.868,388.998 164.241,388.783 162.476 C 388.055 156.480,387.099 151.187,386.461 149.614 C 386.152 148.851,385.887 147.377,385.459 144.040 C 385.338 143.098,384.994 142.081,384.694 141.782 C 384.324 141.412,384.228 140.817,384.395 139.928 C 384.584 138.919,384.495 138.563,384.010 138.376 C 383.525 138.190,383.436 137.833,383.624 136.832 C 383.811 135.836,383.722 135.473,383.247 135.291 C 382.845 135.137,382.625 134.590,382.625 133.742 C 382.625 133.022,382.452 132.432,382.239 132.432 C 382.027 132.432,381.853 131.743,381.853 130.900 C 381.853 129.697,381.729 129.416,381.274 129.590 C 380.817 129.765,380.695 129.478,380.695 128.227 C 380.695 127.354,380.509 126.641,380.281 126.641 C 380.054 126.641,379.899 126.250,379.938 125.772 C 380.057 124.302,379.944 123.938,379.368 123.938 C 378.945 123.938,378.868 123.603,379.043 122.522 C 379.239 121.312,379.180 121.142,378.632 121.352 C 378.125 121.547,377.992 121.360,377.992 120.451 C 377.992 119.821,377.819 119.305,377.606 119.305 C 377.394 119.305,377.220 118.778,377.220 118.135 C 377.220 117.450,376.979 116.872,376.641 116.742 C 376.322 116.620,376.062 116.104,376.062 115.596 C 376.062 115.088,375.888 114.672,375.676 114.672 C 375.463 114.672,375.290 114.237,375.290 113.707 C 375.290 113.106,375.071 112.741,374.710 112.741 C 374.350 112.741,374.131 112.377,374.131 111.776 C 374.131 111.245,373.914 110.808,373.649 110.805 C 373.327 110.801,373.359 110.674,373.745 110.425 C 374.131 110.175,374.163 110.048,373.842 110.045 C 373.576 110.041,373.359 109.604,373.359 109.073 C 373.359 108.542,373.185 108.108,372.973 108.108 C 372.761 108.108,372.587 107.755,372.587 107.324 C 372.587 106.892,372.326 106.439,372.008 106.317 C 371.689 106.195,371.429 105.679,371.429 105.171 C 371.429 104.663,371.255 104.247,371.042 104.247 C 370.830 104.247,370.656 103.813,370.656 103.282 C 370.656 102.681,370.438 102.317,370.077 102.317 C 369.749 102.317,369.498 101.970,369.498 101.517 C 369.498 100.640,368.658 99.614,367.940 99.614 C 367.690 99.614,367.583 99.358,367.703 99.046 C 367.823 98.734,367.668 98.225,367.358 97.915 C 367.049 97.606,366.795 96.993,366.795 96.553 C 366.795 96.113,366.622 95.753,366.409 95.753 C 366.197 95.753,366.023 95.430,366.023 95.035 C 366.023 94.640,365.589 93.990,365.058 93.592 C 364.526 93.193,364.093 92.474,364.093 91.993 C 364.093 91.474,363.858 91.120,363.514 91.120 C 363.185 91.120,362.934 90.773,362.934 90.320 C 362.934 89.461,362.098 88.417,361.410 88.417 C 361.154 88.417,361.084 88.039,361.231 87.452 C 361.387 86.831,361.311 86.486,361.018 86.486 C 360.300 86.486,359.459 85.460,359.459 84.584 C 359.459 84.144,359.273 83.784,359.046 83.784 C 358.309 83.784,357.529 82.706,357.529 81.688 C 357.529 81.142,357.343 80.695,357.115 80.695 C 356.490 80.695,355.598 79.674,355.598 78.958 C 355.598 78.333,354.733 77.220,354.247 77.220 C 353.776 77.220,352.896 76.115,352.896 75.524 C 352.896 74.854,350.819 72.587,350.206 72.587 C 349.987 72.587,349.807 72.316,349.807 71.985 C 349.807 71.628,349.989 71.495,350.253 71.658 C 350.523 71.825,350.594 71.765,350.433 71.505 C 350.288 71.269,349.913 71.174,349.602 71.294 C 349.230 71.436,349.031 71.264,349.022 70.794 C 349.010 70.039,348.176 68.726,347.710 68.726 C 347.288 68.726,346.332 67.674,346.332 67.209 C 346.332 66.982,346.146 66.795,345.918 66.795 C 345.303 66.795,344.402 65.779,344.402 65.085 C 344.402 64.752,344.248 64.479,344.060 64.479 C 343.873 64.479,343.624 64.114,343.507 63.668 C 343.391 63.221,343.110 62.971,342.883 63.111 C 342.656 63.251,342.471 63.170,342.471 62.930 C 342.471 62.376,341.499 61.390,340.954 61.390 C 340.727 61.390,340.541 61.204,340.541 60.976 C 340.541 60.442,339.558 59.459,339.024 59.459 C 338.796 59.459,338.610 59.237,338.610 58.966 C 338.610 58.694,338.263 58.221,337.838 57.915 C 337.413 57.609,337.066 57.142,337.066 56.877 C 337.066 56.585,336.811 56.493,336.419 56.643 C 335.930 56.831,335.833 56.734,336.021 56.245 C 336.184 55.821,336.074 55.598,335.702 55.598 C 335.390 55.598,335.135 55.425,335.135 55.212 C 335.135 55.000,334.875 54.826,334.556 54.826 C 334.237 54.826,333.977 54.644,333.977 54.422 C 333.977 53.895,330.275 50.193,329.748 50.193 C 329.526 50.193,329.344 50.007,329.344 49.779 C 329.344 49.245,328.361 48.263,327.827 48.263 C 327.599 48.263,327.413 48.004,327.413 47.688 C 327.413 47.322,327.097 47.147,326.544 47.205 C 325.938 47.269,325.690 47.102,325.724 46.652 C 325.757 46.220,325.576 46.083,325.175 46.237 C 324.741 46.403,324.642 46.294,324.817 45.840 C 324.986 45.399,324.892 45.277,324.498 45.428 C 324.152 45.560,323.938 45.405,323.938 45.022 C 323.938 44.681,323.752 44.402,323.525 44.402 C 322.990 44.402,322.008 43.419,322.008 42.885 C 322.008 42.657,321.573 42.471,321.042 42.471 C 320.512 42.471,320.077 42.297,320.077 42.085 C 320.077 41.873,319.817 41.699,319.498 41.699 C 319.161 41.699,318.919 41.348,318.919 40.862 C 318.919 40.402,318.814 40.131,318.685 40.260 C 318.556 40.388,318.033 40.076,317.523 39.566 C 317.000 39.043,316.343 38.734,316.019 38.858 C 315.657 38.997,315.444 38.849,315.444 38.458 C 315.444 38.117,315.258 37.838,315.030 37.838 C 314.496 37.838,313.514 36.856,313.514 36.321 C 313.514 36.093,313.079 35.907,312.548 35.907 C 311.931 35.907,311.583 35.690,311.583 35.305 C 311.583 34.974,311.409 34.811,311.197 34.942 C 310.985 35.073,310.811 34.890,310.811 34.534 C 310.811 34.052,310.565 33.934,309.846 34.071 C 309.198 34.195,308.880 34.083,308.880 33.730 C 308.880 33.441,308.694 33.205,308.467 33.205 C 307.922 33.205,306.950 32.218,306.950 31.665 C 306.950 31.425,306.776 31.336,306.564 31.467 C 306.351 31.598,306.178 31.527,306.178 31.309 C 306.178 31.091,305.917 31.012,305.598 31.135 C 305.280 31.257,305.019 31.164,305.019 30.929 C 305.019 30.694,304.585 30.502,304.054 30.502 C 303.523 30.502,303.089 30.316,303.089 30.088 C 303.089 29.407,302.041 28.571,301.186 28.571 C 300.309 28.571,300.101 27.979,300.869 27.669 C 301.134 27.562,300.960 27.460,300.483 27.444 C 300.005 27.427,299.614 27.239,299.614 27.027 C 299.614 26.815,299.243 26.641,298.790 26.641 C 298.338 26.641,297.643 26.267,297.246 25.810 C 296.850 25.352,296.525 25.179,296.525 25.424 C 296.525 25.668,296.351 25.869,296.139 25.869 C 295.927 25.869,295.753 25.608,295.753 25.290 C 295.753 24.971,295.482 24.710,295.151 24.710 C 294.820 24.710,294.656 24.537,294.788 24.324 C 294.923 24.105,294.595 23.938,294.026 23.938 C 293.471 23.938,292.922 23.667,292.792 23.328 C 292.651 22.962,292.270 22.793,291.839 22.906 C 291.389 23.023,291.120 22.890,291.120 22.551 C 291.120 22.229,290.726 22.008,290.154 22.008 C 289.624 22.008,289.189 21.834,289.189 21.622 C 289.189 21.409,288.755 21.236,288.224 21.236 C 287.623 21.236,287.259 21.017,287.259 20.656 C 287.259 20.296,286.894 20.077,286.293 20.077 C 285.763 20.077,285.328 19.903,285.328 19.691 C 285.328 19.479,284.894 19.305,284.363 19.305 C 283.731 19.305,283.398 19.089,283.398 18.681 C 283.398 18.241,283.163 18.118,282.602 18.265 C 282.115 18.392,281.724 18.260,281.595 17.924 C 281.479 17.622,280.948 17.375,280.413 17.375 C 279.617 17.375,279.524 17.276,279.899 16.824 C 280.281 16.363,280.117 16.285,278.884 16.342 C 277.886 16.388,277.444 16.254,277.510 15.927 C 277.570 15.626,277.169 15.444,276.448 15.444 C 275.811 15.444,275.290 15.270,275.290 15.058 C 275.290 14.846,274.750 14.672,274.090 14.672 C 273.182 14.672,272.944 14.531,273.113 14.093 C 273.284 13.646,273.027 13.514,271.996 13.514 C 271.259 13.514,270.656 13.340,270.656 13.127 C 270.656 12.915,270.135 12.741,269.498 12.741 C 268.685 12.741,268.340 12.554,268.340 12.112 C 268.340 11.608,268.070 11.526,266.988 11.701 C 265.969 11.867,265.637 11.784,265.637 11.366 C 265.637 11.003,265.224 10.811,264.444 10.811 C 263.692 10.811,262.968 10.490,262.484 9.942 C 262.062 9.464,261.828 9.291,261.962 9.556 C 262.127 9.880,261.884 10.039,261.220 10.039 C 260.599 10.039,260.232 9.823,260.232 9.459 C 260.232 9.053,259.821 8.880,258.853 8.880 C 257.504 8.880,256.371 8.188,256.371 7.363 C 256.371 7.136,256.202 6.950,255.997 6.950 C 255.791 6.950,255.723 7.210,255.845 7.529 C 255.999 7.931,255.818 8.108,255.254 8.108 C 254.788 8.108,254.440 7.861,254.440 7.529 C 254.440 6.965,253.660 6.787,251.834 6.935 C 251.356 6.973,250.965 6.819,250.965 6.591 C 250.965 6.352,250.150 6.178,249.035 6.178 C 247.516 6.178,247.104 6.045,247.104 5.555 C 247.104 5.035,246.816 4.975,245.364 5.193 C 243.977 5.401,243.577 5.331,243.392 4.850 C 243.225 4.415,242.624 4.247,241.230 4.247 C 239.599 4.247,239.337 4.149,239.543 3.614 C 239.759 3.051,239.504 3.009,237.267 3.238 C 235.153 3.455,234.749 3.402,234.749 2.907 C 234.749 2.430,234.193 2.317,231.853 2.317 C 230.180 2.317,228.958 2.154,228.958 1.931 C 228.958 1.700,227.464 1.544,225.248 1.544 C 222.185 1.544,221.576 1.448,221.752 0.990 C 221.929 0.528,221.057 0.419,216.484 0.332 C 210.925 0.226,190.862 0.231,186.750 0.340 C 185.515 0.373,184.385 0.352,184.240 0.294 C 184.095 0.237,182.801 0.277,181.365 0.384 M141.926 98.851 C 149.614 100.911,155.361 105.620,159.114 112.934 C 160.042 114.743,160.300 115.502,161.359 119.543 C 161.589 120.417,161.776 122.655,161.776 124.517 C 161.776 127.680,161.630 128.619,160.512 132.625 C 155.383 151.009,130.290 157.062,116.619 143.214 C 113.689 140.247,110.039 134.193,110.039 132.303 C 110.039 131.822,109.829 131.219,109.574 130.964 C 109.257 130.647,109.103 128.750,109.091 124.999 C 109.073 119.250,109.326 117.829,111.053 113.986 C 111.557 112.865,111.969 111.779,111.969 111.572 C 111.969 111.366,112.143 111.197,112.355 111.197 C 112.568 111.197,112.741 111.012,112.741 110.785 C 112.741 109.794,116.160 105.976,119.530 103.202 C 121.133 101.882,124.799 99.980,127.027 99.313 C 127.770 99.090,128.900 98.738,129.537 98.530 C 131.719 97.817,138.749 98.000,141.926 98.851 M261.266 98.456 C 261.971 98.668,263.200 99.032,263.996 99.265 C 274.571 102.355,282.355 113.037,282.355 124.458 C 282.355 127.500,281.766 131.112,281.040 132.524 C 280.850 132.892,280.695 133.431,280.695 133.721 C 280.695 134.300,279.395 136.854,277.874 139.264 C 276.211 141.899,270.667 147.104,269.524 147.104 C 269.297 147.104,269.112 147.278,269.112 147.490 C 269.112 147.703,268.877 147.876,268.590 147.876 C 268.303 147.876,267.252 148.311,266.253 148.842 C 265.255 149.373,264.047 149.807,263.570 149.807 C 263.093 149.807,262.486 150.024,262.221 150.289 C 261.540 150.970,250.430 150.970,249.749 150.290 C 249.484 150.024,248.823 149.806,248.282 149.805 C 244.416 149.799,235.790 142.891,232.670 137.303 C 224.437 122.556,233.397 101.837,249.291 98.868 C 250.231 98.692,251.109 98.441,251.240 98.309 C 251.633 97.917,259.877 98.037,261.266 98.456 M100.337 247.128 C 101.266 247.979,102.829 249.321,103.812 250.110 C 104.794 250.899,105.787 251.721,106.018 251.937 C 106.249 252.153,107.466 253.022,108.721 253.867 C 109.977 254.713,111.091 255.511,111.197 255.639 C 111.454 255.951,117.700 259.846,117.942 259.846 C 118.046 259.846,119.047 260.416,120.166 261.113 C 122.084 262.307,125.262 263.910,130.116 266.132 C 135.246 268.480,136.724 269.112,137.081 269.112 C 137.291 269.112,137.764 269.265,138.133 269.451 C 139.760 270.274,141.771 271.042,142.296 271.042 C 142.611 271.042,143.169 271.199,143.538 271.390 C 144.689 271.985,150.441 273.745,151.237 273.745 C 151.654 273.745,152.125 273.875,152.284 274.034 C 152.713 274.463,157.928 275.741,162.044 276.427 C 163.147 276.611,164.256 276.890,164.510 277.046 C 164.763 277.203,166.119 277.486,167.524 277.676 C 168.928 277.866,171.120 278.169,172.394 278.349 C 174.827 278.693,179.783 279.297,185.372 279.932 C 189.680 280.420,210.706 280.420,215.014 279.932 C 227.426 278.523,235.211 277.457,235.817 277.083 C 236.012 276.962,237.198 276.676,238.452 276.446 C 241.498 275.889,243.361 275.466,246.139 274.700 C 247.413 274.349,248.977 273.968,249.614 273.855 C 250.251 273.741,250.946 273.512,251.158 273.345 C 251.371 273.178,252.198 272.920,252.997 272.771 C 253.795 272.621,254.544 272.345,254.660 272.157 C 254.777 271.969,255.298 271.815,255.820 271.815 C 256.341 271.815,257.069 271.659,257.438 271.468 C 257.806 271.278,258.890 270.825,259.846 270.463 C 260.801 270.101,261.885 269.649,262.253 269.458 C 262.622 269.268,263.101 269.112,263.317 269.112 C 263.533 269.112,264.611 268.678,265.711 268.147 C 266.812 267.616,267.871 267.181,268.066 267.181 C 269.334 267.181,281.953 260.421,287.452 256.796 C 289.575 255.396,291.486 254.180,291.699 254.095 C 291.911 254.009,292.172 253.822,292.278 253.680 C 292.384 253.537,293.427 252.716,294.595 251.855 C 295.763 250.993,297.920 249.222,299.389 247.918 L 302.059 245.547 312.323 245.650 L 322.587 245.753 322.713 246.646 C 322.832 247.483,321.946 250.719,321.189 252.215 C 321.002 252.584,320.849 253.159,320.849 253.494 C 320.849 254.379,317.041 262.526,314.992 266.023 C 309.486 275.419,295.717 288.658,285.521 294.358 C 284.884 294.715,283.494 295.527,282.432 296.164 C 281.371 296.801,279.894 297.621,279.151 297.986 C 278.407 298.350,277.712 298.736,277.606 298.842 C 277.039 299.409,267.674 303.648,263.224 305.352 C 262.746 305.535,261.698 305.969,260.894 306.317 C 260.091 306.665,259.126 306.950,258.751 306.950 C 258.376 306.950,257.904 307.094,257.703 307.271 C 257.501 307.447,256.207 307.912,254.826 308.304 C 253.446 308.695,252.143 309.137,251.931 309.286 C 251.718 309.434,251.023 309.645,250.386 309.754 C 249.749 309.863,248.185 310.252,246.911 310.620 C 243.887 311.492,241.958 311.940,239.501 312.341 C 238.398 312.521,237.294 312.793,237.049 312.945 C 236.605 313.219,234.153 313.640,229.344 314.268 C 226.514 314.638,222.004 315.264,217.880 315.859 C 214.102 316.403,186.906 316.378,182.467 315.826 C 180.537 315.585,177.741 315.210,176.255 314.991 C 174.768 314.772,172.510 314.445,171.236 314.264 C 165.237 313.415,162.297 312.845,159.239 311.935 C 158.587 311.742,157.751 311.583,157.381 311.583 C 157.011 311.583,155.807 311.312,154.706 310.981 C 153.604 310.650,152.008 310.191,151.158 309.961 C 149.036 309.387,143.606 307.699,142.664 307.321 C 142.239 307.151,140.589 306.549,138.996 305.985 C 137.403 305.420,135.753 304.809,135.328 304.628 C 134.903 304.447,133.861 304.009,133.012 303.653 C 131.299 302.937,120.218 297.480,119.305 296.903 C 118.986 296.702,117.075 295.524,115.058 294.286 C 111.715 292.234,106.929 288.957,105.149 287.500 C 104.759 287.181,103.738 286.345,102.879 285.642 C 98.018 281.661,92.744 276.157,89.222 271.390 C 88.374 270.243,87.499 269.095,87.277 268.839 C 87.055 268.582,86.873 268.248,86.873 268.097 C 86.873 267.945,86.629 267.547,86.332 267.212 C 85.413 266.176,81.619 258.996,80.706 256.564 C 80.546 256.139,80.131 255.134,79.783 254.331 C 79.435 253.527,79.151 252.538,79.151 252.133 C 79.151 251.728,78.977 251.290,78.764 251.158 C 78.552 251.027,78.378 250.551,78.378 250.101 C 78.378 249.651,78.178 248.728,77.932 248.049 C 77.017 245.517,76.844 245.559,88.308 245.570 L 98.649 245.580 100.337 247.128 " stroke="none" fill="#face40" fill-rule="evenodd"></path>
  </g>
</svg>