<svg id="svg" version="1.1" xmlns="http://www.w3.org/2000/svg" xmlns:xlink="http://www.w3.org/1999/xlink" width="400" height="385.98130841121497" viewBox="0, 0, 400,385.98130841121497">
  <g id="svgg">
    <path id="path0" d="M136.100 99.246 C 126.404 100.221,117.979 107.446,114.737 117.568 C 113.831 120.395,113.865 129.620,114.791 132.193 C 115.779 134.939,117.733 138.879,118.369 139.407 C 118.671 139.658,118.919 140.030,118.919 140.235 C 118.919 140.802,122.725 144.456,124.903 145.981 C 127.213 147.598,128.715 148.321,132.819 149.789 C 144.687 154.034,160.894 144.947,164.542 132.003 C 165.142 129.874,165.177 119.605,164.590 117.761 C 163.330 113.797,161.256 110.150,158.491 107.031 C 157.033 105.386,151.094 101.158,150.241 101.158 C 149.997 101.158,149.495 101.000,149.126 100.806 C 146.364 99.357,141.179 98.736,136.100 99.246 M256.950 99.233 C 247.389 100.042,238.722 107.373,235.272 117.568 C 233.916 121.573,234.617 132.613,236.349 134.537 C 236.531 134.738,236.680 135.142,236.680 135.434 C 236.680 137.645,245.620 147.490,247.628 147.490 C 247.753 147.490,248.772 147.906,249.893 148.414 C 267.809 156.535,288.312 141.411,285.818 121.914 C 283.921 107.089,272.271 97.936,256.950 99.233 M392.754 161.004 C 392.754 161.747,392.833 162.051,392.930 161.680 C 393.027 161.308,393.027 160.700,392.930 160.328 C 392.833 159.957,392.754 160.261,392.754 161.004 M397.395 185.135 C 397.399 185.985,397.478 186.287,397.570 185.806 C 397.663 185.326,397.659 184.631,397.563 184.262 C 397.466 183.893,397.390 184.286,397.395 185.135 M184.942 230.718 C 176.464 231.523,172.940 232.004,165.251 233.403 C 161.673 234.054,160.530 234.307,155.598 235.541 C 151.999 236.442,151.036 236.704,147.876 237.644 C 146.708 237.992,145.405 238.366,144.981 238.475 C 144.556 238.585,143.861 238.820,143.436 238.997 C 143.012 239.175,141.361 239.785,139.768 240.354 C 138.176 240.922,136.264 241.643,135.521 241.955 C 134.778 242.268,133.822 242.663,133.398 242.833 C 132.244 243.297,128.367 245.084,125.097 246.661 C 119.803 249.213,107.300 256.990,105.792 258.669 C 105.685 258.787,104.366 259.867,102.860 261.069 C 91.242 270.344,81.919 284.050,78.534 296.834 C 77.620 300.285,76.780 300.000,87.868 300.000 L 97.744 300.000 100.127 297.973 C 101.437 296.858,102.597 295.850,102.703 295.732 C 102.809 295.615,103.591 295.007,104.440 294.381 C 105.290 293.755,106.231 293.009,106.533 292.722 C 107.359 291.938,113.961 287.645,114.341 287.645 C 114.523 287.645,114.672 287.471,114.672 287.259 C 114.672 287.046,114.849 286.873,115.066 286.873 C 115.282 286.873,116.162 286.429,117.021 285.887 C 120.862 283.462,127.626 280.044,132.625 278.000 C 135.562 276.800,136.568 276.366,137.157 276.043 C 137.526 275.841,138.142 275.676,138.528 275.676 C 138.913 275.676,139.393 275.526,139.595 275.344 C 139.796 275.161,140.917 274.703,142.085 274.326 C 143.253 273.948,144.556 273.514,144.981 273.360 C 146.391 272.849,148.826 272.082,150.000 271.780 C 150.637 271.616,152.896 271.017,155.019 270.448 C 157.143 269.880,159.662 269.281,160.618 269.117 C 161.573 268.954,163.745 268.526,165.444 268.166 C 168.674 267.482,171.841 267.004,177.027 266.417 C 178.726 266.225,181.506 265.877,183.205 265.644 C 187.193 265.097,212.280 265.095,216.602 265.642 C 218.407 265.870,221.361 266.230,223.166 266.443 C 228.397 267.059,230.857 267.431,234.363 268.137 C 236.168 268.501,238.427 268.949,239.382 269.135 C 240.338 269.320,242.162 269.752,243.436 270.095 C 244.710 270.438,246.319 270.811,247.011 270.923 C 247.703 271.036,248.365 271.282,248.482 271.471 C 248.599 271.660,249.036 271.815,249.454 271.815 C 250.547 271.815,258.495 274.385,260.323 275.329 C 260.692 275.520,261.259 275.676,261.583 275.676 C 261.907 275.676,262.474 275.841,262.843 276.043 C 263.212 276.245,264.208 276.697,265.058 277.048 C 265.907 277.398,266.950 277.829,267.375 278.005 C 269.141 278.737,279.476 283.842,281.081 284.775 C 285.240 287.194,295.602 294.163,296.998 295.481 C 297.269 295.737,298.556 296.858,299.859 297.973 L 302.228 300.000 311.861 300.000 C 317.158 300.000,321.585 299.908,321.697 299.796 C 322.087 299.406,320.271 293.052,318.721 289.382 C 317.351 286.138,314.796 281.165,314.258 280.695 C 314.136 280.589,313.940 280.241,313.822 279.923 C 312.828 277.230,301.118 263.948,297.573 261.491 C 296.891 261.019,295.811 260.148,295.174 259.558 C 294.537 258.968,293.518 258.139,292.910 257.717 C 292.302 257.295,290.999 256.383,290.014 255.691 C 286.947 253.533,285.217 252.415,282.819 251.040 C 281.544 250.310,279.894 249.363,279.151 248.936 C 275.595 246.893,267.177 242.958,263.707 241.718 C 262.170 241.168,261.304 240.837,259.653 240.166 C 256.810 239.011,246.304 235.900,241.892 234.908 C 227.606 231.694,216.910 230.480,201.351 230.307 C 194.223 230.227,188.634 230.367,184.942 230.718 M397.402 246.718 C 397.402 247.674,397.478 248.065,397.570 247.587 C 397.662 247.109,397.662 246.327,397.570 245.849 C 397.478 245.372,397.402 245.763,397.402 246.718 M198.166 382.909 C 199.175 382.989,200.825 382.989,201.834 382.909 C 202.843 382.830,202.017 382.765,200.000 382.765 C 197.983 382.765,197.157 382.830,198.166 382.909 " stroke="none" fill="#090808" fill-rule="evenodd"></path>
    <path id="path1" d="M196.525 0.372 C 195.145 0.526,191.192 0.565,187.741 0.460 C 182.085 0.287,181.467 0.331,181.467 0.906 C 181.467 1.458,180.938 1.544,177.579 1.544 C 174.800 1.544,173.539 1.695,173.161 2.074 C 172.772 2.463,171.911 2.551,169.907 2.408 C 167.526 2.237,167.181 2.296,167.181 2.867 C 167.181 3.446,166.867 3.491,164.471 3.255 C 162.061 3.017,161.788 3.057,162.003 3.617 C 162.209 4.153,161.923 4.247,160.080 4.247 C 158.413 4.247,157.915 4.380,157.915 4.826 C 157.915 5.264,157.443 5.405,155.985 5.405 C 154.923 5.405,154.054 5.579,154.054 5.792 C 154.054 6.004,153.185 6.178,152.124 6.178 C 151.062 6.178,150.193 6.351,150.193 6.564 C 150.193 6.776,149.411 6.950,148.456 6.950 C 147.169 6.950,146.718 7.100,146.718 7.529 C 146.718 7.947,146.289 8.108,145.174 8.108 C 144.324 8.108,143.629 8.282,143.629 8.494 C 143.629 8.707,143.021 8.880,142.278 8.880 C 141.334 8.880,140.927 9.055,140.927 9.459 C 140.927 9.878,140.498 10.039,139.382 10.039 C 138.533 10.039,137.838 10.212,137.838 10.425 C 137.838 10.637,137.230 10.811,136.486 10.811 C 135.636 10.811,135.135 10.997,135.135 11.312 C 135.135 11.658,134.716 11.765,133.784 11.656 C 132.734 11.534,132.432 11.637,132.432 12.120 C 132.432 12.525,132.097 12.741,131.467 12.741 C 130.936 12.741,130.502 12.915,130.502 13.127 C 130.502 13.340,129.894 13.514,129.151 13.514 C 128.207 13.514,127.799 13.688,127.799 14.093 C 127.799 14.453,127.435 14.672,126.834 14.672 C 126.303 14.672,125.869 14.846,125.869 15.058 C 125.869 15.270,125.261 15.444,124.517 15.444 C 123.533 15.444,123.166 15.613,123.166 16.065 C 123.166 16.535,122.931 16.627,122.201 16.444 C 121.488 16.265,121.236 16.355,121.236 16.788 C 121.236 17.156,120.876 17.375,120.270 17.375 C 119.713 17.375,119.305 17.597,119.305 17.900 C 119.305 18.253,118.987 18.365,118.340 18.241 C 117.632 18.106,117.375 18.223,117.375 18.681 C 117.375 19.089,117.041 19.305,116.409 19.305 C 115.878 19.305,115.444 19.479,115.444 19.691 C 115.444 19.903,115.010 20.077,114.479 20.077 C 113.878 20.077,113.514 20.296,113.514 20.656 C 113.514 20.975,113.176 21.236,112.764 21.236 C 112.352 21.236,111.907 21.409,111.776 21.622 C 111.645 21.834,111.200 22.008,110.788 22.008 C 110.375 22.008,110.039 22.271,110.039 22.594 C 110.039 23.027,109.786 23.117,109.073 22.938 C 108.343 22.755,108.108 22.848,108.108 23.317 C 108.108 23.722,107.772 23.938,107.143 23.938 C 106.612 23.938,106.178 24.112,106.178 24.324 C 106.178 24.537,105.743 24.710,105.212 24.710 C 104.681 24.710,104.247 24.897,104.247 25.124 C 104.247 25.805,103.199 26.641,102.344 26.641 C 101.865 26.641,101.544 26.891,101.544 27.265 C 101.544 27.723,101.287 27.840,100.579 27.705 C 100.048 27.603,99.614 27.682,99.614 27.880 C 99.614 28.515,98.536 29.344,97.711 29.344 C 97.257 29.344,96.911 29.594,96.911 29.923 C 96.911 30.251,96.565 30.502,96.111 30.502 C 95.257 30.502,94.208 31.337,94.208 32.019 C 94.208 32.246,93.677 32.432,93.027 32.432 C 92.338 32.432,91.946 32.593,92.085 32.819 C 92.216 33.031,92.053 33.205,91.722 33.205 C 91.391 33.205,91.120 33.391,91.120 33.618 C 91.120 34.244,90.099 35.135,89.382 35.135 C 88.666 35.135,87.645 36.027,87.645 36.652 C 87.645 36.879,87.113 37.066,86.464 37.066 C 85.775 37.066,85.382 37.226,85.521 37.452 C 85.652 37.664,85.489 37.838,85.158 37.838 C 84.827 37.838,84.556 38.024,84.556 38.252 C 84.556 38.933,83.508 39.768,82.653 39.768 C 82.213 39.768,81.853 39.942,81.853 40.154 C 81.853 40.367,81.593 40.541,81.274 40.541 C 80.956 40.541,80.695 40.763,80.695 41.034 C 80.695 41.306,80.347 41.779,79.923 42.085 C 79.498 42.391,79.151 42.864,79.151 43.135 C 79.151 43.407,78.888 43.629,78.566 43.629 C 77.590 43.629,75.290 45.137,75.290 45.777 C 75.290 46.299,73.642 47.472,73.250 47.230 C 73.024 47.090,72.971 47.174,73.126 47.425 C 73.396 47.863,71.333 50.193,70.675 50.193 C 70.488 50.193,70.247 50.410,70.140 50.676 C 69.985 51.058,69.939 51.057,69.915 50.671 C 69.880 50.117,66.023 53.858,66.023 54.445 C 66.023 54.655,65.852 54.826,65.642 54.826 C 65.138 54.826,61.390 58.566,61.390 59.068 C 61.390 59.283,61.204 59.459,60.976 59.459 C 60.366 59.459,59.459 60.474,59.459 61.157 C 59.459 61.484,59.236 61.666,58.963 61.561 C 58.668 61.448,58.443 61.689,58.408 62.157 C 58.337 63.091,57.296 64.233,56.796 63.924 C 56.602 63.804,56.534 64.053,56.645 64.478 C 56.785 65.016,56.657 65.251,56.223 65.251 C 55.879 65.251,55.598 65.435,55.598 65.660 C 55.598 65.885,55.425 65.961,55.212 65.830 C 55.000 65.699,54.826 65.862,54.826 66.193 C 54.826 66.524,54.566 66.795,54.247 66.795 C 53.929 66.795,53.668 66.982,53.668 67.209 C 53.668 67.437,53.406 67.885,53.085 68.205 C 52.765 68.526,52.624 68.991,52.773 69.240 C 52.952 69.538,52.841 69.527,52.444 69.205 C 51.925 68.786,51.869 68.852,52.028 69.688 C 52.142 70.282,52.036 70.656,51.755 70.656 C 51.184 70.656,50.193 71.618,50.193 72.173 C 50.193 72.401,50.007 72.587,49.779 72.587 C 48.966 72.587,48.263 73.572,48.263 74.710 C 48.263 75.029,48.076 75.290,47.849 75.290 C 47.314 75.290,46.332 76.272,46.332 76.806 C 46.332 77.034,46.096 77.220,45.806 77.220 C 45.454 77.220,45.342 77.538,45.465 78.185 C 45.574 78.753,45.471 79.151,45.215 79.151 C 44.976 79.151,44.227 79.679,43.551 80.325 C 42.875 80.971,42.616 81.387,42.976 81.249 C 43.347 81.107,43.629 81.183,43.629 81.426 C 43.629 81.661,43.443 81.853,43.216 81.853 C 42.534 81.853,41.699 82.901,41.699 83.756 C 41.699 84.210,41.448 84.556,41.120 84.556 C 40.801 84.556,40.541 84.827,40.541 85.158 C 40.541 85.489,40.387 85.665,40.198 85.548 C 40.010 85.432,39.761 85.700,39.645 86.144 C 39.529 86.587,39.249 86.836,39.022 86.696 C 38.795 86.556,38.610 86.706,38.610 87.031 C 38.610 87.430,38.825 87.538,39.273 87.366 C 39.861 87.140,39.872 87.181,39.370 87.727 C 39.058 88.066,38.633 88.316,38.426 88.284 C 38.219 88.251,37.986 88.643,37.908 89.155 C 37.756 90.164,36.984 91.120,36.321 91.120 C 36.093 91.120,35.907 91.554,35.907 92.085 C 35.907 92.616,35.734 93.050,35.521 93.050 C 35.309 93.050,35.135 93.485,35.135 94.015 C 35.135 95.117,34.508 95.321,34.243 94.305 C 34.134 93.889,34.049 94.038,34.022 94.691 C 33.997 95.275,33.803 95.753,33.591 95.753 C 33.378 95.753,33.205 96.187,33.205 96.718 C 33.205 97.249,33.031 97.683,32.819 97.683 C 32.606 97.683,32.432 98.118,32.432 98.649 C 32.432 99.249,32.214 99.614,31.853 99.614 C 31.493 99.614,31.274 99.979,31.274 100.579 C 31.274 101.110,31.100 101.544,30.888 101.544 C 30.676 101.544,30.502 101.979,30.502 102.510 C 30.502 103.110,30.283 103.475,29.923 103.475 C 29.562 103.475,29.344 103.840,29.344 104.440 C 29.344 104.971,29.170 105.405,28.958 105.405 C 28.745 105.405,28.571 105.840,28.571 106.371 C 28.571 107.475,27.954 107.671,27.659 106.660 C 27.550 106.289,27.494 106.680,27.534 107.529 C 27.583 108.588,27.454 109.043,27.124 108.977 C 26.840 108.920,26.641 109.279,26.641 109.846 C 26.641 110.376,26.467 110.811,26.255 110.811 C 26.042 110.811,25.869 111.245,25.869 111.776 C 25.869 112.377,25.650 112.741,25.290 112.741 C 24.929 112.741,24.710 113.106,24.710 113.707 C 24.710 114.237,24.537 114.672,24.324 114.672 C 24.112 114.672,23.938 115.280,23.938 116.023 C 23.938 117.007,23.770 117.375,23.317 117.375 C 22.855 117.375,22.756 117.611,22.928 118.300 C 23.086 118.926,22.974 119.296,22.584 119.446 C 22.242 119.577,22.008 120.160,22.008 120.879 C 22.008 121.835,21.876 122.040,21.385 121.851 C 20.858 121.649,20.801 121.822,21.016 122.968 C 21.218 124.044,21.147 124.324,20.674 124.324 C 20.249 124.324,20.077 124.714,20.077 125.676 C 20.077 126.419,19.903 127.027,19.691 127.027 C 19.479 127.027,19.305 127.617,19.305 128.337 C 19.305 129.186,19.086 129.731,18.683 129.886 C 18.245 130.054,18.110 130.463,18.228 131.264 C 18.333 131.981,18.206 132.475,17.885 132.599 C 17.595 132.710,17.375 133.384,17.375 134.158 C 17.375 134.908,17.201 135.521,16.988 135.521 C 16.776 135.521,16.602 136.303,16.602 137.259 C 16.602 138.585,16.458 138.996,15.992 138.996 C 15.511 138.996,15.438 139.249,15.647 140.200 C 15.793 140.862,15.743 141.775,15.536 142.227 C 14.830 143.774,13.980 147.369,13.179 152.198 C 12.978 153.407,12.692 154.593,12.543 154.834 C 12.204 155.384,11.670 158.918,10.213 170.270 C 9.384 176.732,8.977 202.024,9.630 206.564 C 9.859 208.156,10.235 211.197,10.467 213.320 C 11.094 219.083,11.434 221.472,12.146 225.097 C 12.501 226.902,12.941 229.247,13.124 230.309 C 13.626 233.216,14.181 235.589,14.643 236.801 C 14.871 237.399,15.058 238.388,15.058 238.998 C 15.058 239.609,15.232 240.216,15.444 240.347 C 15.656 240.479,15.836 241.054,15.844 241.625 C 15.851 242.197,16.106 243.098,16.409 243.629 C 16.713 244.160,16.967 245.062,16.975 245.634 C 16.982 246.205,17.162 246.780,17.375 246.911 C 17.587 247.042,17.761 247.554,17.761 248.048 C 17.761 248.542,18.020 249.444,18.337 250.052 C 18.655 250.661,18.915 251.452,18.917 251.811 C 18.918 252.170,19.093 252.571,19.305 252.703 C 19.517 252.834,19.691 253.339,19.691 253.824 C 19.691 254.622,20.275 256.178,21.260 258.006 C 21.459 258.375,21.622 258.942,21.622 259.266 C 21.622 259.591,21.770 260.158,21.951 260.526 C 22.270 261.176,23.015 262.879,23.849 264.865 C 24.072 265.396,24.603 266.612,25.029 267.568 C 25.454 268.523,26.184 270.174,26.651 271.236 C 27.734 273.698,31.394 281.019,32.924 283.784 C 33.571 284.952,34.289 286.255,34.521 286.680 C 34.752 287.104,35.029 287.539,35.135 287.645 C 35.525 288.035,36.322 289.401,36.543 290.058 C 36.668 290.430,36.923 290.734,37.111 290.734 C 37.298 290.734,37.452 290.934,37.452 291.180 C 37.452 291.425,37.886 292.195,38.417 292.891 C 38.948 293.587,39.382 294.247,39.382 294.357 C 39.382 294.468,40.434 296.086,41.720 297.955 C 43.006 299.823,44.353 301.785,44.713 302.315 C 46.278 304.620,52.504 312.641,53.737 313.941 C 54.018 314.237,55.750 316.216,57.587 318.340 C 63.699 325.407,78.911 339.543,84.386 343.243 C 84.857 343.562,87.347 345.343,89.920 347.201 C 92.492 349.059,94.756 350.579,94.950 350.579 C 95.144 350.579,95.360 350.729,95.431 350.913 C 95.550 351.220,102.984 355.788,107.529 358.345 C 110.829 360.202,121.655 365.468,125.097 366.891 C 125.627 367.110,126.583 367.508,127.220 367.774 C 128.594 368.349,129.702 368.787,132.046 369.685 C 133.002 370.050,134.085 370.505,134.454 370.696 C 134.823 370.887,135.440 371.042,135.825 371.042 C 136.210 371.042,136.690 371.194,136.892 371.379 C 137.094 371.564,138.301 372.016,139.575 372.383 C 140.849 372.750,142.239 373.182,142.664 373.344 C 143.517 373.668,147.363 374.822,149.324 375.343 C 150.014 375.526,151.153 375.848,151.854 376.059 C 153.832 376.654,158.621 377.663,162.623 378.327 C 163.832 378.528,165.028 378.820,165.282 378.977 C 165.750 379.266,168.131 379.616,174.247 380.296 C 176.116 380.503,177.853 380.803,178.108 380.962 C 180.123 382.217,219.862 382.215,221.892 380.960 C 222.147 380.802,223.884 380.502,225.753 380.292 C 232.105 379.580,233.783 379.326,234.305 378.999 C 234.592 378.819,235.808 378.524,237.008 378.345 C 241.557 377.663,248.836 376.048,250.772 375.291 C 251.197 375.125,252.674 374.690,254.054 374.324 C 255.434 373.959,256.911 373.529,257.336 373.370 C 259.096 372.708,263.182 371.334,263.900 371.162 C 264.833 370.940,266.222 370.388,267.695 369.655 C 268.297 369.357,269.002 369.112,269.264 369.112 C 269.526 369.112,270.640 368.678,271.741 368.147 C 272.841 367.616,273.883 367.181,274.057 367.181 C 274.373 367.181,277.981 365.563,279.242 364.855 C 279.611 364.648,280.161 364.479,280.465 364.479 C 280.768 364.479,281.075 364.348,281.145 364.189 C 281.216 364.030,281.882 363.614,282.625 363.266 C 283.369 362.917,284.585 362.345,285.328 361.994 C 288.416 360.535,295.761 356.476,298.753 354.575 C 299.872 353.864,300.862 353.282,300.954 353.282 C 301.046 353.282,302.650 352.229,304.518 350.942 C 306.386 349.656,308.606 348.152,309.451 347.600 C 310.296 347.049,311.220 346.364,311.505 346.079 C 311.791 345.793,312.153 345.560,312.310 345.560 C 312.467 345.560,312.933 345.251,313.344 344.872 C 313.756 344.494,314.788 343.671,315.637 343.044 C 323.366 337.331,335.044 326.525,341.918 318.726 C 343.602 316.815,345.068 315.164,345.174 315.058 C 345.634 314.600,347.776 312.014,348.842 310.631 C 349.479 309.805,350.702 308.247,351.561 307.170 C 355.035 302.812,364.479 288.654,364.479 287.804 C 364.479 287.676,364.802 287.110,365.196 286.546 C 367.422 283.367,373.391 271.333,376.142 264.479 C 376.767 262.921,377.665 260.863,378.035 260.140 C 378.224 259.772,378.378 259.130,378.378 258.715 C 378.378 258.300,378.536 257.863,378.729 257.744 C 378.921 257.625,379.373 256.529,379.733 255.308 C 380.092 254.088,380.539 252.741,380.725 252.317 C 381.092 251.478,381.848 249.079,382.610 246.332 C 382.875 245.376,383.334 243.894,383.631 243.037 C 383.927 242.181,384.170 241.105,384.170 240.647 C 384.170 240.189,384.344 239.707,384.556 239.575 C 384.768 239.444,384.942 238.820,384.942 238.189 C 384.942 237.557,385.203 236.417,385.521 235.655 C 385.840 234.892,386.100 233.692,386.100 232.987 C 386.100 232.282,386.274 231.598,386.486 231.467 C 386.699 231.336,386.873 230.555,386.873 229.732 C 386.873 228.909,387.056 227.754,387.279 227.166 C 387.837 225.699,388.469 221.383,389.817 209.846 C 390.921 200.394,390.631 169.975,389.419 168.013 C 389.290 167.805,389.010 166.186,388.797 164.416 C 387.988 157.713,387.749 156.079,387.522 155.712 C 387.394 155.504,387.099 154.308,386.868 153.053 C 385.971 148.187,385.764 147.222,385.136 144.981 C 384.778 143.707,384.397 142.013,384.287 141.216 C 384.178 140.420,383.933 139.768,383.743 139.768 C 383.553 139.768,383.398 138.986,383.398 138.031 C 383.398 137.075,383.224 136.293,383.012 136.293 C 382.799 136.293,382.625 135.598,382.625 134.749 C 382.625 133.900,382.452 133.205,382.239 133.205 C 382.027 133.205,381.853 132.597,381.853 131.853 C 381.853 130.909,381.679 130.502,381.274 130.502 C 380.870 130.502,380.695 130.094,380.695 129.151 C 380.695 128.407,380.521 127.799,380.309 127.799 C 380.097 127.799,379.923 127.191,379.923 126.448 C 379.923 125.463,379.754 125.097,379.301 125.097 C 378.799 125.097,378.728 124.835,378.932 123.745 C 379.133 122.674,379.062 122.394,378.589 122.394 C 378.183 122.394,377.992 122.023,377.992 121.236 C 377.992 120.598,377.819 120.077,377.606 120.077 C 377.394 120.077,377.220 119.556,377.220 118.919 C 377.220 118.147,377.027 117.761,376.641 117.761 C 376.255 117.761,376.062 117.375,376.062 116.602 C 376.062 115.965,375.888 115.444,375.676 115.444 C 375.463 115.444,375.290 115.010,375.290 114.479 C 375.290 113.878,375.071 113.514,374.710 113.514 C 374.324 113.514,374.131 113.127,374.131 112.355 C 374.131 111.718,373.958 111.197,373.745 111.197 C 373.533 111.197,373.359 110.781,373.359 110.273 C 373.359 109.765,373.112 109.254,372.810 109.138 C 372.474 109.009,372.341 108.619,372.469 108.132 C 372.616 107.570,372.493 107.336,372.053 107.336 C 371.644 107.336,371.429 107.002,371.429 106.371 C 371.429 105.840,371.255 105.405,371.042 105.405 C 370.830 105.405,370.656 104.971,370.656 104.440 C 370.656 103.840,370.438 103.475,370.077 103.475 C 369.717 103.475,369.498 103.110,369.498 102.510 C 369.498 101.979,369.324 101.544,369.112 101.544 C 368.900 101.544,368.726 101.110,368.726 100.579 C 368.726 100.048,368.540 99.614,368.312 99.614 C 367.609 99.614,366.537 98.349,367.085 98.166 C 367.628 97.985,366.764 96.911,366.075 96.911 C 365.852 96.911,365.759 96.293,365.858 95.463 C 365.953 94.667,365.927 94.233,365.801 94.498 C 365.442 95.257,364.865 95.062,364.865 94.181 C 364.865 93.326,364.029 92.278,363.348 92.278 C 363.121 92.278,362.934 91.844,362.934 91.313 C 362.934 90.782,362.761 90.347,362.548 90.347 C 362.336 90.347,362.162 89.913,362.162 89.382 C 362.162 88.851,361.988 88.417,361.776 88.417 C 361.564 88.417,361.390 88.162,361.390 87.850 C 361.390 87.505,361.164 87.370,360.811 87.505 C 360.396 87.664,360.232 87.467,360.232 86.812 C 360.232 86.287,359.821 85.589,359.266 85.173 C 358.736 84.774,358.301 84.112,358.301 83.702 C 358.301 82.989,357.471 81.853,356.950 81.853 C 356.453 81.853,355.555 80.691,355.776 80.334 C 355.900 80.133,355.477 79.430,354.835 78.774 C 354.193 78.117,353.668 77.313,353.668 76.986 C 353.668 76.395,352.788 75.290,352.317 75.290 C 351.754 75.290,350.965 74.127,350.959 73.290 C 350.955 72.570,350.880 72.508,350.579 72.973 C 350.265 73.459,350.204 73.435,350.199 72.822 C 350.193 72.067,348.183 69.884,347.494 69.884 C 347.280 69.884,347.104 69.624,347.104 69.305 C 347.104 68.986,346.931 68.726,346.718 68.726 C 346.506 68.726,346.332 68.292,346.332 67.761 C 346.332 67.230,346.146 66.795,345.918 66.795 C 345.468 66.795,344.402 65.845,344.402 65.444 C 344.402 65.141,343.381 64.093,343.085 64.093 C 342.734 64.093,337.838 59.087,337.838 58.727 C 337.838 58.545,337.573 58.176,337.249 57.907 C 336.926 57.639,336.731 57.349,336.816 57.264 C 337.017 57.062,334.789 54.829,334.437 54.879 C 333.419 55.025,333.126 54.807,333.591 54.247 C 333.927 53.842,333.941 53.653,333.638 53.620 C 332.409 53.483,332.247 53.404,332.331 52.989 C 332.383 52.734,332.173 52.633,331.849 52.758 C 331.273 52.979,331.020 52.330,331.564 52.026 C 331.723 51.937,331.621 51.923,331.338 51.994 C 330.886 52.108,326.641 48.172,326.641 47.639 C 326.641 47.273,325.548 46.332,325.124 46.332 C 324.897 46.332,324.710 46.053,324.710 45.711 C 324.710 45.241,324.475 45.149,323.745 45.332 C 323.214 45.466,322.780 45.410,322.780 45.209 C 322.780 45.009,323.084 44.765,323.456 44.668 C 323.871 44.559,323.723 44.474,323.069 44.446 C 322.486 44.422,322.008 44.228,322.008 44.015 C 322.008 43.803,321.747 43.629,321.429 43.629 C 321.110 43.629,320.849 43.407,320.849 43.135 C 320.849 42.864,320.502 42.391,320.077 42.085 C 319.653 41.779,319.305 41.287,319.305 40.993 C 319.305 40.614,319.022 40.528,318.340 40.699 C 317.627 40.878,317.375 40.788,317.375 40.355 C 317.375 40.032,317.114 39.768,316.795 39.768 C 316.477 39.768,316.216 39.587,316.216 39.365 C 316.216 38.637,314.365 37.041,314.121 37.559 C 313.948 37.927,313.850 37.925,313.674 37.548 C 313.551 37.283,313.203 37.066,312.902 37.066 C 312.601 37.066,312.355 36.879,312.355 36.652 C 312.355 35.971,311.307 35.135,310.452 35.135 C 310.012 35.135,309.653 34.949,309.653 34.721 C 309.653 34.040,308.604 33.205,307.750 33.205 C 307.283 33.205,306.950 32.954,306.950 32.603 C 306.950 32.272,306.776 32.108,306.564 32.239 C 306.351 32.371,306.178 32.207,306.178 31.876 C 306.178 31.491,305.829 31.274,305.212 31.274 C 304.681 31.274,304.247 31.100,304.247 30.888 C 304.247 30.676,303.986 30.502,303.668 30.502 C 303.349 30.502,303.089 30.222,303.089 29.881 C 303.089 29.411,302.853 29.319,302.124 29.502 C 301.411 29.681,301.158 29.591,301.158 29.158 C 301.158 28.835,300.985 28.571,300.772 28.571 C 300.560 28.571,300.386 28.308,300.386 27.985 C 300.386 27.552,300.133 27.462,299.421 27.641 C 298.691 27.824,298.456 27.732,298.456 27.262 C 298.456 26.857,298.120 26.641,297.490 26.641 C 296.959 26.641,296.525 26.467,296.525 26.255 C 296.525 26.042,296.178 25.869,295.753 25.869 C 295.324 25.869,294.981 25.611,294.981 25.290 C 294.981 24.971,294.720 24.710,294.402 24.710 C 294.083 24.710,293.822 24.537,293.822 24.324 C 293.822 24.112,293.369 23.938,292.816 23.938 C 292.044 23.938,291.866 23.791,292.051 23.309 C 292.251 22.787,292.095 22.720,291.127 22.914 C 290.252 23.089,289.961 23.005,289.961 22.577 C 289.961 22.234,289.594 22.008,289.037 22.008 C 288.529 22.008,288.015 21.750,287.894 21.435 C 287.769 21.109,287.418 20.961,287.080 21.090 C 286.698 21.237,286.486 21.097,286.486 20.698 C 286.486 20.293,286.150 20.077,285.521 20.077 C 284.990 20.077,284.556 19.903,284.556 19.691 C 284.556 19.479,284.122 19.305,283.591 19.305 C 282.961 19.305,282.625 19.089,282.625 18.684 C 282.625 18.214,282.390 18.122,281.660 18.305 C 280.948 18.484,280.695 18.394,280.695 17.961 C 280.695 17.593,280.336 17.375,279.730 17.375 C 279.124 17.375,278.764 17.156,278.764 16.788 C 278.764 16.355,278.512 16.265,277.799 16.444 C 277.069 16.627,276.834 16.535,276.834 16.065 C 276.834 15.613,276.467 15.444,275.483 15.444 C 274.739 15.444,274.131 15.270,274.131 15.058 C 274.131 14.846,273.697 14.672,273.166 14.672 C 272.565 14.672,272.201 14.453,272.201 14.093 C 272.201 13.688,271.793 13.514,270.849 13.514 C 270.106 13.514,269.498 13.340,269.498 13.127 C 269.498 12.915,268.977 12.741,268.340 12.741 C 267.528 12.741,267.181 12.554,267.181 12.114 C 267.181 11.627,266.930 11.537,266.058 11.711 C 265.273 11.868,264.870 11.766,264.719 11.373 C 264.586 11.028,263.977 10.811,263.140 10.811 C 262.390 10.811,261.776 10.637,261.776 10.425 C 261.776 10.212,261.168 10.039,260.425 10.039 C 259.481 10.039,259.073 9.864,259.073 9.459 C 259.073 9.040,258.642 8.880,257.506 8.880 C 256.560 8.880,256.033 8.727,256.178 8.494 C 256.323 8.258,255.731 8.108,254.656 8.108 C 253.454 8.108,252.926 7.955,252.992 7.625 C 253.057 7.300,252.555 7.143,251.447 7.143 C 250.391 7.143,249.806 6.971,249.806 6.660 C 249.807 6.338,249.164 6.178,247.876 6.178 C 246.815 6.178,245.946 6.013,245.946 5.812 C 245.946 5.610,245.034 5.393,243.919 5.329 C 242.550 5.250,241.923 5.056,241.988 4.730 C 242.056 4.391,241.459 4.247,239.984 4.247 C 238.027 4.247,236.834 3.745,237.927 3.381 C 238.191 3.293,237.749 3.196,236.945 3.166 C 236.141 3.136,235.291 2.992,235.056 2.847 C 234.790 2.682,234.740 2.761,234.922 3.057 C 235.136 3.402,234.865 3.496,233.920 3.406 C 233.138 3.331,232.664 3.091,232.722 2.799 C 232.807 2.374,231.129 2.068,229.950 2.294 C 228.506 2.571,226.480 2.414,226.347 2.015 C 226.238 1.687,225.031 1.544,222.362 1.544 C 219.156 1.544,218.533 1.447,218.533 0.944 C 218.533 0.418,217.613 0.358,211.100 0.456 C 207.013 0.518,202.625 0.461,201.351 0.330 C 200.077 0.199,197.905 0.218,196.525 0.372 M143.310 98.485 C 147.742 99.380,150.238 100.314,154.018 102.492 C 159.385 105.584,165.585 114.964,165.641 120.077 C 165.649 120.820,165.816 122.122,166.013 122.970 C 167.079 127.568,164.002 137.082,159.936 141.761 C 157.956 144.039,154.410 147.104,153.753 147.104 C 153.529 147.104,153.288 147.240,153.218 147.406 C 152.770 148.455,147.191 150.394,142.835 151.014 C 139.459 151.495,132.698 150.936,132.204 150.135 C 132.092 149.955,131.670 149.807,131.265 149.807 C 126.950 149.807,117.890 141.486,115.291 135.135 C 114.899 134.180,114.438 133.050,114.266 132.625 C 113.322 130.302,112.885 123.349,113.503 120.481 C 114.223 117.139,115.095 114.308,115.480 114.071 C 115.672 113.951,115.830 113.517,115.830 113.105 C 115.830 112.692,115.961 112.355,116.122 112.355 C 116.282 112.355,116.625 111.877,116.884 111.293 C 117.977 108.824,122.507 104.123,125.511 102.340 C 129.032 100.251,132.616 98.865,134.629 98.815 C 135.226 98.800,136.062 98.638,136.486 98.456 C 137.584 97.984,140.900 97.998,143.310 98.485 M263.991 98.478 C 270.712 99.973,275.311 102.349,279.128 106.299 C 281.990 109.261,285.328 114.734,285.328 116.464 C 285.328 116.758,285.486 117.301,285.679 117.669 C 286.970 120.135,286.970 129.286,285.679 131.752 C 285.486 132.120,285.328 132.673,285.328 132.979 C 285.328 134.871,281.699 140.665,278.425 143.999 C 276.185 146.281,270.293 149.807,268.721 149.807 C 268.324 149.807,267.906 149.958,267.792 150.142 C 267.005 151.416,253.459 151.416,252.671 150.142 C 252.557 149.958,252.135 149.807,251.733 149.807 C 251.331 149.807,249.709 149.126,248.129 148.294 C 232.017 139.808,228.766 118.900,241.555 106.021 C 247.212 100.325,257.197 96.968,263.991 98.478 M215.899 230.117 C 217.454 230.330,220.290 230.683,222.201 230.901 C 228.136 231.577,230.969 231.989,234.170 232.642 C 235.869 232.988,238.041 233.419,238.996 233.600 C 241.296 234.035,243.344 234.524,246.042 235.283 C 247.264 235.626,249.262 236.189,250.483 236.533 C 251.704 236.877,253.096 237.245,253.577 237.351 C 254.058 237.457,254.546 237.697,254.662 237.884 C 254.777 238.071,255.162 238.224,255.517 238.224 C 256.060 238.224,259.474 239.373,262.355 240.525 C 262.780 240.695,263.909 241.139,264.865 241.512 C 270.995 243.904,278.710 247.793,285.135 251.730 C 287.746 253.330,294.200 257.787,294.595 258.262 C 294.701 258.390,295.743 259.272,296.911 260.223 C 307.093 268.511,315.501 279.441,319.341 289.382 C 319.505 289.807,319.889 290.763,320.194 291.506 C 320.500 292.249,320.966 293.639,321.231 294.595 C 321.496 295.550,321.925 297.027,322.186 297.876 C 322.987 300.490,323.411 300.386,311.907 300.386 L 301.484 300.386 299.879 298.813 C 298.996 297.947,297.776 296.861,297.168 296.400 C 296.561 295.938,295.602 295.200,295.039 294.760 C 287.610 288.953,275.848 282.184,266.409 278.283 C 264.731 277.589,262.765 276.732,262.071 276.391 C 261.702 276.210,261.085 276.062,260.700 276.062 C 260.315 276.062,259.835 275.912,259.633 275.729 C 259.223 275.357,249.466 272.201,248.725 272.201 C 248.465 272.201,247.950 272.049,247.582 271.863 C 247.213 271.677,245.608 271.236,244.015 270.884 C 242.423 270.531,240.512 270.088,239.768 269.899 C 239.025 269.710,237.461 269.377,236.293 269.158 C 235.125 268.940,233.127 268.556,231.853 268.305 C 229.020 267.748,225.839 267.339,220.270 266.814 C 217.934 266.594,214.751 266.239,213.196 266.026 C 209.532 265.522,190.468 265.522,186.804 266.026 C 185.249 266.239,182.066 266.594,179.730 266.814 C 174.075 267.347,171.156 267.739,166.988 268.528 C 165.077 268.889,162.819 269.315,161.969 269.475 C 158.958 270.040,153.079 271.501,152.418 271.849 C 152.050 272.042,151.480 272.201,151.153 272.201 C 150.235 272.201,139.553 275.705,138.133 276.472 C 137.764 276.671,137.285 276.834,137.069 276.834 C 136.853 276.834,135.775 277.268,134.675 277.799 C 133.574 278.330,132.521 278.764,132.334 278.764 C 131.885 278.764,122.495 283.399,119.305 285.196 C 114.181 288.081,105.132 294.282,102.124 296.970 C 101.486 297.539,100.357 298.538,99.614 299.189 L 98.263 300.374 87.922 300.380 C 76.215 300.387,76.704 300.534,77.756 297.317 C 78.098 296.271,78.378 295.141,78.378 294.806 C 78.378 294.472,78.534 293.896,78.725 293.528 C 78.915 293.159,79.369 292.075,79.733 291.120 C 84.847 277.683,94.830 265.591,109.171 255.464 C 111.773 253.627,114.075 252.124,114.287 252.124 C 114.499 252.124,114.672 251.970,114.672 251.782 C 114.672 251.595,114.976 251.344,115.347 251.224 C 115.719 251.104,116.892 250.484,117.954 249.846 C 119.775 248.750,130.959 243.125,132.625 242.465 C 133.050 242.297,134.614 241.686,136.100 241.106 C 137.587 240.526,139.351 239.814,140.020 239.524 C 140.689 239.234,141.430 238.996,141.666 238.996 C 141.902 238.996,142.397 238.842,142.766 238.655 C 143.804 238.126,149.714 236.293,150.381 236.293 C 150.708 236.293,151.277 236.140,151.646 235.953 C 152.510 235.514,157.454 234.271,161.004 233.600 C 161.959 233.419,164.131 232.987,165.830 232.639 C 169.318 231.925,171.615 231.598,179.344 230.716 C 182.317 230.376,184.923 230.029,185.135 229.945 C 185.991 229.604,213.268 229.757,215.899 230.117 " stroke="none" fill="#face40" fill-rule="evenodd"></path>
  </g>
</svg>