<?xml version="1.0" encoding="UTF-8"?>
<!DOCTYPE svg PUBLIC "-//W3C//DTD SVG 1.1//EN" "http://www.w3.org/Graphics/SVG/1.1/DTD/svg11.dtd">
<!-- Creator: CorelDRAW 2018 (64 Bit Versão de avaliação) -->
<svg xmlns="http://www.w3.org/2000/svg" xml:space="preserve" width="46.7931mm" height="46.7935mm" version="1.1" style="shape-rendering:geometricPrecision; text-rendering:geometricPrecision; image-rendering:optimizeQuality; fill-rule:evenodd; clip-rule:evenodd"
viewBox="0 0 1286.06 1286.07"
 xmlns:xlink="http://www.w3.org/1999/xlink">
 <g id="Camada_x0020_1">
  <metadata id="CorelCorpID_0Corel-Layer"/>
  <path class="fil0" d="M643.02 0c-177.27,0 -338.03,72.12 -454.47,188.56 -116.44,116.44 -188.56,277.2 -188.56,454.47 0,88.95 17.71,174.74 51.49,253.56 33.78,78.83 83.67,150.8 148.02,212.1 60.07,57.21 129.49,101.58 204.61,131.63 75.03,30.02 155.88,45.75 238.9,45.75 83.03,0 163.87,-15.73 238.91,-45.75 75.12,-30.05 144.54,-74.42 204.61,-131.63 64.35,-61.29 114.24,-133.27 148.02,-212.1 33.78,-78.82 51.49,-164.61 51.49,-253.55 0,-177.27 -72.12,-338.03 -188.56,-454.47 -116.44,-116.44 -277.2,-188.56 -454.47,-188.56zm0 16.34c172.79,0 329.47,70.28 442.94,183.76 113.47,113.47 183.76,270.15 183.76,442.93 0,75.95 -13.32,149.61 -38.86,218.45 -25.61,69.05 -63.6,133.31 -112.84,190.26l-23.87 27.61 -7.11 -35.84c-2.2,-11.08 -6.58,-21.5 -12.87,-30.5 -6.1,-8.74 -14.02,-16.23 -23.49,-21.81l-254.62 -149.99 -0.07 0c-9.34,-5.51 -16.94,-13.38 -22.21,-22.62 -5.26,-9.22 -8.17,-19.75 -8.17,-30.58l0 -9.89c0,-9.98 2.47,-19.71 6.99,-28.4 4.48,-8.6 11.04,-16.22 19.27,-22.08 33.85,-24.06 60.89,-55.67 79.46,-91.63 18.55,-35.9 28.64,-76.21 28.64,-117.73l0 -151.81c0,-49.4 -15.71,-92.2 -45.11,-126.07 -29.9,-34.44 -74.12,-60.1 -130.62,-74.62 -26.81,-6.88 -53.89,-10.31 -80.97,-10.3 -27.07,0.01 -54.16,3.48 -81.02,10.39 -56.53,14.53 -100.79,40.2 -130.71,74.64 -29.42,33.87 -45.15,76.66 -45.15,126.06l0 151.71c0,41.53 10.1,81.84 28.65,117.75 18.57,35.95 45.62,67.55 79.48,91.6 8.24,5.87 14.81,13.49 19.28,22.09 4.53,8.69 6.99,18.42 6.99,28.4l0 9.41c0,10.97 -2.98,21.62 -8.36,30.92 -5.32,9.2 -13.07,17.05 -22.65,22.56l-253.73 146.02c-9.92,5.71 -18.18,13.63 -24.49,22.95l-0.07 0c-6.5,9.61 -10.87,20.74 -12.79,32.55l-6.12 37.67 -24.93 -28.88c-49.1,-56.89 -86.99,-121.12 -112.57,-190.16 -25.48,-68.78 -38.76,-142.33 -38.76,-218.15 0,-172.79 70.28,-329.46 183.75,-442.94 113.47,-113.47 270.15,-183.75 442.94,-183.75zm-59.46 1250.5c-4.3,-0.41 -8.29,-1.03 -12.28,-1.65 -1.49,-0.23 -2.99,-0.47 -7.32,-1.01l-5.34 -0.67c-10.84,-1.35 -21.69,-2.72 -33.42,-4.94 -5.59,-1.07 -10.29,-2.25 -14.98,-3.44 -3.05,-0.77 -6.05,-1.53 -8.03,-1.98l-6.79 -1.55c-8.99,-2.02 -17.98,-4.05 -27.26,-6.73 -6.15,-1.78 -11.18,-3.56 -16.2,-5.34l-7.63 -2.68 -0.01 0.04 -7.02 -2.32c-8.34,-2.76 -16.69,-5.51 -24.47,-8.57 -5.68,-2.27 -10.98,-4.72 -16.28,-7.17l-7.38 -3.42 -0.01 0.03 -6.17 -2.71c-8.11,-3.55 -16.22,-7.11 -23.44,-10.78l0.01 -0.03c-5.72,-2.91 -11.02,-5.98 -16.32,-9.03l-6.9 -3.93 -5.88 -3.29 0.02 -0.03c-7.33,-4.09 -14.67,-8.18 -21.81,-12.7 -5.68,-3.59 -10.91,-7.31 -16.13,-11.01l-6.27 -4.38 0.02 -0.03 -5.18 -3.58c-6.94,-4.79 -13.88,-9.58 -20.74,-14.87 -5.53,-4.28 -10.5,-8.55 -15.47,-12.82l-8.5 -7.23c-5.8,-4.9 -11.6,-9.8 -17.25,-15l-5.71 -5.26 -0.04 -43.94 -0.07 0c0,-10.96 2.98,-21.6 8.36,-30.89 5.32,-9.19 13.06,-17.05 22.65,-22.57l253.68 -146.02 0 -0.07c12.08,-6.94 21.88,-16.89 28.64,-28.58 6.75,-11.66 10.49,-25.13 10.49,-39.12l0 -9.41c0,-12.65 -3.09,-24.93 -8.75,-35.87 -5.68,-10.97 -13.97,-20.64 -24.34,-28.02 -31.71,-22.53 -57.03,-52.11 -74.42,-85.76 -17.41,-33.69 -26.89,-71.42 -26.89,-110.2l0 -151.71c0,-50.9 17.08,-89.02 42.67,-117.56 32.85,-36.63 79.31,-56.47 121.02,-67.18 25.54,-6.57 51.22,-9.86 76.88,-9.88 25.65,-0.02 51.3,3.24 76.78,9.78 41.68,10.71 88.1,30.54 120.92,67.17 25.57,28.54 42.64,66.66 42.64,117.57l0 151.81c0,38.78 -9.47,76.51 -26.88,110.2 -17.38,33.64 -42.7,63.23 -74.4,85.77 -10.36,7.38 -18.65,17.04 -24.33,28.01 -5.66,10.93 -8.75,23.21 -8.75,35.86l0 9.89c0,13.83 3.68,27.19 10.32,38.82 6.65,11.64 16.24,21.57 28.04,28.53l254.64 149.99c9.56,5.63 17.25,13.59 22.49,22.89 5.19,9.22 8.02,19.87 7.92,30.98l-0.04 39.53 -5.72 5.26c-5.77,5.31 -11.7,10.31 -17.62,15.32l-8.09 6.88c-4.98,4.28 -9.96,8.56 -15.5,12.83 -6.91,5.35 -13.94,10.2 -20.96,15.03l-5.09 3.52 0.02 0.03 -6.04 4.22c-5.54,3.94 -11.09,7.87 -16.15,11.08l-0.07 0c-7.08,4.48 -14.36,8.54 -21.64,12.6l0.02 0.03 -6.16 3.45 -6.9 3.94c-5.25,3.04 -10.52,6.09 -16.22,8.98l0.01 0.03c-6.96,3.54 -14.81,6.98 -22.65,10.42l-6.72 2.96 -0.07 0.07c-3.07,1.36 -5.33,2.4 -7.55,3.42 -5.55,2.56 -11.12,5.12 -16.34,7.18 -7.65,3.02 -15.89,5.73 -24.12,8.44l-7.04 2.35 -0.01 -0.04 -7.82 2.74c-5.07,1.79 -10.13,3.58 -16.35,5.38 -8.97,2.59 -17.65,4.55 -26.32,6.5l-7.26 1.67c-1.87,0.43 -4.94,1.21 -8,1.98 -4.87,1.23 -9.73,2.46 -15.49,3.55 -11.6,2.2 -22.33,3.55 -33.05,4.89l-0.01 -0.07 -5.34 0.67c-2.49,0.32 -4.96,0.71 -7.41,1.09 -4.14,0.65 -8.28,1.29 -12.52,1.7 -10.06,0.95 -20.01,1.67 -29.81,2.13 -10.53,0.5 -20.42,0.76 -29.65,0.76 -9.23,0 -19.12,-0.26 -29.64,-0.76 -9.8,-0.46 -19.75,-1.18 -29.81,-2.13z"/>
 </g>
</svg>
