<svg id="svg" version="1.1" xmlns="http://www.w3.org/2000/svg" xmlns:xlink="http://www.w3.org/1999/xlink" width="400" height="474.01574803149606" viewBox="0, 0, 400,474.01574803149606">
  <g id="svgg">
    <path stroke="none" fill="#fc0c1c" fill-rule="evenodd" d="M347.441 1.194 C 331.405 4.678,318.070 18.034,314.828 33.858 C 313.275 41.438,313.275 432.578,314.828 440.157 C 323.889 484.382,389.497 484.382,398.558 440.157 C 400.111 432.578,400.111 41.438,398.558 33.858 C 393.893 11.092,370.549 -3.826,347.441 1.194 M243.307 65.800 C 228.181 69.076,215.360 81.206,211.233 96.146 C 209.924 100.887,209.843 111.017,209.843 269.291 C 209.843 455.477,209.466 441.537,214.763 451.492 C 232.487 484.800,283.407 478.943,293.491 442.437 C 295.647 434.633,295.647 103.949,293.491 96.146 C 287.506 74.480,265.282 61.042,243.307 65.800 M138.780 168.911 C 122.948 172.350,109.698 185.465,106.177 201.181 C 104.613 208.158,104.613 433.574,106.177 440.551 C 110.414 459.463,128.596 473.988,148.031 473.988 C 167.467 473.988,185.649 459.463,189.886 440.551 C 191.450 433.574,191.450 208.158,189.886 201.181 C 184.810 178.524,161.700 163.932,138.780 168.911 M34.056 270.486 C 18.224 273.925,4.974 287.039,1.452 302.756 C -0.095 309.663,-0.095 433.644,1.452 440.551 C 11.256 484.310,75.358 484.310,85.162 440.551 C 86.710 433.644,86.710 309.663,85.162 302.756 C 80.086 280.099,56.976 265.506,34.056 270.486 "></path>
  </g>
</svg>