<svg id="svg" version="1.1" xmlns="http://www.w3.org/2000/svg" xmlns:xlink="http://www.w3.org/1999/xlink" width="400" height="474.9506903353057" viewBox="0, 0, 400,474.9506903353057">
  <g id="svgg">
    <path id="path0" d="M350.200 0.447 C 345.265 1.115,344.400 1.293,344.400 1.642 C 344.400 1.839,343.948 2.000,343.395 2.000 C 342.842 2.000,342.077 2.168,341.695 2.374 C 341.313 2.579,340.415 2.983,339.700 3.271 C 338.985 3.560,338.400 3.931,338.400 4.098 C 338.400 4.264,338.040 4.400,337.600 4.400 C 337.160 4.400,336.800 4.580,336.800 4.800 C 336.800 5.020,336.558 5.200,336.261 5.200 C 335.398 5.200,333.161 6.437,332.928 7.044 C 332.810 7.350,332.413 7.600,332.046 7.600 C 331.678 7.600,331.117 7.960,330.800 8.400 C 330.483 8.840,329.996 9.200,329.717 9.200 C 329.089 9.200,322.400 15.931,322.400 16.564 C 322.400 16.816,322.040 17.283,321.600 17.600 C 321.160 17.917,320.800 18.379,320.800 18.626 C 320.800 18.874,320.440 19.402,320.000 19.800 C 319.560 20.198,319.200 20.856,319.200 21.262 C 319.200 21.668,319.020 22.000,318.800 22.000 C 318.580 22.000,318.400 22.360,318.400 22.800 C 318.400 23.240,318.254 23.600,318.075 23.600 C 317.896 23.600,317.502 24.230,317.200 25.000 C 316.898 25.770,316.525 26.400,316.371 26.400 C 316.104 26.400,315.838 27.406,315.337 30.300 C 315.214 31.015,314.952 31.600,314.756 31.600 C 314.560 31.600,314.400 32.554,314.400 33.720 C 314.400 34.886,314.230 36.011,314.023 36.220 C 313.058 37.192,312.598 421.085,313.547 433.000 C 314.121 440.207,314.386 442.471,314.764 443.400 C 315.388 444.935,316.000 447.062,316.000 447.695 C 316.000 448.046,316.141 448.393,316.314 448.467 C 316.486 448.540,317.319 450.009,318.164 451.732 C 319.009 453.454,319.948 454.959,320.250 455.075 C 320.553 455.191,320.800 455.587,320.800 455.954 C 320.800 456.322,321.160 456.883,321.600 457.200 C 322.040 457.517,322.400 458.004,322.400 458.283 C 322.400 458.911,329.131 465.600,329.764 465.600 C 330.016 465.600,330.483 465.960,330.800 466.400 C 331.117 466.840,331.678 467.200,332.046 467.200 C 332.413 467.200,332.810 467.450,332.928 467.756 C 333.161 468.363,335.398 469.600,336.261 469.600 C 336.558 469.600,336.800 469.780,336.800 470.000 C 336.800 470.220,337.160 470.400,337.600 470.400 C 338.040 470.400,338.400 470.559,338.400 470.753 C 338.400 470.948,338.715 471.211,339.100 471.339 C 339.485 471.467,340.520 471.845,341.400 472.180 C 342.280 472.514,343.315 472.791,343.700 472.794 C 344.085 472.797,344.400 472.980,344.400 473.200 C 344.400 473.420,344.994 473.600,345.720 473.600 C 346.446 473.600,347.211 473.769,347.420 473.975 C 348.725 475.264,368.800 474.495,368.800 473.156 C 368.800 472.960,369.329 472.800,369.976 472.800 C 370.623 472.800,371.264 472.620,371.400 472.400 C 371.536 472.180,372.097 472.000,372.647 472.000 C 373.212 472.000,373.540 471.826,373.400 471.600 C 373.264 471.380,373.523 471.200,373.976 471.200 C 374.429 471.200,374.800 471.020,374.800 470.800 C 374.800 470.580,375.035 470.400,375.321 470.400 C 376.191 470.400,380.050 468.334,380.275 467.748 C 380.391 467.447,380.787 467.200,381.154 467.200 C 381.522 467.200,382.083 466.840,382.400 466.400 C 382.717 465.960,383.199 465.600,383.471 465.600 C 384.116 465.600,390.800 458.916,390.800 458.271 C 390.800 457.999,391.160 457.517,391.600 457.200 C 392.040 456.883,392.400 456.322,392.400 455.954 C 392.400 455.587,392.647 455.191,392.948 455.075 C 393.543 454.847,395.600 450.986,395.600 450.098 C 395.600 449.798,395.780 449.664,396.000 449.800 C 396.228 449.941,396.400 449.596,396.400 449.000 C 396.400 448.404,396.572 448.059,396.800 448.200 C 397.026 448.340,397.200 448.012,397.200 447.447 C 397.200 446.897,397.380 446.336,397.600 446.200 C 397.820 446.064,398.000 445.434,398.000 444.800 C 398.000 444.166,398.180 443.536,398.400 443.400 C 398.620 443.264,398.800 442.188,398.800 441.010 C 398.800 439.651,398.983 438.806,399.300 438.700 C 399.699 438.567,399.800 397.951,399.800 237.400 C 399.800 76.849,399.699 36.233,399.300 36.100 C 398.983 35.994,398.800 35.149,398.800 33.790 C 398.800 32.612,398.620 31.536,398.400 31.400 C 398.180 31.264,398.000 30.634,398.000 30.000 C 398.000 29.366,397.820 28.736,397.600 28.600 C 397.380 28.464,397.200 27.913,397.200 27.376 C 397.200 26.839,397.020 26.400,396.800 26.400 C 396.580 26.400,396.400 26.040,396.400 25.600 C 396.400 25.160,396.220 24.800,396.000 24.800 C 395.780 24.800,395.600 24.530,395.600 24.200 C 395.600 23.870,395.420 23.600,395.200 23.600 C 394.980 23.600,394.800 23.240,394.800 22.800 C 394.800 22.360,394.620 22.000,394.400 22.000 C 394.180 22.000,394.000 21.668,394.000 21.262 C 394.000 20.856,393.640 20.198,393.200 19.800 C 392.760 19.402,392.400 18.874,392.400 18.626 C 392.400 18.379,392.040 17.917,391.600 17.600 C 391.160 17.283,390.800 16.801,390.800 16.529 C 390.800 15.884,384.116 9.200,383.471 9.200 C 383.199 9.200,382.717 8.840,382.400 8.400 C 382.083 7.960,381.522 7.600,381.154 7.600 C 380.787 7.600,380.391 7.353,380.275 7.052 C 380.050 6.466,376.191 4.400,375.321 4.400 C 375.035 4.400,374.800 4.220,374.800 4.000 C 374.800 3.780,374.530 3.600,374.200 3.600 C 373.870 3.600,373.600 3.440,373.600 3.245 C 373.600 3.050,373.015 2.774,372.300 2.631 C 369.198 2.010,368.800 1.893,368.800 1.598 C 368.800 0.504,355.747 -0.304,350.200 0.447 M244.400 64.800 C 244.400 65.020,244.940 65.200,245.600 65.200 C 246.260 65.200,246.800 65.020,246.800 64.800 C 246.800 64.580,246.260 64.400,245.600 64.400 C 244.940 64.400,244.400 64.580,244.400 64.800 M257.400 64.800 C 257.536 65.020,258.177 65.200,258.824 65.200 C 259.471 65.200,260.000 65.020,260.000 64.800 C 260.000 64.580,259.359 64.400,258.576 64.400 C 257.729 64.400,257.253 64.562,257.400 64.800 M240.400 65.600 C 240.400 65.820,240.850 66.000,241.400 66.000 C 241.950 66.000,242.400 65.820,242.400 65.600 C 242.400 65.380,241.950 65.200,241.400 65.200 C 240.850 65.200,240.400 65.380,240.400 65.600 M262.000 65.600 C 262.000 65.820,262.461 66.000,263.024 66.000 C 263.604 66.000,263.940 65.827,263.800 65.600 C 263.664 65.380,263.203 65.200,262.776 65.200 C 262.349 65.200,262.000 65.380,262.000 65.600 M238.000 66.400 C 238.000 66.620,238.270 66.800,238.600 66.800 C 238.930 66.800,239.200 66.620,239.200 66.400 C 239.200 66.180,238.930 66.000,238.600 66.000 C 238.270 66.000,238.000 66.180,238.000 66.400 M264.800 66.400 C 264.800 66.620,265.160 66.800,265.600 66.800 C 266.040 66.800,266.400 66.620,266.400 66.400 C 266.400 66.180,266.040 66.000,265.600 66.000 C 265.160 66.000,264.800 66.180,264.800 66.400 M235.600 67.200 C 235.600 67.420,235.960 67.600,236.400 67.600 C 236.840 67.600,237.200 67.420,237.200 67.200 C 237.200 66.980,236.840 66.800,236.400 66.800 C 235.960 66.800,235.600 66.980,235.600 67.200 M267.200 67.200 C 267.200 67.420,267.470 67.600,267.800 67.600 C 268.130 67.600,268.400 67.420,268.400 67.200 C 268.400 66.980,268.130 66.800,267.800 66.800 C 267.470 66.800,267.200 66.980,267.200 67.200 M226.800 71.800 C 226.395 72.288,226.415 72.400,226.908 72.400 C 227.242 72.400,227.618 72.130,227.745 71.800 C 227.871 71.470,227.823 71.200,227.636 71.200 C 227.450 71.200,227.074 71.470,226.800 71.800 M279.100 73.465 C 279.375 73.576,279.600 73.856,279.600 74.086 C 279.600 74.564,281.147 76.000,281.661 76.000 C 281.848 76.000,282.000 75.809,282.000 75.576 C 282.000 75.343,281.820 75.264,281.600 75.400 C 281.380 75.536,281.200 75.491,281.200 75.299 C 281.200 74.744,279.617 73.197,279.084 73.232 C 278.722 73.255,278.726 73.314,279.100 73.465 M222.800 74.944 C 222.800 75.331,222.620 75.536,222.400 75.400 C 222.180 75.264,222.000 75.343,222.000 75.576 C 222.000 76.096,222.410 76.108,223.197 75.611 C 223.672 75.310,223.692 75.132,223.297 74.737 C 222.901 74.341,222.800 74.383,222.800 74.944 M284.193 78.675 C 284.958 79.486,285.682 80.052,285.802 79.932 C 286.050 79.683,283.617 77.200,283.125 77.200 C 282.947 77.200,283.428 77.864,284.193 78.675 M219.762 77.938 C 219.933 78.215,219.787 78.400,219.400 78.400 C 219.044 78.400,218.864 78.580,219.000 78.800 C 219.136 79.020,219.397 79.200,219.581 79.200 C 220.130 79.200,220.400 78.047,219.921 77.751 C 219.652 77.585,219.589 77.659,219.762 77.938 M215.867 82.667 C 215.381 83.153,215.590 83.579,216.200 83.345 C 216.530 83.218,216.800 82.954,216.800 82.757 C 216.800 82.338,216.249 82.284,215.867 82.667 M211.200 91.776 C 211.200 92.093,211.380 92.464,211.600 92.600 C 211.820 92.736,212.000 92.477,212.000 92.024 C 212.000 91.571,211.820 91.200,211.600 91.200 C 211.380 91.200,211.200 91.459,211.200 91.776 M210.400 94.400 C 210.400 94.840,210.580 95.200,210.800 95.200 C 211.020 95.200,211.200 94.840,211.200 94.400 C 211.200 93.960,211.020 93.600,210.800 93.600 C 210.580 93.600,210.400 93.960,210.400 94.400 M293.200 94.376 C 293.200 94.829,293.380 95.200,293.600 95.200 C 293.820 95.200,294.000 94.941,294.000 94.624 C 294.000 94.307,293.820 93.936,293.600 93.800 C 293.380 93.664,293.200 93.923,293.200 94.376 M209.600 98.000 C 209.600 98.660,209.780 99.200,210.000 99.200 C 210.220 99.200,210.400 98.660,210.400 98.000 C 210.400 97.340,210.220 96.800,210.000 96.800 C 209.780 96.800,209.600 97.340,209.600 98.000 M294.000 98.000 C 294.000 98.660,294.180 99.200,294.400 99.200 C 294.620 99.200,294.800 98.660,294.800 98.000 C 294.800 97.340,294.620 96.800,294.400 96.800 C 294.180 96.800,294.000 97.340,294.000 98.000 M208.800 104.800 C 208.800 106.133,208.978 107.200,209.200 107.200 C 209.422 107.200,209.600 106.133,209.600 104.800 C 209.600 103.467,209.422 102.400,209.200 102.400 C 208.978 102.400,208.800 103.467,208.800 104.800 M294.800 104.800 C 294.800 106.330,294.950 107.155,295.200 107.000 C 295.420 106.864,295.600 105.874,295.600 104.800 C 295.600 103.726,295.420 102.736,295.200 102.600 C 294.950 102.445,294.800 103.270,294.800 104.800 M139.600 168.000 C 139.600 168.220,140.140 168.400,140.800 168.400 C 141.460 168.400,142.000 168.220,142.000 168.000 C 142.000 167.780,141.460 167.600,140.800 167.600 C 140.140 167.600,139.600 167.780,139.600 168.000 M152.800 168.000 C 152.800 168.220,153.441 168.400,154.224 168.400 C 155.071 168.400,155.547 168.238,155.400 168.000 C 155.264 167.780,154.623 167.600,153.976 167.600 C 153.329 167.600,152.800 167.780,152.800 168.000 M136.000 168.800 C 136.000 169.020,136.360 169.200,136.800 169.200 C 137.240 169.200,137.600 169.020,137.600 168.800 C 137.600 168.580,137.240 168.400,136.800 168.400 C 136.360 168.400,136.000 168.580,136.000 168.800 M157.200 168.800 C 157.200 169.020,157.560 169.200,158.000 169.200 C 158.440 169.200,158.800 169.020,158.800 168.800 C 158.800 168.580,158.440 168.400,158.000 168.400 C 157.560 168.400,157.200 168.580,157.200 168.800 M131.200 170.400 C 131.200 170.620,131.470 170.800,131.800 170.800 C 132.130 170.800,132.400 170.620,132.400 170.400 C 132.400 170.180,132.130 170.000,131.800 170.000 C 131.470 170.000,131.200 170.180,131.200 170.400 M116.095 180.282 C 114.938 181.515,114.070 182.603,114.166 182.700 C 114.350 182.884,118.800 178.571,118.800 178.209 C 118.800 177.637,118.009 178.243,116.095 180.282 M177.200 178.995 C 177.200 179.403,180.810 182.924,181.016 182.717 C 181.108 182.625,180.594 181.931,179.872 181.175 C 178.233 179.457,177.200 178.614,177.200 178.995 M110.000 187.800 C 110.000 188.130,110.180 188.400,110.400 188.400 C 110.620 188.400,110.800 188.130,110.800 187.800 C 110.800 187.470,110.620 187.200,110.400 187.200 C 110.180 187.200,110.000 187.470,110.000 187.800 M185.600 190.200 C 185.600 190.530,185.780 190.800,186.000 190.800 C 186.220 190.800,186.400 190.530,186.400 190.200 C 186.400 189.870,186.220 189.600,186.000 189.600 C 185.780 189.600,185.600 189.870,185.600 190.200 M186.400 191.800 C 186.400 192.130,186.580 192.400,186.800 192.400 C 187.020 192.400,187.200 192.130,187.200 191.800 C 187.200 191.470,187.020 191.200,186.800 191.200 C 186.580 191.200,186.400 191.470,186.400 191.800 M187.200 193.400 C 187.200 193.730,187.380 194.000,187.600 194.000 C 187.820 194.000,188.000 193.730,188.000 193.400 C 188.000 193.070,187.820 192.800,187.600 192.800 C 187.380 192.800,187.200 193.070,187.200 193.400 M188.800 198.200 C 188.800 198.530,188.980 198.800,189.200 198.800 C 189.420 198.800,189.600 198.530,189.600 198.200 C 189.600 197.870,189.420 197.600,189.200 197.600 C 188.980 197.600,188.800 197.870,188.800 198.200 M104.466 201.655 C 104.540 202.175,104.780 202.555,105.000 202.500 C 105.590 202.352,105.486 201.095,104.866 200.889 C 104.500 200.767,104.375 201.008,104.466 201.655 M189.600 201.800 C 189.600 202.350,189.780 202.800,190.000 202.800 C 190.220 202.800,190.400 202.350,190.400 201.800 C 190.400 201.250,190.220 200.800,190.000 200.800 C 189.780 200.800,189.600 201.250,189.600 201.800 M103.707 208.394 C 103.707 210.779,104.249 211.409,104.617 209.451 C 104.927 207.797,104.757 206.718,104.153 206.518 C 103.864 206.421,103.707 207.081,103.707 208.394 M190.400 208.600 C 190.400 209.810,190.580 210.800,190.800 210.800 C 191.020 210.800,191.200 209.810,191.200 208.600 C 191.200 207.390,191.020 206.400,190.800 206.400 C 190.580 206.400,190.400 207.390,190.400 208.600 M35.200 269.570 C 35.200 270.182,35.941 270.473,36.804 270.199 C 37.970 269.829,37.775 269.384,36.400 269.279 C 35.740 269.228,35.200 269.360,35.200 269.570 M48.400 269.658 C 48.400 270.079,49.924 270.494,50.396 270.202 C 51.209 269.700,50.768 269.190,49.600 269.279 C 48.940 269.329,48.400 269.500,48.400 269.658 M31.826 270.358 C 31.704 270.555,31.868 270.817,32.189 270.941 C 32.815 271.180,33.348 270.682,32.922 270.256 C 32.561 269.894,32.085 269.939,31.826 270.358 M53.078 270.256 C 52.606 270.728,53.192 271.127,54.034 270.907 C 54.668 270.741,54.740 270.608,54.334 270.351 C 53.687 269.941,53.413 269.920,53.078 270.256 M28.800 271.200 C 28.800 271.420,29.070 271.600,29.400 271.600 C 29.730 271.600,30.000 271.420,30.000 271.200 C 30.000 270.980,29.730 270.800,29.400 270.800 C 29.070 270.800,28.800 270.980,28.800 271.200 M56.000 271.200 C 56.000 271.420,56.270 271.600,56.600 271.600 C 56.930 271.600,57.200 271.420,57.200 271.200 C 57.200 270.980,56.930 270.800,56.600 270.800 C 56.270 270.800,56.000 270.980,56.000 271.200 M26.600 272.000 C 26.464 272.220,26.734 272.400,27.200 272.400 C 27.666 272.400,27.936 272.220,27.800 272.000 C 27.664 271.780,27.394 271.600,27.200 271.600 C 27.006 271.600,26.736 271.780,26.600 272.000 M12.629 281.429 C 10.709 283.322,9.229 284.962,9.339 285.072 C 9.449 285.182,11.099 283.712,13.006 281.806 C 14.912 279.899,16.393 278.259,16.296 278.162 C 16.198 278.065,14.548 279.535,12.629 281.429 M70.000 278.583 C 70.000 278.975,76.462 285.272,76.661 285.073 C 76.777 284.956,75.424 283.407,73.655 281.631 C 70.700 278.664,70.000 278.080,70.000 278.583 M2.000 297.000 C 2.000 297.330,2.180 297.600,2.400 297.600 C 2.620 297.600,2.800 297.330,2.800 297.000 C 2.800 296.670,2.620 296.400,2.400 296.400 C 2.180 296.400,2.000 296.670,2.000 297.000 M83.200 297.000 C 83.200 297.330,83.380 297.600,83.600 297.600 C 83.820 297.600,84.000 297.330,84.000 297.000 C 84.000 296.670,83.820 296.400,83.600 296.400 C 83.380 296.400,83.200 296.670,83.200 297.000 M1.200 299.376 C 1.200 299.939,1.380 300.400,1.600 300.400 C 1.820 300.400,2.000 300.051,2.000 299.624 C 2.000 299.197,1.820 298.736,1.600 298.600 C 1.373 298.460,1.200 298.796,1.200 299.376 M84.000 299.400 C 84.000 299.950,84.180 300.400,84.400 300.400 C 84.620 300.400,84.800 299.950,84.800 299.400 C 84.800 298.850,84.620 298.400,84.400 298.400 C 84.180 298.400,84.000 298.850,84.000 299.400 M0.667 301.867 C 0.248 302.285,0.355 304.000,0.800 304.000 C 1.020 304.000,1.200 303.460,1.200 302.800 C 1.200 301.557,1.119 301.415,0.667 301.867 M84.800 302.776 C 84.800 303.449,84.980 304.000,85.200 304.000 C 85.420 304.000,85.600 303.561,85.600 303.024 C 85.600 302.487,85.420 301.936,85.200 301.800 C 84.967 301.656,84.800 302.063,84.800 302.776 M0.131 309.800 C 0.133 311.340,0.205 311.921,0.292 311.091 C 0.379 310.261,0.377 309.001,0.289 308.291 C 0.200 307.581,0.129 308.260,0.131 309.800 M85.600 309.800 C 85.600 311.463,85.749 312.355,86.000 312.200 C 86.220 312.064,86.400 310.984,86.400 309.800 C 86.400 308.616,86.220 307.536,86.000 307.400 C 85.749 307.245,85.600 308.137,85.600 309.800 M103.955 432.200 C 103.543 432.964,103.547 435.920,103.961 436.176 C 104.580 436.558,104.954 434.535,104.535 433.073 C 104.335 432.374,104.073 431.981,103.955 432.200 M190.400 434.200 C 190.400 435.410,190.580 436.400,190.800 436.400 C 191.020 436.400,191.200 435.410,191.200 434.200 C 191.200 432.990,191.020 432.000,190.800 432.000 C 190.580 432.000,190.400 432.990,190.400 434.200 M0.128 434.800 C 0.128 436.230,0.201 436.815,0.289 436.100 C 0.378 435.385,0.378 434.215,0.289 433.500 C 0.201 432.785,0.128 433.370,0.128 434.800 M85.600 434.800 C 85.600 436.133,85.778 437.200,86.000 437.200 C 86.222 437.200,86.400 436.133,86.400 434.800 C 86.400 433.467,86.222 432.400,86.000 432.400 C 85.778 432.400,85.600 433.467,85.600 434.800 M208.800 434.800 C 208.800 436.133,208.978 437.200,209.200 437.200 C 209.422 437.200,209.600 436.133,209.600 434.800 C 209.600 433.467,209.422 432.400,209.200 432.400 C 208.978 432.400,208.800 433.467,208.800 434.800 M294.800 434.800 C 294.800 436.330,294.950 437.155,295.200 437.000 C 295.420 436.864,295.600 435.874,295.600 434.800 C 295.600 433.726,295.420 432.736,295.200 432.600 C 294.950 432.445,294.800 433.270,294.800 434.800 M104.673 440.260 C 104.247 440.686,104.352 442.000,104.813 442.000 C 105.404 442.000,105.776 440.816,105.326 440.366 C 105.118 440.158,104.824 440.110,104.673 440.260 M189.600 441.000 C 189.600 441.550,189.780 442.000,190.000 442.000 C 190.220 442.000,190.400 441.550,190.400 441.000 C 190.400 440.450,190.220 440.000,190.000 440.000 C 189.780 440.000,189.600 440.450,189.600 441.000 M0.400 441.600 C 0.400 442.260,0.580 442.800,0.800 442.800 C 1.020 442.800,1.200 442.260,1.200 441.600 C 1.200 440.940,1.020 440.400,0.800 440.400 C 0.580 440.400,0.400 440.940,0.400 441.600 M84.800 441.600 C 84.800 442.260,84.980 442.800,85.200 442.800 C 85.420 442.800,85.600 442.260,85.600 441.600 C 85.600 440.940,85.420 440.400,85.200 440.400 C 84.980 440.400,84.800 440.940,84.800 441.600 M209.600 441.600 C 209.600 442.260,209.780 442.800,210.000 442.800 C 210.220 442.800,210.400 442.260,210.400 441.600 C 210.400 440.940,210.220 440.400,210.000 440.400 C 209.780 440.400,209.600 440.940,209.600 441.600 M294.000 441.624 C 294.000 442.337,294.167 442.744,294.400 442.600 C 294.620 442.464,294.800 441.913,294.800 441.376 C 294.800 440.839,294.620 440.400,294.400 440.400 C 294.180 440.400,294.000 440.951,294.000 441.624 M188.800 444.600 C 188.800 444.930,188.980 445.200,189.200 445.200 C 189.420 445.200,189.600 444.930,189.600 444.600 C 189.600 444.270,189.420 444.000,189.200 444.000 C 188.980 444.000,188.800 444.270,188.800 444.600 M1.200 445.200 C 1.200 445.640,1.380 446.000,1.600 446.000 C 1.820 446.000,2.000 445.640,2.000 445.200 C 2.000 444.760,1.820 444.400,1.600 444.400 C 1.380 444.400,1.200 444.760,1.200 445.200 M84.000 445.224 C 84.000 445.677,84.180 445.936,84.400 445.800 C 84.620 445.664,84.800 445.293,84.800 444.976 C 84.800 444.659,84.620 444.400,84.400 444.400 C 84.180 444.400,84.000 444.771,84.000 445.224 M210.400 445.200 C 210.400 445.640,210.580 446.000,210.800 446.000 C 211.020 446.000,211.200 445.640,211.200 445.200 C 211.200 444.760,211.020 444.400,210.800 444.400 C 210.580 444.400,210.400 444.760,210.400 445.200 M293.200 445.200 C 293.200 445.640,293.380 446.000,293.600 446.000 C 293.820 446.000,294.000 445.640,294.000 445.200 C 294.000 444.760,293.820 444.400,293.600 444.400 C 293.380 444.400,293.200 444.760,293.200 445.200 M2.000 447.600 C 2.000 448.040,2.180 448.400,2.400 448.400 C 2.620 448.400,2.800 448.040,2.800 447.600 C 2.800 447.160,2.620 446.800,2.400 446.800 C 2.180 446.800,2.000 447.160,2.000 447.600 M83.200 447.353 C 83.200 447.683,83.380 448.064,83.600 448.200 C 83.820 448.336,84.000 448.177,84.000 447.847 C 84.000 447.517,83.820 447.136,83.600 447.000 C 83.380 446.864,83.200 447.023,83.200 447.353 M211.200 447.600 C 211.200 448.040,211.380 448.400,211.600 448.400 C 211.820 448.400,212.000 448.040,212.000 447.600 C 212.000 447.160,211.820 446.800,211.600 446.800 C 211.380 446.800,211.200 447.160,211.200 447.600 M2.800 449.400 C 2.800 449.730,2.980 450.000,3.200 450.000 C 3.420 450.000,3.600 449.730,3.600 449.400 C 3.600 449.070,3.420 448.800,3.200 448.800 C 2.980 448.800,2.800 449.070,2.800 449.400 M187.200 449.400 C 187.200 449.730,187.380 450.000,187.600 450.000 C 187.820 450.000,188.000 449.730,188.000 449.400 C 188.000 449.070,187.820 448.800,187.600 448.800 C 187.380 448.800,187.200 449.070,187.200 449.400 M212.000 449.400 C 212.000 449.730,212.180 450.000,212.400 450.000 C 212.620 450.000,212.800 449.730,212.800 449.400 C 212.800 449.070,212.620 448.800,212.400 448.800 C 212.180 448.800,212.000 449.070,212.000 449.400 M186.400 451.000 C 186.400 451.330,186.580 451.600,186.800 451.600 C 187.020 451.600,187.200 451.330,187.200 451.000 C 187.200 450.670,187.020 450.400,186.800 450.400 C 186.580 450.400,186.400 450.670,186.400 451.000 M185.600 452.600 C 185.600 452.930,185.780 453.200,186.000 453.200 C 186.220 453.200,186.400 452.930,186.400 452.600 C 186.400 452.270,186.220 452.000,186.000 452.000 C 185.780 452.000,185.600 452.270,185.600 452.600 M214.400 454.200 C 214.400 454.530,214.580 454.800,214.800 454.800 C 215.020 454.800,215.200 454.530,215.200 454.200 C 215.200 453.870,215.020 453.600,214.800 453.600 C 214.580 453.600,214.400 453.870,214.400 454.200 M6.800 456.600 C 6.800 456.930,6.980 457.200,7.200 457.200 C 7.420 457.200,7.600 456.930,7.600 456.600 C 7.600 456.270,7.420 456.000,7.200 456.000 C 6.980 456.000,6.800 456.270,6.800 456.600 M78.400 456.600 C 78.400 456.930,78.580 457.200,78.800 457.200 C 79.020 457.200,79.200 456.930,79.200 456.600 C 79.200 456.270,79.020 456.000,78.800 456.000 C 78.580 456.000,78.400 456.270,78.400 456.600 M215.600 456.151 C 215.600 456.234,215.870 456.526,216.200 456.800 C 216.691 457.208,216.800 457.180,216.800 456.649 C 216.800 456.292,216.530 456.000,216.200 456.000 C 215.870 456.000,215.600 456.068,215.600 456.151 M12.201 462.632 C 14.329 464.739,16.154 466.380,16.256 466.277 C 16.520 466.013,9.297 458.800,8.769 458.800 C 8.528 458.800,10.073 460.524,12.201 462.632 M282.374 462.425 C 280.363 464.419,278.799 466.132,278.898 466.231 C 279.086 466.420,286.400 459.380,286.400 459.011 C 286.400 458.515,285.839 458.991,282.374 462.425 M73.264 462.261 C 71.649 463.911,70.426 465.359,70.546 465.480 C 70.767 465.700,76.800 459.866,76.800 459.432 C 76.800 458.831,75.976 459.490,73.264 462.261 M218.400 459.494 C 218.400 460.070,220.057 461.676,220.350 461.384 C 220.464 461.269,220.072 460.690,219.479 460.097 C 218.885 459.504,218.400 459.232,218.400 459.494 M114.000 460.209 C 114.000 460.612,118.460 464.873,118.667 464.667 C 118.781 464.552,117.872 463.455,116.646 462.229 C 114.549 460.132,114.000 459.713,114.000 460.209 M178.862 461.858 C 177.906 462.848,177.218 463.751,177.333 463.866 C 177.523 464.057,179.406 462.293,180.749 460.665 C 181.903 459.267,180.520 460.141,178.862 461.858 M221.600 462.744 C 221.600 463.289,223.984 465.749,224.252 465.482 C 224.377 465.356,223.832 464.605,223.040 463.813 C 222.248 463.021,221.600 462.540,221.600 462.744 M17.600 467.600 C 17.600 467.820,17.870 468.000,18.200 468.000 C 18.530 468.000,18.800 467.820,18.800 467.600 C 18.800 467.380,18.530 467.200,18.200 467.200 C 17.870 467.200,17.600 467.380,17.600 467.600 M20.000 469.200 C 20.000 469.420,20.270 469.600,20.600 469.600 C 20.930 469.600,21.200 469.420,21.200 469.200 C 21.200 468.980,20.930 468.800,20.600 468.800 C 20.270 468.800,20.000 468.980,20.000 469.200 M63.200 470.000 C 63.200 470.220,63.470 470.400,63.800 470.400 C 64.130 470.400,64.400 470.220,64.400 470.000 C 64.400 469.780,64.130 469.600,63.800 469.600 C 63.470 469.600,63.200 469.780,63.200 470.000 M23.200 470.800 C 23.200 471.020,23.470 471.200,23.800 471.200 C 24.130 471.200,24.400 471.020,24.400 470.800 C 24.400 470.580,24.130 470.400,23.800 470.400 C 23.470 470.400,23.200 470.580,23.200 470.800 M24.800 471.600 C 24.800 471.820,25.070 472.000,25.400 472.000 C 25.730 472.000,26.000 471.820,26.000 471.600 C 26.000 471.380,25.730 471.200,25.400 471.200 C 25.070 471.200,24.800 471.380,24.800 471.600 M60.000 471.600 C 60.000 471.820,60.270 472.000,60.600 472.000 C 60.930 472.000,61.200 471.820,61.200 471.600 C 61.200 471.380,60.930 471.200,60.600 471.200 C 60.270 471.200,60.000 471.380,60.000 471.600 M26.400 472.400 C 26.400 472.620,26.659 472.800,26.976 472.800 C 27.293 472.800,27.664 472.620,27.800 472.400 C 27.936 472.180,27.677 472.000,27.224 472.000 C 26.771 472.000,26.400 472.180,26.400 472.400 M58.200 472.400 C 58.336 472.620,58.707 472.800,59.024 472.800 C 59.341 472.800,59.600 472.620,59.600 472.400 C 59.600 472.180,59.229 472.000,58.776 472.000 C 58.323 472.000,58.064 472.180,58.200 472.400 M131.200 472.400 C 131.200 472.620,131.470 472.800,131.800 472.800 C 132.130 472.800,132.400 472.620,132.400 472.400 C 132.400 472.180,132.130 472.000,131.800 472.000 C 131.470 472.000,131.200 472.180,131.200 472.400 M235.600 472.400 C 235.600 472.620,235.960 472.800,236.400 472.800 C 236.840 472.800,237.200 472.620,237.200 472.400 C 237.200 472.180,236.840 472.000,236.400 472.000 C 235.960 472.000,235.600 472.180,235.600 472.400 M267.200 472.400 C 267.200 472.620,267.470 472.800,267.800 472.800 C 268.130 472.800,268.400 472.620,268.400 472.400 C 268.400 472.180,268.130 472.000,267.800 472.000 C 267.470 472.000,267.200 472.180,267.200 472.400 M28.800 473.200 C 28.800 473.420,29.070 473.600,29.400 473.600 C 29.730 473.600,30.000 473.420,30.000 473.200 C 30.000 472.980,29.730 472.800,29.400 472.800 C 29.070 472.800,28.800 472.980,28.800 473.200 M56.000 473.200 C 56.000 473.420,56.270 473.600,56.600 473.600 C 56.930 473.600,57.200 473.420,57.200 473.200 C 57.200 472.980,56.930 472.800,56.600 472.800 C 56.270 472.800,56.000 472.980,56.000 473.200 M238.000 473.200 C 238.000 473.420,238.270 473.600,238.600 473.600 C 238.930 473.600,239.200 473.420,239.200 473.200 C 239.200 472.980,238.930 472.800,238.600 472.800 C 238.270 472.800,238.000 472.980,238.000 473.200 M264.800 473.200 C 264.800 473.420,265.160 473.600,265.600 473.600 C 266.040 473.600,266.400 473.420,266.400 473.200 C 266.400 472.980,266.040 472.800,265.600 472.800 C 265.160 472.800,264.800 472.980,264.800 473.200 M31.200 474.000 C 31.200 474.220,31.650 474.400,32.200 474.400 C 32.750 474.400,33.200 474.220,33.200 474.000 C 33.200 473.780,32.750 473.600,32.200 473.600 C 31.650 473.600,31.200 473.780,31.200 474.000 M52.800 473.996 C 52.800 474.213,53.250 474.354,53.800 474.308 C 54.350 474.263,54.800 474.085,54.800 473.913 C 54.800 473.741,54.350 473.600,53.800 473.600 C 53.250 473.600,52.800 473.778,52.800 473.996 M136.000 474.000 C 136.000 474.220,136.360 474.400,136.800 474.400 C 137.240 474.400,137.600 474.220,137.600 474.000 C 137.600 473.780,137.240 473.600,136.800 473.600 C 136.360 473.600,136.000 473.780,136.000 474.000 M157.200 474.000 C 157.200 474.220,157.560 474.400,158.000 474.400 C 158.440 474.400,158.800 474.220,158.800 474.000 C 158.800 473.780,158.440 473.600,158.000 473.600 C 157.560 473.600,157.200 473.780,157.200 474.000 M240.600 474.000 C 240.736 474.220,241.197 474.400,241.624 474.400 C 242.051 474.400,242.400 474.220,242.400 474.000 C 242.400 473.780,241.939 473.600,241.376 473.600 C 240.796 473.600,240.460 473.773,240.600 474.000 M262.000 474.000 C 262.000 474.220,262.349 474.400,262.776 474.400 C 263.203 474.400,263.664 474.220,263.800 474.000 C 263.940 473.773,263.604 473.600,263.024 473.600 C 262.461 473.600,262.000 473.780,262.000 474.000 M35.700 474.676 C 36.085 474.776,36.715 474.776,37.100 474.676 C 37.485 474.575,37.170 474.493,36.400 474.493 C 35.630 474.493,35.315 474.575,35.700 474.676 M48.900 474.676 C 49.285 474.776,49.915 474.776,50.300 474.676 C 50.685 474.575,50.370 474.493,49.600 474.493 C 48.830 474.493,48.515 474.575,48.900 474.676 M139.905 474.683 C 140.402 474.779,141.122 474.775,141.505 474.675 C 141.887 474.575,141.480 474.496,140.600 474.501 C 139.720 474.505,139.407 474.587,139.905 474.683 M153.505 474.683 C 154.002 474.779,154.722 474.775,155.105 474.675 C 155.487 474.575,155.080 474.496,154.200 474.501 C 153.320 474.505,153.007 474.587,153.505 474.683 M244.705 474.683 C 245.202 474.779,245.922 474.775,246.305 474.675 C 246.687 474.575,246.280 474.496,245.400 474.501 C 244.520 474.505,244.207 474.587,244.705 474.683 M258.100 474.676 C 258.485 474.776,259.115 474.776,259.500 474.676 C 259.885 474.575,259.570 474.493,258.800 474.493 C 258.030 474.493,257.715 474.575,258.100 474.676 " stroke="none" fill="#d4d4d4" fill-rule="evenodd"></path>
    <path id="path1" d="M246.800 64.793 C 246.800 65.009,245.863 65.164,244.718 65.139 C 243.481 65.111,242.575 65.276,242.485 65.546 C 242.401 65.796,241.628 66.000,240.767 66.000 C 239.905 66.000,239.200 66.180,239.200 66.400 C 239.200 66.620,238.750 66.800,238.200 66.800 C 237.650 66.800,237.200 66.980,237.200 67.200 C 237.200 67.420,236.660 67.600,236.000 67.600 C 235.340 67.600,234.800 67.780,234.800 68.000 C 234.800 68.220,234.440 68.400,234.000 68.400 C 233.560 68.400,233.200 68.580,233.200 68.800 C 233.200 69.020,232.840 69.200,232.400 69.200 C 231.960 69.200,231.600 69.380,231.600 69.600 C 231.600 69.820,231.240 70.000,230.800 70.000 C 230.360 70.000,230.000 70.180,230.000 70.400 C 230.000 70.620,229.650 70.800,229.223 70.800 C 228.795 70.800,228.179 71.180,227.854 71.644 C 227.529 72.108,227.041 72.414,226.770 72.323 C 226.226 72.142,224.400 73.788,224.400 74.461 C 224.400 74.695,224.139 74.786,223.820 74.663 C 223.412 74.507,223.314 74.633,223.490 75.090 C 223.685 75.597,223.574 75.676,222.982 75.448 C 222.565 75.288,222.353 75.286,222.510 75.443 C 222.667 75.600,222.391 75.939,221.898 76.197 C 221.404 76.455,221.049 76.889,221.110 77.162 C 221.170 77.436,221.056 77.558,220.855 77.434 C 220.655 77.310,220.245 77.511,219.945 77.881 C 219.580 78.332,219.563 78.455,219.895 78.256 C 220.236 78.052,220.314 78.160,220.144 78.602 C 220.008 78.956,219.659 79.155,219.369 79.043 C 219.033 78.915,218.922 79.052,219.063 79.420 C 219.186 79.739,219.095 80.000,218.861 80.000 C 218.195 80.000,216.357 82.007,216.626 82.442 C 216.759 82.657,216.410 83.192,215.852 83.631 C 215.259 84.097,214.930 84.673,215.061 85.015 C 215.185 85.337,215.086 85.600,214.843 85.600 C 214.599 85.600,214.400 85.960,214.400 86.400 C 214.400 86.840,214.220 87.200,214.000 87.200 C 213.780 87.200,213.600 87.560,213.600 88.000 C 213.600 88.440,213.420 88.800,213.200 88.800 C 212.980 88.800,212.800 89.160,212.800 89.600 C 212.800 90.040,212.620 90.400,212.400 90.400 C 212.180 90.400,212.000 90.951,212.000 91.624 C 212.000 92.337,211.833 92.744,211.600 92.600 C 211.362 92.453,211.200 92.929,211.200 93.776 C 211.200 94.559,211.020 95.200,210.800 95.200 C 210.580 95.200,210.400 96.085,210.400 97.167 C 210.400 98.248,210.205 99.198,209.966 99.278 C 209.691 99.370,209.544 100.846,209.564 103.311 C 209.582 105.642,209.436 107.200,209.197 107.200 C 208.935 107.200,208.800 162.350,208.800 269.800 C 208.800 377.933,208.934 432.400,209.200 432.400 C 209.440 432.400,209.600 434.000,209.600 436.400 C 209.600 438.800,209.760 440.400,210.000 440.400 C 210.220 440.400,210.400 441.300,210.400 442.400 C 210.400 443.500,210.580 444.400,210.800 444.400 C 211.020 444.400,211.200 444.940,211.200 445.600 C 211.200 446.260,211.380 446.800,211.600 446.800 C 211.820 446.800,212.000 447.250,212.000 447.800 C 212.000 448.350,212.180 448.800,212.400 448.800 C 212.620 448.800,212.800 449.250,212.800 449.800 C 212.800 450.350,212.946 450.800,213.125 450.800 C 213.304 450.800,213.698 451.430,214.000 452.200 C 214.302 452.970,214.707 453.600,214.900 453.600 C 215.093 453.600,215.194 454.005,215.125 454.500 C 215.039 455.122,215.278 455.522,215.900 455.795 C 216.395 456.012,216.800 456.439,216.800 456.744 C 216.800 457.214,216.699 457.215,216.131 456.749 C 215.763 456.447,216.143 457.100,216.975 458.200 C 218.879 460.716,218.901 460.738,218.557 459.788 C 218.307 459.097,218.403 459.119,219.336 459.970 C 219.921 460.503,220.403 461.313,220.406 461.770 C 220.411 462.452,220.481 462.493,220.800 462.000 C 221.109 461.522,221.195 461.603,221.225 462.400 C 221.246 462.950,221.352 463.182,221.460 462.915 C 221.680 462.372,224.069 464.560,224.510 465.709 C 224.656 466.089,225.051 466.400,225.387 466.400 C 225.724 466.400,226.000 466.580,226.000 466.800 C 226.000 467.020,226.320 467.200,226.712 467.200 C 227.103 467.200,227.683 467.560,228.000 468.000 C 228.317 468.440,228.897 468.800,229.288 468.800 C 229.680 468.800,230.000 468.980,230.000 469.200 C 230.000 469.420,230.360 469.600,230.800 469.600 C 231.240 469.600,231.600 469.780,231.600 470.000 C 231.600 470.220,231.960 470.400,232.400 470.400 C 232.840 470.400,233.200 470.580,233.200 470.800 C 233.200 471.020,233.560 471.200,234.000 471.200 C 234.440 471.200,234.800 471.380,234.800 471.600 C 234.800 471.820,235.340 472.000,236.000 472.000 C 236.660 472.000,237.200 472.180,237.200 472.400 C 237.200 472.620,237.650 472.800,238.200 472.800 C 238.750 472.800,239.200 472.980,239.200 473.200 C 239.200 473.420,239.905 473.600,240.767 473.600 C 241.664 473.600,242.404 473.813,242.500 474.100 C 242.627 474.481,244.929 474.600,252.200 474.600 C 259.471 474.600,261.773 474.481,261.900 474.100 C 261.992 473.825,262.682 473.600,263.433 473.600 C 264.185 473.600,264.800 473.420,264.800 473.200 C 264.800 472.980,265.340 472.800,266.000 472.800 C 266.660 472.800,267.200 472.620,267.200 472.400 C 267.200 472.180,267.650 472.000,268.200 472.000 C 268.750 472.000,269.200 471.820,269.200 471.600 C 269.200 471.380,269.560 471.200,270.000 471.200 C 270.440 471.200,270.800 471.020,270.800 470.800 C 270.800 470.580,271.160 470.400,271.600 470.400 C 272.040 470.400,272.400 470.220,272.400 470.000 C 272.400 469.780,272.760 469.600,273.200 469.600 C 273.640 469.600,274.000 469.420,274.000 469.200 C 274.000 468.980,274.320 468.800,274.712 468.800 C 275.103 468.800,275.683 468.440,276.000 468.000 C 276.317 467.560,276.809 467.200,277.093 467.200 C 277.377 467.200,279.469 465.355,281.741 463.100 C 284.014 460.845,286.262 458.735,286.737 458.412 C 287.212 458.088,287.600 457.425,287.600 456.939 C 287.600 456.405,287.918 455.953,288.400 455.800 C 288.918 455.636,289.200 455.195,289.200 454.549 C 289.200 453.987,289.374 453.660,289.600 453.800 C 289.820 453.936,290.000 453.677,290.000 453.224 C 290.000 452.771,290.180 452.400,290.400 452.400 C 290.620 452.400,290.800 452.040,290.800 451.600 C 290.800 451.160,290.980 450.800,291.200 450.800 C 291.420 450.800,291.600 450.339,291.600 449.776 C 291.600 449.196,291.773 448.860,292.000 449.000 C 292.236 449.146,292.403 448.703,292.406 447.924 C 292.411 446.922,292.507 446.746,292.800 447.200 C 293.084 447.639,293.189 447.345,293.194 446.100 C 293.197 445.165,293.380 444.400,293.600 444.400 C 293.820 444.400,294.000 443.500,294.000 442.400 C 294.000 441.300,294.180 440.400,294.400 440.400 C 294.640 440.400,294.800 438.792,294.800 436.376 C 294.800 433.796,294.943 432.441,295.200 432.600 C 295.466 432.765,295.600 378.396,295.600 269.800 C 295.600 161.204,295.466 106.835,295.200 107.000 C 294.943 107.159,294.800 105.804,294.800 103.224 C 294.800 100.808,294.640 99.200,294.400 99.200 C 294.180 99.200,294.000 98.300,294.000 97.200 C 294.000 96.100,293.820 95.200,293.600 95.200 C 293.380 95.200,293.200 94.469,293.200 93.576 C 293.200 92.596,293.042 92.051,292.800 92.200 C 292.573 92.340,292.400 92.004,292.400 91.424 C 292.400 90.861,292.220 90.400,292.000 90.400 C 291.780 90.400,291.600 90.040,291.600 89.600 C 291.600 89.160,291.420 88.800,291.200 88.800 C 290.980 88.800,290.800 88.440,290.800 88.000 C 290.800 87.560,290.620 87.200,290.400 87.200 C 290.180 87.200,290.000 86.840,290.000 86.400 C 290.000 85.960,289.820 85.600,289.600 85.600 C 289.380 85.600,289.200 85.280,289.200 84.888 C 289.200 84.497,288.840 83.917,288.400 83.600 C 287.960 83.283,287.600 82.703,287.600 82.312 C 287.600 81.920,287.420 81.600,287.200 81.600 C 286.980 81.600,286.800 81.324,286.800 80.987 C 286.800 80.651,286.485 80.263,286.100 80.127 C 285.216 79.814,282.653 77.200,283.229 77.200 C 283.465 77.200,283.387 76.930,283.057 76.600 C 282.727 76.270,282.164 76.000,281.805 76.000 C 281.414 76.000,281.267 75.815,281.438 75.538 C 281.616 75.251,281.548 75.185,281.259 75.364 C 280.815 75.638,279.600 74.767,279.600 74.175 C 279.600 73.603,277.462 72.078,276.940 72.278 C 276.643 72.392,276.400 72.279,276.400 72.026 C 276.400 71.246,275.460 70.511,274.712 70.707 C 274.320 70.810,274.000 70.692,274.000 70.447 C 274.000 70.201,273.640 70.000,273.200 70.000 C 272.760 70.000,272.400 69.820,272.400 69.600 C 272.400 69.380,272.040 69.200,271.600 69.200 C 271.160 69.200,270.800 69.020,270.800 68.800 C 270.800 68.580,270.459 68.400,270.043 68.400 C 269.626 68.400,269.187 68.144,269.067 67.831 C 268.934 67.483,268.529 67.346,268.024 67.478 C 267.555 67.600,267.200 67.501,267.200 67.247 C 267.200 67.001,266.660 66.800,266.000 66.800 C 265.340 66.800,264.800 66.620,264.800 66.400 C 264.800 66.180,264.170 66.000,263.400 66.000 C 262.630 66.000,262.000 65.820,262.000 65.600 C 262.000 65.380,261.021 65.200,259.824 65.200 C 258.627 65.200,257.536 65.020,257.400 64.800 C 257.072 64.270,246.800 64.263,246.800 64.793 M142.000 167.993 C 142.000 168.209,141.063 168.364,139.918 168.339 C 138.681 168.311,137.775 168.476,137.685 168.746 C 137.601 168.996,136.918 169.200,136.167 169.200 C 135.415 169.200,134.800 169.380,134.800 169.600 C 134.800 169.820,134.260 170.000,133.600 170.000 C 132.940 170.000,132.400 170.180,132.400 170.400 C 132.400 170.620,131.860 170.800,131.200 170.800 C 130.540 170.800,130.000 170.980,130.000 171.200 C 130.000 171.420,129.640 171.600,129.200 171.600 C 128.760 171.600,128.400 171.780,128.400 172.000 C 128.400 172.220,128.040 172.400,127.600 172.400 C 127.160 172.400,126.800 172.580,126.800 172.800 C 126.800 173.020,126.480 173.200,126.088 173.200 C 125.697 173.200,125.117 173.560,124.800 174.000 C 124.483 174.440,123.943 174.800,123.600 174.800 C 123.257 174.800,122.717 175.160,122.400 175.600 C 122.083 176.040,121.591 176.400,121.306 176.400 C 121.021 176.400,119.259 177.930,117.389 179.800 C 115.519 181.670,113.811 183.200,113.594 183.200 C 113.377 183.200,113.200 183.470,113.200 183.800 C 113.200 184.130,113.020 184.400,112.800 184.400 C 112.580 184.400,112.400 184.748,112.400 185.173 C 112.400 185.598,112.040 186.060,111.600 186.200 C 111.097 186.360,110.800 186.805,110.800 187.400 C 110.800 187.950,110.507 188.439,110.099 188.569 C 109.713 188.691,109.160 189.172,108.869 189.637 C 108.579 190.103,108.534 190.364,108.770 190.218 C 109.007 190.072,109.200 190.143,109.200 190.376 C 109.200 190.609,109.020 190.800,108.800 190.800 C 108.580 190.800,108.400 191.141,108.400 191.557 C 108.400 191.974,108.133 192.417,107.807 192.542 C 107.469 192.672,107.315 193.035,107.450 193.385 C 107.583 193.732,107.472 194.000,107.196 194.000 C 106.890 194.000,106.778 194.374,106.898 195.000 C 107.030 195.691,106.912 196.000,106.514 196.000 C 106.137 196.000,105.965 196.377,106.012 197.100 C 106.121 198.749,105.985 199.090,105.575 198.200 C 105.315 197.635,105.235 198.163,105.303 200.000 C 105.380 202.055,105.283 202.575,104.839 202.480 C 104.378 202.381,104.324 202.949,104.531 205.680 C 104.792 209.105,104.573 210.954,103.955 210.572 C 103.749 210.445,103.600 256.967,103.600 321.400 C 103.600 385.833,103.749 432.355,103.955 432.228 C 104.563 431.852,104.763 433.577,104.516 437.074 C 104.321 439.839,104.378 440.419,104.839 440.320 C 105.278 440.226,105.370 440.661,105.262 442.313 C 105.159 443.900,105.255 444.397,105.649 444.313 C 106.016 444.234,106.139 444.593,106.057 445.500 C 105.975 446.404,106.110 446.800,106.501 446.800 C 106.902 446.800,107.009 447.158,106.877 448.057 C 106.749 448.927,106.832 449.227,107.146 449.033 C 107.428 448.859,107.600 449.064,107.600 449.576 C 107.600 450.029,107.780 450.400,108.000 450.400 C 108.220 450.400,108.400 450.760,108.400 451.200 C 108.400 451.640,108.580 452.000,108.800 452.000 C 109.020 452.000,109.200 452.438,109.200 452.973 C 109.200 453.595,109.489 454.038,110.000 454.200 C 110.503 454.360,110.800 454.805,110.800 455.400 C 110.800 455.995,111.097 456.440,111.600 456.600 C 112.451 456.870,112.706 457.600,111.950 457.600 C 111.702 457.600,112.074 458.095,112.775 458.700 C 113.477 459.305,115.567 461.285,117.420 463.100 C 119.273 464.915,121.021 466.400,121.306 466.400 C 121.591 466.400,122.083 466.760,122.400 467.200 C 122.717 467.640,123.257 468.000,123.600 468.000 C 123.943 468.000,124.483 468.360,124.800 468.800 C 125.117 469.240,125.697 469.600,126.088 469.600 C 126.480 469.600,126.800 469.780,126.800 470.000 C 126.800 470.220,127.160 470.400,127.600 470.400 C 128.040 470.400,128.400 470.580,128.400 470.800 C 128.400 471.020,128.760 471.200,129.200 471.200 C 129.640 471.200,130.000 471.380,130.000 471.600 C 130.000 471.820,130.540 472.000,131.200 472.000 C 131.860 472.000,132.400 472.180,132.400 472.400 C 132.400 472.620,132.670 472.800,133.000 472.800 C 133.330 472.800,133.603 473.025,133.606 473.300 C 133.610 473.639,133.749 473.607,134.037 473.200 C 134.356 472.748,134.511 472.724,134.664 473.100 C 134.775 473.375,135.467 473.600,136.200 473.600 C 136.933 473.600,137.608 473.825,137.700 474.100 C 137.827 474.481,140.129 474.600,147.400 474.600 C 154.671 474.600,156.973 474.481,157.100 474.100 C 157.196 473.813,157.936 473.600,158.833 473.600 C 159.695 473.600,160.400 473.420,160.400 473.200 C 160.400 472.980,160.940 472.800,161.600 472.800 C 162.260 472.800,162.800 472.620,162.800 472.400 C 162.800 472.180,163.340 472.000,164.000 472.000 C 164.660 472.000,165.200 471.820,165.200 471.600 C 165.200 471.380,165.560 471.200,166.000 471.200 C 166.440 471.200,166.800 471.020,166.800 470.800 C 166.800 470.580,167.160 470.400,167.600 470.400 C 168.040 470.400,168.400 470.220,168.400 470.000 C 168.400 469.780,168.720 469.600,169.112 469.600 C 169.503 469.600,170.083 469.240,170.400 468.800 C 170.717 468.360,171.257 468.000,171.600 468.000 C 171.943 468.000,172.483 467.640,172.800 467.200 C 173.117 466.760,173.625 466.400,173.928 466.400 C 174.231 466.400,174.978 465.866,175.587 465.214 C 176.196 464.562,176.808 464.142,176.947 464.281 C 177.086 464.420,177.200 464.312,177.200 464.041 C 177.200 463.770,178.145 462.657,179.300 461.569 C 183.029 458.055,183.205 457.850,182.748 457.568 C 182.438 457.377,182.441 457.222,182.757 457.026 C 183.001 456.876,183.200 456.866,183.200 457.005 C 183.200 457.144,183.479 456.978,183.820 456.638 C 184.160 456.297,184.385 455.784,184.320 455.497 C 184.254 455.211,184.360 454.952,184.555 454.922 C 185.103 454.839,185.587 453.896,185.594 452.900 C 185.597 452.405,185.780 452.000,186.000 452.000 C 186.220 452.000,186.400 451.640,186.400 451.200 C 186.400 450.760,186.580 450.400,186.800 450.400 C 187.020 450.400,187.200 450.040,187.200 449.600 C 187.200 449.160,187.380 448.800,187.600 448.800 C 187.820 448.800,188.000 448.350,188.000 447.800 C 188.000 447.250,188.180 446.800,188.400 446.800 C 188.620 446.800,188.800 446.170,188.800 445.400 C 188.800 444.630,188.980 444.000,189.200 444.000 C 189.420 444.000,189.600 443.100,189.600 442.000 C 189.600 440.900,189.780 440.000,190.000 440.000 C 190.240 440.000,190.400 438.400,190.400 436.000 C 190.400 433.600,190.560 432.000,190.800 432.000 C 191.066 432.000,191.200 394.867,191.200 321.400 C 191.200 247.933,191.066 210.800,190.800 210.800 C 190.560 210.800,190.400 209.200,190.400 206.800 C 190.400 204.400,190.240 202.800,190.000 202.800 C 189.780 202.800,189.600 201.900,189.600 200.800 C 189.600 199.700,189.420 198.800,189.200 198.800 C 188.980 198.800,188.800 198.159,188.800 197.376 C 188.800 196.529,188.638 196.053,188.400 196.200 C 188.167 196.344,188.000 195.937,188.000 195.224 C 188.000 194.551,187.820 194.000,187.600 194.000 C 187.380 194.000,187.200 193.640,187.200 193.200 C 187.200 192.760,187.020 192.400,186.800 192.400 C 186.580 192.400,186.400 192.040,186.400 191.600 C 186.400 191.160,186.220 190.800,186.000 190.800 C 185.780 190.800,185.600 190.356,185.600 189.814 C 185.600 189.217,185.263 188.648,184.746 188.371 C 184.245 188.103,184.064 187.807,184.310 187.656 C 184.747 187.386,183.525 185.552,182.926 185.579 C 182.751 185.587,182.607 185.328,182.604 185.004 C 182.602 184.681,181.385 183.275,179.900 181.881 C 178.415 180.487,177.200 179.104,177.200 178.807 C 177.200 178.510,177.086 178.380,176.947 178.519 C 176.808 178.658,176.196 178.238,175.587 177.586 C 174.978 176.934,174.231 176.400,173.928 176.400 C 173.625 176.400,173.117 176.040,172.800 175.600 C 172.483 175.160,171.943 174.800,171.600 174.800 C 171.257 174.800,170.717 174.440,170.400 174.000 C 170.083 173.560,169.503 173.200,169.112 173.200 C 168.720 173.200,168.400 173.020,168.400 172.800 C 168.400 172.580,168.040 172.400,167.600 172.400 C 167.160 172.400,166.800 172.220,166.800 172.000 C 166.800 171.780,166.440 171.600,166.000 171.600 C 165.560 171.600,165.200 171.420,165.200 171.200 C 165.200 170.980,164.660 170.800,164.000 170.800 C 163.340 170.800,162.800 170.620,162.800 170.400 C 162.800 170.180,162.260 170.000,161.600 170.000 C 160.940 170.000,160.400 169.820,160.400 169.600 C 160.400 169.380,159.680 169.200,158.800 169.200 C 157.920 169.200,157.200 169.020,157.200 168.800 C 157.200 168.580,156.210 168.400,155.000 168.400 C 153.790 168.400,152.800 168.220,152.800 168.000 C 152.800 167.753,150.733 167.600,147.400 167.600 C 144.133 167.600,142.000 167.755,142.000 167.993 M37.302 269.797 C 36.937 270.211,36.263 270.299,34.782 270.123 C 33.654 269.990,32.814 270.042,32.881 270.242 C 33.005 270.614,32.703 270.800,31.976 270.800 C 31.743 270.800,31.654 270.637,31.777 270.437 C 31.900 270.238,31.552 270.283,31.004 270.537 C 30.455 270.792,30.005 271.135,30.003 271.300 C 30.001 271.465,29.449 271.600,28.776 271.600 C 28.063 271.600,27.656 271.767,27.800 272.000 C 27.945 272.234,27.530 272.400,26.800 272.400 C 26.070 272.400,25.655 272.566,25.800 272.800 C 25.941 273.028,25.596 273.200,25.000 273.200 C 24.404 273.200,24.059 273.372,24.200 273.600 C 24.341 273.828,23.996 274.000,23.400 274.000 C 22.804 274.000,22.459 274.172,22.600 274.400 C 22.736 274.620,22.477 274.800,22.024 274.800 C 21.571 274.800,21.200 274.999,21.200 275.243 C 21.200 275.486,20.937 275.585,20.615 275.461 C 20.276 275.331,19.705 275.649,19.257 276.218 C 18.832 276.758,18.279 277.200,18.028 277.200 C 17.777 277.200,15.785 279.000,13.600 281.200 C 11.415 283.400,9.352 285.200,9.014 285.200 C 8.667 285.200,8.400 285.547,8.400 286.000 C 8.400 286.440,8.220 286.800,8.000 286.800 C 7.780 286.800,7.600 287.120,7.600 287.512 C 7.600 287.903,7.240 288.483,6.800 288.800 C 6.360 289.117,6.000 289.697,6.000 290.088 C 6.000 290.480,5.820 290.800,5.600 290.800 C 5.380 290.800,5.200 291.160,5.200 291.600 C 5.200 292.040,5.020 292.400,4.800 292.400 C 4.580 292.400,4.400 292.760,4.400 293.200 C 4.400 293.640,4.220 294.000,4.000 294.000 C 3.780 294.000,3.600 294.360,3.600 294.800 C 3.600 295.240,3.420 295.600,3.200 295.600 C 2.980 295.600,2.800 296.035,2.800 296.567 C 2.800 297.098,2.579 297.607,2.310 297.697 C 2.030 297.790,1.861 298.406,1.916 299.130 C 1.969 299.829,1.830 300.400,1.606 300.400 C 1.383 300.400,1.200 301.195,1.200 302.167 C 1.200 303.224,0.999 304.000,0.700 304.100 C -0.035 304.345,-0.035 440.055,0.700 440.300 C 1.010 440.403,1.200 441.216,1.200 442.433 C 1.200 443.515,1.380 444.400,1.600 444.400 C 1.820 444.400,2.000 444.940,2.000 445.600 C 2.000 446.260,2.180 446.800,2.400 446.800 C 2.620 446.800,2.800 447.250,2.800 447.800 C 2.800 448.350,2.980 448.800,3.200 448.800 C 3.420 448.800,3.600 449.250,3.600 449.800 C 3.600 450.350,3.780 450.800,4.000 450.800 C 4.220 450.800,4.400 451.160,4.400 451.600 C 4.400 452.040,4.580 452.400,4.800 452.400 C 5.020 452.400,5.200 452.670,5.200 453.000 C 5.200 453.330,5.380 453.600,5.600 453.600 C 5.820 453.600,6.000 454.038,6.000 454.573 C 6.000 455.195,6.289 455.638,6.800 455.800 C 7.282 455.953,7.600 456.405,7.600 456.939 C 7.600 457.425,7.994 458.088,8.476 458.412 C 8.957 458.735,11.179 460.845,13.412 463.100 C 15.646 465.355,17.760 467.200,18.110 467.200 C 18.460 467.200,18.860 467.560,19.000 468.000 C 19.162 468.511,19.605 468.800,20.227 468.800 C 20.762 468.800,21.200 468.980,21.200 469.200 C 21.200 469.420,21.560 469.600,22.000 469.600 C 22.440 469.600,22.800 469.780,22.800 470.000 C 22.800 470.220,23.160 470.400,23.600 470.400 C 24.040 470.400,24.400 470.580,24.400 470.800 C 24.400 471.020,24.760 471.200,25.200 471.200 C 25.640 471.200,26.000 471.380,26.000 471.600 C 26.000 471.820,26.461 472.000,27.024 472.000 C 27.604 472.000,27.940 472.173,27.800 472.400 C 27.656 472.633,28.063 472.800,28.776 472.800 C 29.449 472.800,30.000 472.980,30.000 473.200 C 30.000 473.420,30.705 473.600,31.567 473.600 C 32.464 473.600,33.204 473.813,33.300 474.100 C 33.427 474.481,35.729 474.600,43.000 474.600 C 50.271 474.600,52.573 474.481,52.700 474.100 C 52.796 473.813,53.536 473.600,54.433 473.600 C 55.295 473.600,56.000 473.420,56.000 473.200 C 56.000 472.980,56.551 472.800,57.224 472.800 C 57.937 472.800,58.344 472.633,58.200 472.400 C 58.060 472.173,58.396 472.000,58.976 472.000 C 59.539 472.000,60.000 471.820,60.000 471.600 C 60.000 471.380,60.450 471.200,61.000 471.200 C 61.550 471.200,62.000 471.020,62.000 470.800 C 62.000 470.580,62.270 470.400,62.600 470.400 C 62.930 470.400,63.200 470.220,63.200 470.000 C 63.200 469.780,63.560 469.600,64.000 469.600 C 64.440 469.600,64.800 469.420,64.800 469.200 C 64.800 468.980,65.238 468.800,65.773 468.800 C 66.395 468.800,66.838 468.511,67.000 468.000 C 67.140 467.560,67.600 467.200,68.022 467.200 C 68.814 467.200,70.400 466.069,70.400 465.505 C 70.400 465.090,76.290 459.200,76.705 459.200 C 77.269 459.200,78.400 457.614,78.400 456.822 C 78.400 456.400,78.760 455.940,79.200 455.800 C 79.711 455.638,80.000 455.195,80.000 454.573 C 80.000 454.038,80.180 453.600,80.400 453.600 C 80.620 453.600,80.800 453.229,80.800 452.776 C 80.800 452.323,80.980 452.064,81.200 452.200 C 81.420 452.336,81.600 452.077,81.600 451.624 C 81.600 451.171,81.780 450.800,82.000 450.800 C 82.220 450.800,82.400 450.339,82.400 449.776 C 82.400 449.196,82.573 448.860,82.800 449.000 C 83.213 449.255,83.350 448.746,83.214 447.456 C 83.167 447.012,83.309 446.820,83.567 446.980 C 83.847 447.152,84.000 446.742,84.000 445.824 C 84.000 445.041,84.180 444.400,84.400 444.400 C 84.620 444.400,84.800 443.500,84.800 442.400 C 84.800 441.300,84.980 440.400,85.200 440.400 C 85.440 440.400,85.600 438.800,85.600 436.400 C 85.600 434.000,85.760 432.400,86.000 432.400 C 86.265 432.400,86.400 412.059,86.400 372.176 C 86.400 332.129,86.266 312.036,86.000 312.200 C 85.743 312.359,85.600 310.937,85.600 308.224 C 85.600 305.675,85.441 304.000,85.200 304.000 C 84.980 304.000,84.800 303.190,84.800 302.200 C 84.800 301.210,84.620 300.400,84.400 300.400 C 84.180 300.400,84.000 299.770,84.000 299.000 C 84.000 298.230,83.820 297.600,83.600 297.600 C 83.380 297.600,83.200 297.150,83.200 296.600 C 83.200 296.050,83.020 295.600,82.800 295.600 C 82.580 295.600,82.400 295.240,82.400 294.800 C 82.400 294.360,82.220 294.000,82.000 294.000 C 81.780 294.000,81.600 293.640,81.600 293.200 C 81.600 292.760,81.420 292.400,81.200 292.400 C 80.980 292.400,80.800 292.040,80.800 291.600 C 80.800 291.160,80.620 290.800,80.400 290.800 C 80.180 290.800,80.000 290.480,80.000 290.088 C 80.000 289.697,79.640 289.117,79.200 288.800 C 78.760 288.483,78.400 287.943,78.400 287.600 C 78.400 287.257,78.044 286.720,77.609 286.406 C 77.027 285.987,76.948 285.754,77.309 285.524 C 77.649 285.308,77.580 285.210,77.083 285.206 C 76.409 285.200,70.895 279.924,69.612 278.056 C 69.288 277.585,68.625 277.200,68.139 277.200 C 67.605 277.200,67.153 276.882,67.000 276.400 C 66.755 275.628,66.356 275.433,65.300 275.570 C 65.025 275.606,64.800 275.447,64.800 275.218 C 64.800 274.988,64.429 274.800,63.976 274.800 C 63.523 274.800,63.264 274.620,63.400 274.400 C 63.536 274.180,63.277 274.000,62.824 274.000 C 62.371 274.000,62.000 273.820,62.000 273.600 C 62.000 273.380,61.539 273.200,60.976 273.200 C 60.396 273.200,60.060 273.027,60.200 272.800 C 60.346 272.564,59.903 272.397,59.124 272.394 C 58.122 272.389,57.946 272.293,58.400 272.000 C 58.846 271.712,58.616 271.611,57.500 271.606 C 56.675 271.603,56.000 271.406,56.000 271.169 C 56.000 270.919,55.373 270.785,54.500 270.850 C 53.410 270.930,53.033 270.814,53.119 270.422 C 53.212 270.003,52.794 269.937,51.228 270.122 C 49.753 270.297,49.063 270.206,48.637 269.780 C 47.811 268.954,38.031 268.968,37.302 269.797 " stroke="none" fill="#fc0c1c" fill-rule="evenodd"></path>
  </g>
</svg>