<svg id="svg" version="1.1" xmlns="http://www.w3.org/2000/svg" xmlns:xlink="http://www.w3.org/1999/xlink" width="400" height="474.9506903353057" viewBox="0, 0, 400,474.9506903353057">
  <g id="svgg">
    <path id="path0" d="M37.600 270.646 C 37.600 271.196,37.272 271.251,35.400 271.017 C 33.527 270.783,33.200 270.839,33.200 271.389 C 33.200 271.907,32.931 271.986,31.856 271.784 C 30.830 271.592,30.453 271.684,30.265 272.176 C 30.088 272.637,29.732 272.748,29.009 272.566 C 28.385 272.410,28.000 272.482,28.000 272.757 C 28.000 273.000,27.550 273.200,27.000 273.200 C 26.359 273.200,26.000 273.425,26.000 273.827 C 26.000 274.272,25.768 274.380,25.200 274.200 C 24.623 274.017,24.400 274.128,24.400 274.600 C 24.400 275.072,24.177 275.183,23.600 275.000 C 23.023 274.817,22.800 274.928,22.800 275.400 C 22.800 275.858,22.575 275.982,22.047 275.815 C 21.583 275.668,21.209 275.799,21.072 276.157 C 20.936 276.511,20.534 276.656,20.043 276.527 C 19.424 276.365,19.176 276.558,18.976 277.355 C 18.761 278.212,18.547 278.352,17.757 278.154 C 17.231 278.021,16.800 278.074,16.800 278.270 C 16.800 278.661,15.302 280.658,14.483 281.358 C 12.257 283.261,7.600 288.102,7.600 288.513 C 7.600 288.794,7.240 289.283,6.800 289.600 C 6.360 289.917,6.000 290.497,6.000 290.888 C 6.000 291.280,5.820 291.600,5.600 291.600 C 5.380 291.600,5.200 291.960,5.200 292.400 C 5.200 292.840,5.020 293.200,4.800 293.200 C 4.580 293.200,4.400 293.560,4.400 294.000 C 4.400 294.440,4.220 294.800,4.000 294.800 C 3.780 294.800,3.600 295.160,3.600 295.600 C 3.600 296.040,3.420 296.400,3.200 296.400 C 2.980 296.400,2.800 296.850,2.800 297.400 C 2.800 297.950,2.620 298.400,2.400 298.400 C 2.180 298.400,2.000 299.030,2.000 299.800 C 2.000 300.570,1.820 301.200,1.600 301.200 C 1.380 301.200,1.200 302.111,1.200 303.224 C 1.200 304.497,1.049 305.154,0.792 304.995 C 0.257 304.665,0.274 302.482,0.278 372.800 C 0.283 443.880,0.257 440.400,0.786 440.400 C 1.016 440.400,1.200 441.287,1.200 442.400 C 1.200 443.500,1.380 444.400,1.600 444.400 C 1.820 444.400,2.000 444.940,2.000 445.600 C 2.000 446.260,2.180 446.800,2.400 446.800 C 2.620 446.800,2.800 447.250,2.800 447.800 C 2.800 448.350,2.980 448.800,3.200 448.800 C 3.420 448.800,3.600 449.160,3.600 449.600 C 3.600 450.040,3.780 450.400,4.000 450.400 C 4.220 450.400,4.400 450.760,4.400 451.200 C 4.400 451.640,4.580 452.000,4.800 452.000 C 5.020 452.000,5.200 452.360,5.200 452.800 C 5.200 453.240,5.380 453.600,5.600 453.600 C 5.820 453.600,6.000 454.038,6.000 454.573 C 6.000 455.195,6.289 455.638,6.800 455.800 C 7.311 455.962,7.600 456.405,7.600 457.027 C 7.600 457.562,7.778 458.000,7.995 458.000 C 8.511 458.000,16.800 466.289,16.800 466.805 C 16.800 467.022,17.238 467.200,17.773 467.200 C 18.395 467.200,18.838 467.489,19.000 468.000 C 19.162 468.511,19.605 468.800,20.227 468.800 C 20.762 468.800,21.200 468.980,21.200 469.200 C 21.200 469.420,21.560 469.600,22.000 469.600 C 22.440 469.600,22.800 469.780,22.800 470.000 C 22.800 470.220,23.160 470.400,23.600 470.400 C 24.040 470.400,24.400 470.580,24.400 470.800 C 24.400 471.020,24.760 471.200,25.200 471.200 C 25.640 471.200,26.000 471.380,26.000 471.600 C 26.000 471.820,26.450 472.000,27.000 472.000 C 27.550 472.000,28.000 472.180,28.000 472.400 C 28.000 472.620,28.540 472.800,29.200 472.800 C 29.860 472.800,30.400 472.980,30.400 473.200 C 30.400 473.420,31.015 473.600,31.767 473.600 C 32.518 473.600,33.208 473.825,33.300 474.100 C 33.427 474.481,35.729 474.600,43.000 474.600 C 50.271 474.600,52.573 474.481,52.700 474.100 C 52.792 473.825,53.482 473.600,54.233 473.600 C 54.985 473.600,55.600 473.420,55.600 473.200 C 55.600 472.980,56.140 472.800,56.800 472.800 C 57.460 472.800,58.000 472.620,58.000 472.400 C 58.000 472.180,58.450 472.000,59.000 472.000 C 59.550 472.000,60.000 471.820,60.000 471.600 C 60.000 471.380,60.360 471.200,60.800 471.200 C 61.240 471.200,61.600 471.020,61.600 470.800 C 61.600 470.580,61.960 470.400,62.400 470.400 C 62.840 470.400,63.200 470.220,63.200 470.000 C 63.200 469.780,63.560 469.600,64.000 469.600 C 64.440 469.600,64.800 469.420,64.800 469.200 C 64.800 468.980,65.238 468.800,65.773 468.800 C 66.395 468.800,66.838 468.511,67.000 468.000 C 67.162 467.489,67.605 467.200,68.227 467.200 C 68.762 467.200,69.200 467.022,69.200 466.805 C 69.200 466.289,77.489 458.000,78.005 458.000 C 78.222 458.000,78.400 457.562,78.400 457.027 C 78.400 456.405,78.689 455.962,79.200 455.800 C 79.711 455.638,80.000 455.195,80.000 454.573 C 80.000 454.038,80.180 453.600,80.400 453.600 C 80.620 453.600,80.800 453.240,80.800 452.800 C 80.800 452.360,80.980 452.000,81.200 452.000 C 81.420 452.000,81.600 451.640,81.600 451.200 C 81.600 450.760,81.780 450.400,82.000 450.400 C 82.220 450.400,82.400 450.040,82.400 449.600 C 82.400 449.160,82.580 448.800,82.800 448.800 C 83.020 448.800,83.200 448.350,83.200 447.800 C 83.200 447.250,83.380 446.800,83.600 446.800 C 83.820 446.800,84.000 446.260,84.000 445.600 C 84.000 444.940,84.180 444.400,84.400 444.400 C 84.620 444.400,84.800 443.500,84.800 442.400 C 84.800 441.300,84.980 440.400,85.200 440.400 C 85.440 440.400,85.600 438.800,85.600 436.400 C 85.600 434.000,85.760 432.400,86.000 432.400 C 86.265 432.400,86.400 412.267,86.400 372.800 C 86.400 333.333,86.265 313.200,86.000 313.200 C 85.760 313.200,85.600 311.600,85.600 309.200 C 85.600 306.800,85.440 305.200,85.200 305.200 C 84.980 305.200,84.800 304.300,84.800 303.200 C 84.800 302.100,84.620 301.200,84.400 301.200 C 84.180 301.200,84.000 300.570,84.000 299.800 C 84.000 299.030,83.820 298.400,83.600 298.400 C 83.380 298.400,83.200 297.950,83.200 297.400 C 83.200 296.850,83.020 296.400,82.800 296.400 C 82.580 296.400,82.400 296.040,82.400 295.600 C 82.400 295.160,82.220 294.800,82.000 294.800 C 81.780 294.800,81.600 294.440,81.600 294.000 C 81.600 293.560,81.420 293.200,81.200 293.200 C 80.980 293.200,80.800 292.840,80.800 292.400 C 80.800 291.960,80.620 291.600,80.400 291.600 C 80.180 291.600,80.000 291.280,80.000 290.888 C 80.000 290.497,79.640 289.917,79.200 289.600 C 78.760 289.283,78.400 288.790,78.400 288.506 C 78.400 288.221,76.393 286.011,73.940 283.594 C 71.488 281.177,69.610 279.200,69.769 279.200 C 69.927 279.200,69.770 278.913,69.418 278.561 C 69.067 278.210,68.509 278.026,68.178 278.153 C 67.788 278.303,67.412 278.025,67.111 277.365 C 66.788 276.655,66.421 276.406,65.899 276.542 C 65.468 276.655,65.057 276.492,64.928 276.157 C 64.791 275.799,64.417 275.668,63.953 275.815 C 63.420 275.984,63.200 275.858,63.200 275.384 C 63.200 274.946,62.987 274.796,62.585 274.950 C 62.232 275.086,61.871 274.929,61.737 274.581 C 61.592 274.201,61.225 274.065,60.753 274.215 C 60.234 274.380,60.000 274.259,60.000 273.827 C 60.000 273.425,59.641 273.200,59.000 273.200 C 58.450 273.200,58.000 273.013,58.000 272.785 C 58.000 272.557,57.505 272.422,56.900 272.485 C 56.133 272.565,55.836 272.432,55.918 272.046 C 56.010 271.614,55.681 271.549,54.418 271.751 C 53.099 271.962,52.800 271.892,52.800 271.376 C 52.800 270.841,52.456 270.785,50.600 271.017 C 48.728 271.251,48.400 271.196,48.400 270.646 C 48.400 270.083,47.705 270.000,43.000 270.000 C 38.295 270.000,37.600 270.083,37.600 270.646 " stroke="none" fill="#fc0c1c" fill-rule="evenodd"></path>
    <path id="path1" d="M350.100 0.267 C 348.725 0.361,347.600 0.610,347.600 0.819 C 347.600 1.029,346.880 1.200,346.000 1.200 C 345.120 1.200,344.400 1.380,344.400 1.600 C 344.400 1.820,343.860 2.000,343.200 2.000 C 342.540 2.000,342.000 2.180,342.000 2.400 C 342.000 2.620,341.561 2.800,341.024 2.800 C 340.487 2.800,339.936 2.980,339.800 3.200 C 339.664 3.420,339.203 3.600,338.776 3.600 C 338.349 3.600,338.000 3.780,338.000 4.000 C 338.000 4.220,337.640 4.400,337.200 4.400 C 336.760 4.400,336.400 4.580,336.400 4.800 C 336.400 5.020,336.164 5.200,335.875 5.200 C 335.587 5.200,334.964 5.560,334.492 6.000 C 334.020 6.440,333.396 6.800,333.105 6.800 C 332.814 6.800,332.317 7.160,332.000 7.600 C 331.683 8.040,331.285 8.400,331.116 8.400 C 330.689 8.400,322.400 16.656,322.400 17.080 C 322.400 17.269,322.040 17.683,321.600 18.000 C 321.160 18.317,320.800 18.857,320.800 19.200 C 320.800 19.543,320.440 20.083,320.000 20.400 C 319.560 20.717,319.200 21.297,319.200 21.688 C 319.200 22.080,319.020 22.400,318.800 22.400 C 318.580 22.400,318.400 22.760,318.400 23.200 C 318.400 23.640,318.220 24.000,318.000 24.000 C 317.780 24.000,317.600 24.349,317.600 24.776 C 317.600 25.203,317.420 25.664,317.200 25.800 C 316.980 25.936,316.800 26.487,316.800 27.024 C 316.800 27.561,316.620 28.000,316.400 28.000 C 316.180 28.000,316.000 28.720,316.000 29.600 C 316.000 30.480,315.820 31.200,315.600 31.200 C 315.380 31.200,315.200 32.100,315.200 33.200 C 315.200 34.300,315.020 35.200,314.800 35.200 C 314.554 35.200,314.400 37.200,314.400 40.400 C 314.400 43.600,314.246 45.600,314.000 45.600 C 313.734 45.600,313.600 109.800,313.600 237.400 C 313.600 365.000,313.734 429.200,314.000 429.200 C 314.246 429.200,314.400 431.200,314.400 434.400 C 314.400 437.600,314.554 439.600,314.800 439.600 C 315.020 439.600,315.200 440.500,315.200 441.600 C 315.200 442.700,315.380 443.600,315.600 443.600 C 315.820 443.600,316.000 444.320,316.000 445.200 C 316.000 446.080,316.180 446.800,316.400 446.800 C 316.620 446.800,316.800 447.239,316.800 447.776 C 316.800 448.313,316.980 448.864,317.200 449.000 C 317.420 449.136,317.600 449.597,317.600 450.024 C 317.600 450.451,317.780 450.800,318.000 450.800 C 318.220 450.800,318.400 451.160,318.400 451.600 C 318.400 452.040,318.580 452.400,318.800 452.400 C 319.020 452.400,319.200 452.694,319.200 453.053 C 319.200 453.412,319.516 453.997,319.903 454.353 C 320.289 454.709,320.860 455.495,321.170 456.100 C 321.481 456.705,321.885 457.200,322.068 457.200 C 322.250 457.200,322.400 457.404,322.400 457.653 C 322.400 458.149,330.625 466.400,331.119 466.400 C 331.286 466.400,331.683 466.760,332.000 467.200 C 332.317 467.640,332.814 468.000,333.105 468.000 C 333.396 468.000,334.020 468.360,334.492 468.800 C 334.964 469.240,335.587 469.600,335.875 469.600 C 336.164 469.600,336.400 469.780,336.400 470.000 C 336.400 470.220,336.760 470.400,337.200 470.400 C 337.640 470.400,338.000 470.580,338.000 470.800 C 338.000 471.020,338.450 471.200,339.000 471.200 C 339.550 471.200,340.000 471.380,340.000 471.600 C 340.000 471.820,340.450 472.000,341.000 472.000 C 341.550 472.000,342.000 472.180,342.000 472.400 C 342.000 472.620,342.540 472.800,343.200 472.800 C 343.860 472.800,344.400 472.980,344.400 473.200 C 344.400 473.420,345.105 473.600,345.967 473.600 C 346.864 473.600,347.604 473.813,347.700 474.100 C 347.827 474.481,350.049 474.600,357.000 474.600 C 363.951 474.600,366.173 474.481,366.300 474.100 C 366.392 473.825,367.071 473.600,367.810 473.600 C 368.548 473.600,369.264 473.420,369.400 473.200 C 369.536 472.980,370.177 472.800,370.824 472.800 C 371.471 472.800,372.000 472.620,372.000 472.400 C 372.000 472.180,372.439 472.000,372.976 472.000 C 373.513 472.000,374.064 471.820,374.200 471.600 C 374.336 471.380,374.797 471.200,375.224 471.200 C 375.651 471.200,376.000 471.020,376.000 470.800 C 376.000 470.580,376.360 470.400,376.800 470.400 C 377.240 470.400,377.600 470.220,377.600 470.000 C 377.600 469.780,377.836 469.600,378.125 469.600 C 378.413 469.600,379.036 469.240,379.508 468.800 C 379.980 468.360,380.604 468.000,380.895 468.000 C 381.186 468.000,381.683 467.640,382.000 467.200 C 382.317 466.760,382.736 466.400,382.930 466.400 C 383.392 466.400,391.600 458.192,391.600 457.730 C 391.600 457.536,391.960 457.117,392.400 456.800 C 392.840 456.483,393.200 455.943,393.200 455.600 C 393.200 455.257,393.560 454.717,394.000 454.400 C 394.440 454.083,394.800 453.503,394.800 453.112 C 394.800 452.720,394.980 452.400,395.200 452.400 C 395.420 452.400,395.600 452.040,395.600 451.600 C 395.600 451.160,395.780 450.800,396.000 450.800 C 396.220 450.800,396.400 450.451,396.400 450.024 C 396.400 449.597,396.580 449.136,396.800 449.000 C 397.020 448.864,397.200 448.313,397.200 447.776 C 397.200 447.239,397.380 446.800,397.600 446.800 C 397.820 446.800,398.000 446.080,398.000 445.200 C 398.000 444.320,398.180 443.600,398.400 443.600 C 398.620 443.600,398.800 442.715,398.800 441.633 C 398.800 440.416,398.990 439.603,399.300 439.500 C 400.036 439.255,400.036 35.545,399.300 35.300 C 398.990 35.197,398.800 34.384,398.800 33.167 C 398.800 32.085,398.620 31.200,398.400 31.200 C 398.180 31.200,398.000 30.480,398.000 29.600 C 398.000 28.720,397.820 28.000,397.600 28.000 C 397.380 28.000,397.200 27.550,397.200 27.000 C 397.200 26.450,397.020 26.000,396.800 26.000 C 396.580 26.000,396.400 25.550,396.400 25.000 C 396.400 24.450,396.220 24.000,396.000 24.000 C 395.780 24.000,395.600 23.640,395.600 23.200 C 395.600 22.760,395.420 22.400,395.200 22.400 C 394.980 22.400,394.800 22.080,394.800 21.688 C 394.800 21.297,394.440 20.717,394.000 20.400 C 393.560 20.083,393.200 19.543,393.200 19.200 C 393.200 18.857,392.840 18.317,392.400 18.000 C 391.960 17.683,391.600 17.274,391.600 17.092 C 391.600 16.642,383.382 8.400,382.933 8.400 C 382.737 8.400,382.317 8.040,382.000 7.600 C 381.683 7.160,381.186 6.800,380.895 6.800 C 380.604 6.800,379.980 6.440,379.508 6.000 C 379.036 5.560,378.413 5.200,378.125 5.200 C 377.836 5.200,377.600 5.020,377.600 4.800 C 377.600 4.580,377.240 4.400,376.800 4.400 C 376.360 4.400,376.000 4.220,376.000 4.000 C 376.000 3.780,375.651 3.600,375.224 3.600 C 374.797 3.600,374.336 3.420,374.200 3.200 C 374.064 2.980,373.513 2.800,372.976 2.800 C 372.439 2.800,372.000 2.620,372.000 2.400 C 372.000 2.180,371.460 2.000,370.800 2.000 C 370.140 2.000,369.600 1.820,369.600 1.600 C 369.600 1.380,368.895 1.200,368.033 1.200 C 367.172 1.200,366.406 1.019,366.333 0.798 C 366.187 0.362,354.352 -0.025,350.100 0.267 M248.200 64.800 C 248.064 65.020,246.793 65.200,245.376 65.200 C 243.925 65.200,242.800 65.375,242.800 65.600 C 242.800 65.820,242.260 66.000,241.600 66.000 C 240.940 66.000,240.400 66.180,240.400 66.400 C 240.400 66.620,239.781 66.800,239.024 66.800 C 238.267 66.800,237.536 66.980,237.400 67.200 C 237.264 67.420,236.803 67.600,236.376 67.600 C 235.949 67.600,235.600 67.780,235.600 68.000 C 235.600 68.220,235.240 68.400,234.800 68.400 C 234.360 68.400,234.000 68.580,234.000 68.800 C 234.000 69.020,233.640 69.200,233.200 69.200 C 232.760 69.200,232.400 69.380,232.400 69.600 C 232.400 69.820,232.040 70.000,231.600 70.000 C 231.160 70.000,230.800 70.180,230.800 70.400 C 230.800 70.620,230.462 70.800,230.049 70.800 C 229.636 70.800,229.074 71.070,228.800 71.400 C 228.526 71.730,228.128 72.000,227.914 72.000 C 226.309 72.000,218.766 79.492,216.546 83.291 C 216.297 83.718,215.892 84.268,215.646 84.514 C 215.401 84.759,215.200 85.284,215.200 85.680 C 215.200 86.076,215.020 86.400,214.800 86.400 C 214.580 86.400,214.400 86.760,214.400 87.200 C 214.400 87.640,214.220 88.000,214.000 88.000 C 213.780 88.000,213.600 88.360,213.600 88.800 C 213.600 89.240,213.420 89.600,213.200 89.600 C 212.980 89.600,212.800 89.960,212.800 90.400 C 212.800 90.840,212.620 91.200,212.400 91.200 C 212.180 91.200,212.000 91.549,212.000 91.976 C 212.000 92.403,211.820 92.864,211.600 93.000 C 211.380 93.136,211.200 93.867,211.200 94.624 C 211.200 95.381,211.020 96.000,210.800 96.000 C 210.580 96.000,210.400 96.979,210.400 98.176 C 210.400 99.373,210.220 100.464,210.000 100.600 C 209.767 100.744,209.600 103.012,209.600 106.047 C 209.600 109.412,209.459 111.160,209.200 111.000 C 208.934 110.835,208.800 163.796,208.800 269.576 C 208.800 375.192,208.934 428.400,209.200 428.400 C 209.446 428.400,209.600 430.400,209.600 433.600 C 209.600 436.800,209.754 438.800,210.000 438.800 C 210.222 438.800,210.400 439.867,210.400 441.200 C 210.400 442.533,210.578 443.600,210.800 443.600 C 211.020 443.600,211.200 444.331,211.200 445.224 C 211.200 446.204,211.358 446.749,211.600 446.600 C 211.827 446.460,212.000 446.796,212.000 447.376 C 212.000 447.939,212.180 448.400,212.400 448.400 C 212.620 448.400,212.800 448.760,212.800 449.200 C 212.800 449.640,212.980 450.000,213.200 450.000 C 213.420 450.000,213.600 450.360,213.600 450.800 C 213.600 451.240,213.780 451.600,214.000 451.600 C 214.220 451.600,214.400 451.960,214.400 452.400 C 214.400 452.840,214.580 453.200,214.800 453.200 C 215.020 453.200,215.200 453.541,215.200 453.957 C 215.200 454.374,215.470 454.818,215.800 454.945 C 216.130 455.071,216.400 455.530,216.400 455.965 C 216.400 456.399,216.731 456.990,217.137 457.277 C 217.542 457.565,218.111 458.250,218.403 458.800 C 219.047 460.015,224.786 465.600,225.391 465.600 C 225.629 465.600,226.083 465.960,226.400 466.400 C 226.717 466.840,227.257 467.200,227.600 467.200 C 227.943 467.200,228.483 467.560,228.800 468.000 C 229.117 468.440,229.697 468.800,230.088 468.800 C 230.480 468.800,230.800 468.980,230.800 469.200 C 230.800 469.420,231.160 469.600,231.600 469.600 C 232.040 469.600,232.400 469.780,232.400 470.000 C 232.400 470.220,232.760 470.400,233.200 470.400 C 233.640 470.400,234.000 470.580,234.000 470.800 C 234.000 471.020,234.360 471.200,234.800 471.200 C 235.240 471.200,235.600 471.380,235.600 471.600 C 235.600 471.820,235.960 472.000,236.400 472.000 C 236.840 472.000,237.200 472.180,237.200 472.400 C 237.200 472.620,237.920 472.800,238.800 472.800 C 239.680 472.800,240.400 472.980,240.400 473.200 C 240.400 473.420,240.904 473.600,241.520 473.600 C 242.136 473.600,242.865 473.825,243.140 474.100 C 243.851 474.811,261.666 474.801,261.903 474.090 C 261.993 473.820,262.682 473.600,263.433 473.600 C 264.185 473.600,264.800 473.420,264.800 473.200 C 264.800 472.980,265.430 472.800,266.200 472.800 C 266.970 472.800,267.600 472.620,267.600 472.400 C 267.600 472.180,267.853 472.000,268.162 472.000 C 268.828 472.000,272.141 470.332,272.333 469.900 C 272.407 469.735,272.812 469.600,273.233 469.600 C 273.655 469.600,274.000 469.420,274.000 469.200 C 274.000 468.980,274.320 468.800,274.712 468.800 C 275.103 468.800,275.683 468.440,276.000 468.000 C 276.317 467.560,276.857 467.200,277.200 467.200 C 277.543 467.200,278.083 466.840,278.400 466.400 C 278.717 465.960,279.190 465.600,279.452 465.600 C 280.006 465.600,286.800 459.023,286.800 458.487 C 286.800 458.287,287.160 457.798,287.600 457.400 C 288.040 457.002,288.400 456.456,288.400 456.187 C 288.400 455.918,288.666 455.477,288.991 455.208 C 289.316 454.938,290.074 453.701,290.676 452.459 C 291.278 451.216,291.912 450.140,292.085 450.067 C 292.258 449.993,292.400 449.712,292.400 449.442 C 292.400 449.171,292.760 448.205,293.200 447.294 C 293.640 446.384,294.000 445.180,294.000 444.619 C 294.000 444.059,294.149 443.600,294.332 443.600 C 294.514 443.600,294.705 442.570,294.756 441.312 C 294.807 440.053,295.007 438.833,295.200 438.600 C 296.543 436.982,296.514 101.997,295.171 100.620 C 294.967 100.411,294.800 99.387,294.800 98.344 C 294.800 97.301,294.620 96.336,294.400 96.200 C 294.180 96.064,294.000 95.344,294.000 94.600 C 294.000 93.856,293.820 93.136,293.600 93.000 C 293.380 92.864,293.200 92.403,293.200 91.976 C 293.200 91.549,293.020 91.200,292.800 91.200 C 292.580 91.200,292.400 90.840,292.400 90.400 C 292.400 89.960,292.220 89.600,292.000 89.600 C 291.780 89.600,291.600 89.240,291.600 88.800 C 291.600 88.360,291.420 88.000,291.200 88.000 C 290.980 88.000,290.800 87.640,290.800 87.200 C 290.800 86.760,290.620 86.400,290.400 86.400 C 290.180 86.400,290.000 86.083,290.000 85.696 C 290.000 85.309,289.640 84.768,289.200 84.493 C 288.760 84.218,288.400 83.674,288.400 83.285 C 288.400 82.895,288.040 82.317,287.600 82.000 C 287.160 81.683,286.800 81.224,286.800 80.981 C 286.800 80.365,280.952 74.381,280.647 74.686 C 280.511 74.822,280.400 74.723,280.400 74.467 C 280.400 74.210,280.175 73.997,279.900 73.993 C 279.625 73.989,278.976 73.539,278.458 72.993 C 277.940 72.447,277.287 72.000,277.007 72.000 C 276.727 72.000,276.274 71.730,276.000 71.400 C 275.726 71.070,275.164 70.800,274.751 70.800 C 274.338 70.800,274.000 70.620,274.000 70.400 C 274.000 70.180,273.655 70.000,273.233 70.000 C 272.812 70.000,272.407 69.865,272.333 69.700 C 272.141 69.268,268.828 67.600,268.162 67.600 C 267.853 67.600,267.600 67.420,267.600 67.200 C 267.600 66.980,266.970 66.800,266.200 66.800 C 265.430 66.800,264.800 66.620,264.800 66.400 C 264.800 66.180,264.170 66.000,263.400 66.000 C 262.630 66.000,262.000 65.820,262.000 65.600 C 262.000 65.374,260.867 65.200,259.400 65.200 C 257.933 65.200,256.800 65.026,256.800 64.800 C 256.800 64.559,255.141 64.400,252.624 64.400 C 250.271 64.400,248.339 64.575,248.200 64.800 M143.200 168.766 C 143.200 168.967,142.075 169.225,140.700 169.338 C 137.189 169.627,135.200 170.027,135.200 170.444 C 135.200 170.640,134.570 170.800,133.800 170.800 C 133.030 170.800,132.400 170.980,132.400 171.200 C 132.400 171.420,132.166 171.600,131.880 171.600 C 131.144 171.600,129.207 172.541,129.203 172.900 C 129.201 173.065,128.840 173.200,128.400 173.200 C 127.960 173.200,127.600 173.380,127.600 173.600 C 127.600 173.820,127.240 174.000,126.800 174.000 C 126.360 174.000,126.000 174.180,126.000 174.400 C 126.000 174.620,125.680 174.800,125.288 174.800 C 124.897 174.800,124.317 175.160,124.000 175.600 C 123.683 176.040,123.143 176.400,122.800 176.400 C 122.457 176.400,121.917 176.760,121.600 177.200 C 121.283 177.640,120.791 178.000,120.506 178.000 C 119.938 178.000,113.200 184.578,113.200 185.132 C 113.200 185.321,112.840 185.802,112.400 186.200 C 111.960 186.598,111.600 187.126,111.600 187.374 C 111.600 187.621,111.240 188.083,110.800 188.400 C 110.360 188.717,110.000 189.297,110.000 189.688 C 110.000 190.080,109.820 190.400,109.600 190.400 C 109.380 190.400,109.200 190.760,109.200 191.200 C 109.200 191.640,109.020 192.000,108.800 192.000 C 108.580 192.000,108.400 192.360,108.400 192.800 C 108.400 193.240,108.220 193.600,108.000 193.600 C 107.780 193.600,107.600 193.960,107.600 194.400 C 107.600 194.840,107.420 195.200,107.200 195.200 C 106.980 195.200,106.800 195.549,106.800 195.976 C 106.800 196.403,106.620 196.864,106.400 197.000 C 106.180 197.136,106.000 197.867,106.000 198.624 C 106.000 199.381,105.851 200.000,105.668 200.000 C 105.486 200.000,105.295 201.031,105.244 202.291 C 105.193 203.552,105.003 204.677,104.821 204.791 C 104.639 204.906,104.460 207.235,104.423 209.967 C 104.387 212.698,104.187 215.250,103.980 215.638 C 103.098 217.286,103.909 438.249,104.799 438.800 C 104.993 438.919,105.193 440.048,105.244 441.309 C 105.295 442.569,105.486 443.600,105.668 443.600 C 105.851 443.600,106.000 443.992,106.000 444.472 C 106.000 445.344,106.817 448.023,107.198 448.400 C 107.675 448.872,108.400 450.437,108.400 450.995 C 108.400 451.328,108.580 451.600,108.800 451.600 C 109.020 451.600,109.200 451.960,109.200 452.400 C 109.200 452.840,109.380 453.200,109.600 453.200 C 109.820 453.200,110.000 453.436,110.000 453.725 C 110.000 454.013,110.360 454.636,110.800 455.108 C 111.240 455.580,111.600 456.126,111.600 456.321 C 111.600 456.516,111.960 457.002,112.400 457.400 C 112.840 457.798,113.200 458.279,113.200 458.468 C 113.200 459.022,119.938 465.600,120.506 465.600 C 120.791 465.600,121.283 465.960,121.600 466.400 C 121.917 466.840,122.457 467.200,122.800 467.200 C 123.143 467.200,123.683 467.560,124.000 468.000 C 124.317 468.440,124.897 468.800,125.288 468.800 C 125.680 468.800,126.000 468.980,126.000 469.200 C 126.000 469.420,126.360 469.600,126.800 469.600 C 127.240 469.600,127.600 469.780,127.600 470.000 C 127.600 470.220,127.960 470.400,128.400 470.400 C 128.840 470.400,129.201 470.535,129.203 470.700 C 129.207 471.059,131.144 472.000,131.880 472.000 C 132.166 472.000,132.400 472.180,132.400 472.400 C 132.400 472.620,133.030 472.800,133.800 472.800 C 134.570 472.800,135.200 472.980,135.200 473.200 C 135.200 473.420,135.704 473.600,136.320 473.600 C 136.936 473.600,137.662 473.822,137.934 474.094 C 138.643 474.803,156.866 474.803,157.102 474.094 C 157.193 473.822,157.792 473.600,158.433 473.600 C 159.075 473.600,159.600 473.420,159.600 473.200 C 159.600 472.980,160.320 472.800,161.200 472.800 C 162.080 472.800,162.800 472.620,162.800 472.400 C 162.800 472.180,163.160 472.000,163.600 472.000 C 164.040 472.000,164.400 471.820,164.400 471.600 C 164.400 471.380,164.760 471.200,165.200 471.200 C 165.640 471.200,166.000 471.020,166.000 470.800 C 166.000 470.580,166.360 470.400,166.800 470.400 C 167.240 470.400,167.600 470.220,167.600 470.000 C 167.600 469.780,167.960 469.600,168.400 469.600 C 168.840 469.600,169.200 469.420,169.200 469.200 C 169.200 468.980,169.520 468.800,169.912 468.800 C 170.303 468.800,170.883 468.440,171.200 468.000 C 171.517 467.560,172.057 467.200,172.400 467.200 C 172.743 467.200,173.283 466.840,173.600 466.400 C 173.917 465.960,174.388 465.600,174.647 465.600 C 175.353 465.600,181.003 459.941,181.761 458.476 C 182.124 457.774,182.584 457.200,182.783 457.200 C 182.983 457.200,183.266 456.822,183.413 456.361 C 183.559 455.899,184.027 455.173,184.452 454.748 C 184.877 454.323,185.332 453.441,185.463 452.788 C 185.593 452.134,185.858 451.600,186.050 451.600 C 186.243 451.600,186.400 451.240,186.400 450.800 C 186.400 450.360,186.580 450.000,186.800 450.000 C 187.020 450.000,187.200 449.640,187.200 449.200 C 187.200 448.760,187.380 448.400,187.600 448.400 C 187.820 448.400,188.000 447.950,188.000 447.400 C 188.000 446.850,188.180 446.400,188.400 446.400 C 188.620 446.400,188.800 445.770,188.800 445.000 C 188.800 444.230,188.980 443.600,189.200 443.600 C 189.422 443.600,189.600 442.533,189.600 441.200 C 189.600 439.867,189.778 438.800,190.000 438.800 C 190.246 438.800,190.400 436.800,190.400 433.600 C 190.400 430.400,190.554 428.400,190.800 428.400 C 191.066 428.400,191.200 392.608,191.200 321.824 C 191.200 251.204,191.065 215.164,190.800 215.000 C 190.568 214.857,190.400 212.663,190.400 209.776 C 190.400 206.725,190.245 204.800,190.000 204.800 C 189.778 204.800,189.600 203.733,189.600 202.400 C 189.600 201.067,189.422 200.000,189.200 200.000 C 188.980 200.000,188.800 199.280,188.800 198.400 C 188.800 197.520,188.620 196.800,188.400 196.800 C 188.180 196.800,188.000 196.440,188.000 196.000 C 188.000 195.560,187.820 195.200,187.600 195.200 C 187.380 195.200,187.200 194.840,187.200 194.400 C 187.200 193.960,187.020 193.600,186.800 193.600 C 186.580 193.600,186.400 193.240,186.400 192.800 C 186.400 192.360,186.220 192.000,186.000 192.000 C 185.780 192.000,185.600 191.665,185.600 191.256 C 185.600 190.847,185.150 189.849,184.600 189.038 C 184.050 188.228,183.600 187.399,183.600 187.196 C 183.600 186.994,183.240 186.635,182.800 186.400 C 182.360 186.165,182.000 185.716,182.000 185.403 C 182.000 184.706,175.361 178.000,174.671 178.000 C 174.399 178.000,173.917 177.640,173.600 177.200 C 173.283 176.760,172.743 176.400,172.400 176.400 C 172.057 176.400,171.517 176.040,171.200 175.600 C 170.883 175.160,170.303 174.800,169.912 174.800 C 169.520 174.800,169.200 174.620,169.200 174.400 C 169.200 174.180,168.840 174.000,168.400 174.000 C 167.960 174.000,167.600 173.820,167.600 173.600 C 167.600 173.380,167.240 173.200,166.800 173.200 C 166.360 173.200,166.000 173.020,166.000 172.800 C 166.000 172.580,165.640 172.400,165.200 172.400 C 164.760 172.400,164.400 172.220,164.400 172.000 C 164.400 171.780,164.040 171.600,163.600 171.600 C 163.160 171.600,162.800 171.420,162.800 171.200 C 162.800 170.980,162.080 170.800,161.200 170.800 C 160.320 170.800,159.600 170.620,159.600 170.400 C 159.600 170.180,159.060 170.000,158.400 170.000 C 157.740 170.000,157.200 169.820,157.200 169.600 C 157.200 169.375,156.075 169.200,154.624 169.200 C 153.207 169.200,151.936 169.020,151.800 168.800 C 151.489 168.297,143.200 168.264,143.200 168.766 M35.200 270.600 C 35.200 271.000,35.600 271.200,36.400 271.200 C 37.200 271.200,37.600 271.000,37.600 270.600 C 37.600 270.200,37.200 270.000,36.400 270.000 C 35.600 270.000,35.200 270.200,35.200 270.600 M48.400 270.600 C 48.400 271.000,48.800 271.200,49.600 271.200 C 50.400 271.200,50.800 271.000,50.800 270.600 C 50.800 270.200,50.400 270.000,49.600 270.000 C 48.800 270.000,48.400 270.200,48.400 270.600 M31.200 271.157 C 31.200 271.514,32.141 272.000,32.833 272.000 C 33.035 272.000,33.200 271.730,33.200 271.400 C 33.200 271.027,32.822 270.800,32.200 270.800 C 31.650 270.800,31.200 270.961,31.200 271.157 M52.800 271.400 C 52.800 272.046,53.166 272.141,54.167 271.757 C 55.141 271.384,54.917 270.800,53.800 270.800 C 53.178 270.800,52.800 271.027,52.800 271.400 M28.900 272.100 C 28.992 272.375,29.307 272.600,29.600 272.600 C 29.893 272.600,30.208 272.375,30.300 272.100 C 30.399 271.803,30.116 271.600,29.600 271.600 C 29.084 271.600,28.801 271.803,28.900 272.100 M55.817 271.972 C 55.691 272.177,55.770 272.458,55.993 272.596 C 56.471 272.891,57.200 272.517,57.200 271.976 C 57.200 271.490,56.117 271.487,55.817 271.972 M26.400 272.800 C 26.400 273.020,26.760 273.200,27.200 273.200 C 27.640 273.200,28.000 273.020,28.000 272.800 C 28.000 272.580,27.640 272.400,27.200 272.400 C 26.760 272.400,26.400 272.580,26.400 272.800 M58.000 272.800 C 58.000 273.020,58.371 273.200,58.824 273.200 C 59.277 273.200,59.536 273.020,59.400 272.800 C 59.264 272.580,58.893 272.400,58.576 272.400 C 58.259 272.400,58.000 272.580,58.000 272.800 M24.892 273.675 C 25.139 274.417,26.000 274.540,26.000 273.833 C 26.000 273.485,25.715 273.200,25.367 273.200 C 25.018 273.200,24.805 273.414,24.892 273.675 M60.000 273.833 C 60.000 274.540,60.861 274.417,61.108 273.675 C 61.195 273.414,60.982 273.200,60.633 273.200 C 60.285 273.200,60.000 273.485,60.000 273.833 M23.292 274.475 C 23.539 275.217,24.400 275.340,24.400 274.633 C 24.400 274.285,24.115 274.000,23.767 274.000 C 23.418 274.000,23.205 274.214,23.292 274.475 M61.677 274.430 C 61.756 274.666,61.991 274.860,62.200 274.860 C 62.409 274.860,62.644 274.666,62.723 274.430 C 62.802 274.194,62.567 274.000,62.200 274.000 C 61.833 274.000,61.598 274.194,61.677 274.430 M21.692 275.275 C 21.939 276.017,22.800 276.140,22.800 275.433 C 22.800 275.085,22.515 274.800,22.167 274.800 C 21.818 274.800,21.605 275.014,21.692 275.275 M63.200 275.433 C 63.200 276.140,64.061 276.017,64.308 275.275 C 64.395 275.014,64.182 274.800,63.833 274.800 C 63.485 274.800,63.200 275.085,63.200 275.433 M20.077 276.030 C 20.156 276.267,20.391 276.460,20.600 276.460 C 20.809 276.460,21.044 276.267,21.123 276.030 C 21.202 275.793,20.967 275.600,20.600 275.600 C 20.233 275.600,19.998 275.793,20.077 276.030 M64.877 276.030 C 64.956 276.267,65.191 276.460,65.400 276.460 C 65.609 276.460,65.844 276.267,65.923 276.030 C 66.002 275.793,65.767 275.600,65.400 275.600 C 65.033 275.600,64.798 275.793,64.877 276.030 M17.692 277.675 C 17.939 278.417,18.800 278.540,18.800 277.833 C 18.800 277.485,18.515 277.200,18.167 277.200 C 17.818 277.200,17.605 277.414,17.692 277.675 M67.277 277.630 C 67.356 277.867,67.591 278.060,67.800 278.060 C 68.009 278.060,68.245 277.867,68.323 277.630 C 68.402 277.394,68.167 277.200,67.800 277.200 C 67.433 277.200,67.198 277.394,67.277 277.630 M12.064 282.662 C 10.010 284.752,8.429 286.562,8.552 286.685 C 8.675 286.808,9.939 285.759,11.361 284.354 C 12.783 282.949,14.183 281.597,14.473 281.349 C 15.159 280.762,16.400 279.246,16.400 278.995 C 16.400 278.416,15.446 279.223,12.064 282.662 M69.901 279.032 C 69.746 279.188,71.334 281.019,73.431 283.102 C 75.528 285.186,77.340 286.793,77.458 286.675 C 77.576 286.557,76.307 285.094,74.637 283.424 C 72.966 281.754,71.600 280.210,71.600 279.994 C 71.600 279.777,71.345 279.600,71.033 279.600 C 70.722 279.600,70.403 279.409,70.325 279.175 C 70.247 278.941,70.056 278.877,69.901 279.032 M2.800 295.800 C 2.800 296.130,2.980 296.400,3.200 296.400 C 3.420 296.400,3.600 296.130,3.600 295.800 C 3.600 295.470,3.420 295.200,3.200 295.200 C 2.980 295.200,2.800 295.470,2.800 295.800 M82.400 295.800 C 82.400 296.130,82.580 296.400,82.800 296.400 C 83.020 296.400,83.200 296.130,83.200 295.800 C 83.200 295.470,83.020 295.200,82.800 295.200 C 82.580 295.200,82.400 295.470,82.400 295.800 M2.000 297.600 C 2.000 298.040,2.180 298.400,2.400 298.400 C 2.620 298.400,2.800 298.040,2.800 297.600 C 2.800 297.160,2.620 296.800,2.400 296.800 C 2.180 296.800,2.000 297.160,2.000 297.600 M83.200 297.600 C 83.200 298.040,83.380 298.400,83.600 298.400 C 83.820 298.400,84.000 298.040,84.000 297.600 C 84.000 297.160,83.820 296.800,83.600 296.800 C 83.380 296.800,83.200 297.160,83.200 297.600 M1.200 300.200 C 1.200 300.750,1.380 301.200,1.600 301.200 C 1.820 301.200,2.000 300.750,2.000 300.200 C 2.000 299.650,1.820 299.200,1.600 299.200 C 1.380 299.200,1.200 299.650,1.200 300.200 M84.000 300.200 C 84.000 300.750,84.180 301.200,84.400 301.200 C 84.620 301.200,84.800 300.750,84.800 300.200 C 84.800 299.650,84.620 299.200,84.400 299.200 C 84.180 299.200,84.000 299.650,84.000 300.200 M0.400 303.576 C 0.400 304.223,0.580 304.864,0.800 305.000 C 1.038 305.147,1.200 304.671,1.200 303.824 C 1.200 303.041,1.020 302.400,0.800 302.400 C 0.580 302.400,0.400 302.929,0.400 303.576 M84.800 303.800 C 84.800 304.570,84.980 305.200,85.200 305.200 C 85.420 305.200,85.600 304.570,85.600 303.800 C 85.600 303.030,85.420 302.400,85.200 302.400 C 84.980 302.400,84.800 303.030,84.800 303.800 M0.081 310.600 C 0.082 312.938,0.136 313.169,0.412 312.000 C 0.594 311.230,0.594 309.970,0.412 309.200 C 0.135 308.031,0.080 308.261,0.081 310.600 M85.600 310.600 C 85.600 312.067,85.774 313.200,86.000 313.200 C 86.226 313.200,86.400 312.067,86.400 310.600 C 86.400 309.133,86.226 308.000,86.000 308.000 C 85.774 308.000,85.600 309.133,85.600 310.600 M0.075 434.800 C 0.080 437.100,0.120 437.234,0.422 435.960 C 0.612 435.157,0.609 434.006,0.416 433.360 C 0.137 432.429,0.070 432.713,0.075 434.800 M85.600 434.800 C 85.600 436.133,85.778 437.200,86.000 437.200 C 86.222 437.200,86.400 436.133,86.400 434.800 C 86.400 433.467,86.222 432.400,86.000 432.400 C 85.778 432.400,85.600 433.467,85.600 434.800 M0.400 441.600 C 0.400 442.260,0.580 442.800,0.800 442.800 C 1.020 442.800,1.200 442.260,1.200 441.600 C 1.200 440.940,1.020 440.400,0.800 440.400 C 0.580 440.400,0.400 440.940,0.400 441.600 M84.800 441.600 C 84.800 442.260,84.980 442.800,85.200 442.800 C 85.420 442.800,85.600 442.260,85.600 441.600 C 85.600 440.940,85.420 440.400,85.200 440.400 C 84.980 440.400,84.800 440.940,84.800 441.600 M1.200 445.200 C 1.200 445.640,1.380 446.000,1.600 446.000 C 1.820 446.000,2.000 445.640,2.000 445.200 C 2.000 444.760,1.820 444.400,1.600 444.400 C 1.380 444.400,1.200 444.760,1.200 445.200 M84.000 445.200 C 84.000 445.640,84.180 446.000,84.400 446.000 C 84.620 446.000,84.800 445.640,84.800 445.200 C 84.800 444.760,84.620 444.400,84.400 444.400 C 84.180 444.400,84.000 444.760,84.000 445.200 M2.000 447.600 C 2.000 448.040,2.180 448.400,2.400 448.400 C 2.620 448.400,2.800 448.040,2.800 447.600 C 2.800 447.160,2.620 446.800,2.400 446.800 C 2.180 446.800,2.000 447.160,2.000 447.600 M83.200 447.600 C 83.200 448.040,83.380 448.400,83.600 448.400 C 83.820 448.400,84.000 448.040,84.000 447.600 C 84.000 447.160,83.820 446.800,83.600 446.800 C 83.380 446.800,83.200 447.160,83.200 447.600 M2.800 449.400 C 2.800 449.730,2.980 450.000,3.200 450.000 C 3.420 450.000,3.600 449.730,3.600 449.400 C 3.600 449.070,3.420 448.800,3.200 448.800 C 2.980 448.800,2.800 449.070,2.800 449.400 M82.400 449.400 C 82.400 449.730,82.580 450.000,82.800 450.000 C 83.020 450.000,83.200 449.730,83.200 449.400 C 83.200 449.070,83.020 448.800,82.800 448.800 C 82.580 448.800,82.400 449.070,82.400 449.400 M3.600 451.000 C 3.600 451.330,3.780 451.600,4.000 451.600 C 4.220 451.600,4.400 451.330,4.400 451.000 C 4.400 450.670,4.220 450.400,4.000 450.400 C 3.780 450.400,3.600 450.670,3.600 451.000 M81.600 451.000 C 81.600 451.330,81.780 451.600,82.000 451.600 C 82.220 451.600,82.400 451.330,82.400 451.000 C 82.400 450.670,82.220 450.400,82.000 450.400 C 81.780 450.400,81.600 450.670,81.600 451.000 M4.400 452.600 C 4.400 452.930,4.580 453.200,4.800 453.200 C 5.020 453.200,5.200 452.930,5.200 452.600 C 5.200 452.270,5.020 452.000,4.800 452.000 C 4.580 452.000,4.400 452.270,4.400 452.600 M80.800 452.600 C 80.800 452.930,80.980 453.200,81.200 453.200 C 81.420 453.200,81.600 452.930,81.600 452.600 C 81.600 452.270,81.420 452.000,81.200 452.000 C 80.980 452.000,80.800 452.270,80.800 452.600 M5.200 454.200 C 5.200 454.530,5.380 454.800,5.600 454.800 C 5.820 454.800,6.000 454.530,6.000 454.200 C 6.000 453.870,5.820 453.600,5.600 453.600 C 5.380 453.600,5.200 453.870,5.200 454.200 M80.000 454.200 C 80.000 454.530,80.180 454.800,80.400 454.800 C 80.620 454.800,80.800 454.530,80.800 454.200 C 80.800 453.870,80.620 453.600,80.400 453.600 C 80.180 453.600,80.000 453.870,80.000 454.200 M6.800 456.600 C 6.800 456.930,6.980 457.200,7.200 457.200 C 7.420 457.200,7.600 456.930,7.600 456.600 C 7.600 456.270,7.420 456.000,7.200 456.000 C 6.980 456.000,6.800 456.270,6.800 456.600 M78.400 456.600 C 78.400 456.930,78.580 457.200,78.800 457.200 C 79.020 457.200,79.200 456.930,79.200 456.600 C 79.200 456.270,79.020 456.000,78.800 456.000 C 78.580 456.000,78.400 456.270,78.400 456.600 M8.400 458.800 C 8.400 459.020,8.580 459.200,8.800 459.200 C 9.020 459.200,9.200 459.470,9.200 459.800 C 9.200 460.130,9.377 460.400,9.594 460.400 C 9.810 460.400,11.354 461.766,13.024 463.437 C 14.694 465.107,16.153 466.381,16.266 466.267 C 16.469 466.065,9.005 458.400,8.605 458.400 C 8.492 458.400,8.400 458.580,8.400 458.800 M73.264 462.262 C 71.210 464.352,69.659 466.183,69.819 466.331 C 69.979 466.479,70.190 466.375,70.288 466.100 C 70.386 465.825,70.722 465.600,71.033 465.600 C 71.345 465.600,71.600 465.424,71.600 465.209 C 71.600 464.699,75.899 460.400,76.409 460.400 C 76.624 460.400,76.800 460.130,76.800 459.800 C 76.800 459.470,76.980 459.200,77.200 459.200 C 77.420 459.200,77.600 459.020,77.600 458.800 C 77.600 457.999,76.931 458.533,73.264 462.262 M17.600 467.600 C 17.600 467.820,17.870 468.000,18.200 468.000 C 18.530 468.000,18.800 467.820,18.800 467.600 C 18.800 467.380,18.530 467.200,18.200 467.200 C 17.870 467.200,17.600 467.380,17.600 467.600 M67.200 467.600 C 67.200 467.820,67.470 468.000,67.800 468.000 C 68.130 468.000,68.400 467.820,68.400 467.600 C 68.400 467.380,68.130 467.200,67.800 467.200 C 67.470 467.200,67.200 467.380,67.200 467.600 M20.000 469.200 C 20.000 469.420,20.270 469.600,20.600 469.600 C 20.930 469.600,21.200 469.420,21.200 469.200 C 21.200 468.980,20.930 468.800,20.600 468.800 C 20.270 468.800,20.000 468.980,20.000 469.200 M64.800 469.200 C 64.800 469.420,65.070 469.600,65.400 469.600 C 65.730 469.600,66.000 469.420,66.000 469.200 C 66.000 468.980,65.730 468.800,65.400 468.800 C 65.070 468.800,64.800 468.980,64.800 469.200 M21.600 470.000 C 21.600 470.220,21.870 470.400,22.200 470.400 C 22.530 470.400,22.800 470.220,22.800 470.000 C 22.800 469.780,22.530 469.600,22.200 469.600 C 21.870 469.600,21.600 469.780,21.600 470.000 M63.200 470.000 C 63.200 470.220,63.470 470.400,63.800 470.400 C 64.130 470.400,64.400 470.220,64.400 470.000 C 64.400 469.780,64.130 469.600,63.800 469.600 C 63.470 469.600,63.200 469.780,63.200 470.000 M23.200 470.800 C 23.200 471.020,23.470 471.200,23.800 471.200 C 24.130 471.200,24.400 471.020,24.400 470.800 C 24.400 470.580,24.130 470.400,23.800 470.400 C 23.470 470.400,23.200 470.580,23.200 470.800 M61.600 470.800 C 61.600 471.020,61.870 471.200,62.200 471.200 C 62.530 471.200,62.800 471.020,62.800 470.800 C 62.800 470.580,62.530 470.400,62.200 470.400 C 61.870 470.400,61.600 470.580,61.600 470.800 M24.800 471.600 C 24.800 471.820,25.070 472.000,25.400 472.000 C 25.730 472.000,26.000 471.820,26.000 471.600 C 26.000 471.380,25.730 471.200,25.400 471.200 C 25.070 471.200,24.800 471.380,24.800 471.600 M60.000 471.600 C 60.000 471.820,60.270 472.000,60.600 472.000 C 60.930 472.000,61.200 471.820,61.200 471.600 C 61.200 471.380,60.930 471.200,60.600 471.200 C 60.270 471.200,60.000 471.380,60.000 471.600 M26.400 472.400 C 26.400 472.620,26.760 472.800,27.200 472.800 C 27.640 472.800,28.000 472.620,28.000 472.400 C 28.000 472.180,27.640 472.000,27.200 472.000 C 26.760 472.000,26.400 472.180,26.400 472.400 M58.000 472.400 C 58.000 472.620,58.360 472.800,58.800 472.800 C 59.240 472.800,59.600 472.620,59.600 472.400 C 59.600 472.180,59.240 472.000,58.800 472.000 C 58.360 472.000,58.000 472.180,58.000 472.400 M28.800 473.200 C 28.800 473.420,29.160 473.600,29.600 473.600 C 30.040 473.600,30.400 473.420,30.400 473.200 C 30.400 472.980,30.040 472.800,29.600 472.800 C 29.160 472.800,28.800 472.980,28.800 473.200 M55.600 473.200 C 55.600 473.420,55.960 473.600,56.400 473.600 C 56.840 473.600,57.200 473.420,57.200 473.200 C 57.200 472.980,56.840 472.800,56.400 472.800 C 55.960 472.800,55.600 472.980,55.600 473.200 M31.200 474.000 C 31.200 474.220,31.650 474.400,32.200 474.400 C 32.750 474.400,33.200 474.220,33.200 474.000 C 33.200 473.780,32.750 473.600,32.200 473.600 C 31.650 473.600,31.200 473.780,31.200 474.000 M52.800 474.000 C 52.800 474.220,53.250 474.400,53.800 474.400 C 54.350 474.400,54.800 474.220,54.800 474.000 C 54.800 473.780,54.350 473.600,53.800 473.600 C 53.250 473.600,52.800 473.780,52.800 474.000 M35.700 474.676 C 36.085 474.776,36.715 474.776,37.100 474.676 C 37.485 474.575,37.170 474.493,36.400 474.493 C 35.630 474.493,35.315 474.575,35.700 474.676 M48.900 474.676 C 49.285 474.776,49.915 474.776,50.300 474.676 C 50.685 474.575,50.370 474.493,49.600 474.493 C 48.830 474.493,48.515 474.575,48.900 474.676 " stroke="none" fill="#d4d4d4" fill-rule="evenodd"></path>
  </g>
</svg>