<svg id="svg" version="1.1" xmlns="http://www.w3.org/2000/svg" xmlns:xlink="http://www.w3.org/1999/xlink" width="400" height="474.01574803149606" viewBox="0, 0, 400,474.01574803149606">
  <g id="svgg">
    <path id="path0" d="M349.900 0.268 C 348.415 0.361,347.200 0.608,347.200 0.818 C 347.200 1.028,346.570 1.200,345.800 1.200 C 345.030 1.200,344.400 1.380,344.400 1.600 C 344.400 1.820,343.770 2.000,343.000 2.000 C 342.230 2.000,341.600 2.180,341.600 2.400 C 341.600 2.620,341.366 2.800,341.080 2.800 C 340.344 2.800,338.407 3.741,338.403 4.100 C 338.401 4.265,338.040 4.400,337.600 4.400 C 337.160 4.400,336.800 4.580,336.800 4.800 C 336.800 5.020,336.440 5.200,336.000 5.200 C 335.560 5.200,335.200 5.380,335.200 5.600 C 335.200 5.820,334.880 6.000,334.488 6.000 C 334.097 6.000,333.517 6.360,333.200 6.800 C 332.883 7.240,332.343 7.600,332.000 7.600 C 331.657 7.600,331.117 7.960,330.800 8.400 C 330.483 8.840,330.012 9.200,329.753 9.200 C 328.862 9.200,320.800 17.669,320.800 18.604 C 320.800 18.743,320.290 19.608,319.667 20.528 C 318.382 22.425,317.842 23.593,317.944 24.254 C 317.983 24.504,317.744 24.813,317.414 24.939 C 317.084 25.066,316.911 25.423,317.030 25.733 C 317.149 26.043,316.969 26.403,316.630 26.533 C 316.274 26.670,316.113 27.029,316.250 27.385 C 316.379 27.723,316.312 28.000,316.100 28.000 C 315.263 28.000,314.331 33.485,314.110 39.712 C 313.987 43.183,313.731 46.119,313.543 46.235 C 313.353 46.353,313.200 131.554,313.200 237.000 C 313.200 342.446,313.353 427.647,313.543 427.765 C 313.731 427.881,313.987 430.817,314.110 434.288 C 314.331 440.515,315.263 446.000,316.100 446.000 C 316.312 446.000,316.379 446.277,316.250 446.615 C 316.113 446.971,316.274 447.330,316.630 447.467 C 316.969 447.597,317.153 447.945,317.040 448.241 C 316.926 448.537,317.139 448.950,317.513 449.159 C 317.887 449.369,318.077 449.656,317.935 449.798 C 316.862 450.872,327.813 464.800,329.731 464.800 C 330.002 464.800,330.483 465.160,330.800 465.600 C 331.117 466.040,331.657 466.400,332.000 466.400 C 332.343 466.400,332.883 466.760,333.200 467.200 C 333.517 467.640,334.097 468.000,334.488 468.000 C 334.880 468.000,335.200 468.180,335.200 468.400 C 335.200 468.620,335.560 468.800,336.000 468.800 C 336.440 468.800,336.800 468.980,336.800 469.200 C 336.800 469.420,337.160 469.600,337.600 469.600 C 338.040 469.600,338.401 469.735,338.403 469.900 C 338.407 470.259,340.344 471.200,341.080 471.200 C 341.366 471.200,341.600 471.380,341.600 471.600 C 341.600 471.820,342.230 472.000,343.000 472.000 C 343.770 472.000,344.400 472.180,344.400 472.400 C 344.400 472.620,345.015 472.800,345.767 472.800 C 346.518 472.800,347.207 473.021,347.297 473.292 C 347.532 473.997,365.363 473.997,366.068 473.292 C 366.339 473.021,366.963 472.800,367.456 472.800 C 367.949 472.800,368.464 472.620,368.600 472.400 C 368.736 472.180,369.456 472.000,370.200 472.000 C 370.944 472.000,371.664 471.820,371.800 471.600 C 371.936 471.380,372.397 471.200,372.824 471.200 C 373.251 471.200,373.600 471.020,373.600 470.800 C 373.600 470.580,373.960 470.400,374.400 470.400 C 374.840 470.400,375.200 470.220,375.200 470.000 C 375.200 469.780,375.560 469.600,376.000 469.600 C 376.440 469.600,376.801 469.465,376.803 469.300 C 376.807 468.963,378.725 468.000,379.391 468.000 C 379.629 468.000,380.083 467.640,380.400 467.200 C 380.717 466.760,381.257 466.400,381.600 466.400 C 381.943 466.400,382.483 466.040,382.800 465.600 C 383.117 465.160,383.519 464.800,383.694 464.800 C 384.108 464.800,390.800 458.108,390.800 457.694 C 390.800 457.519,391.160 457.117,391.600 456.800 C 392.040 456.483,392.400 455.943,392.400 455.600 C 392.400 455.257,392.760 454.717,393.200 454.400 C 393.640 454.083,394.000 453.629,394.000 453.391 C 394.000 452.725,394.963 450.807,395.300 450.803 C 395.465 450.801,395.600 450.440,395.600 450.000 C 395.600 449.560,395.780 449.200,396.000 449.200 C 396.220 449.200,396.400 448.840,396.400 448.400 C 396.400 447.960,396.580 447.600,396.800 447.600 C 397.020 447.600,397.200 447.251,397.200 446.824 C 397.200 446.397,397.380 445.936,397.600 445.800 C 397.820 445.664,398.000 444.933,398.000 444.176 C 398.000 443.419,398.180 442.800,398.400 442.800 C 398.622 442.800,398.800 441.744,398.800 440.433 C 398.800 438.896,398.975 438.008,399.300 437.900 C 400.036 437.655,400.036 36.345,399.300 36.100 C 398.975 35.992,398.800 35.104,398.800 33.567 C 398.800 32.256,398.622 31.200,398.400 31.200 C 398.180 31.200,398.000 30.581,398.000 29.824 C 398.000 29.067,397.820 28.336,397.600 28.200 C 397.380 28.064,397.200 27.603,397.200 27.176 C 397.200 26.749,397.020 26.400,396.800 26.400 C 396.580 26.400,396.400 26.040,396.400 25.600 C 396.400 25.160,396.265 24.799,396.100 24.797 C 395.741 24.793,394.800 22.856,394.800 22.120 C 394.800 21.834,394.620 21.600,394.400 21.600 C 394.180 21.600,394.000 21.280,394.000 20.888 C 394.000 20.497,393.640 19.917,393.200 19.600 C 392.760 19.283,392.400 18.743,392.400 18.400 C 392.400 18.057,392.040 17.517,391.600 17.200 C 391.160 16.883,390.800 16.481,390.800 16.306 C 390.800 15.892,384.108 9.200,383.694 9.200 C 383.519 9.200,383.117 8.840,382.800 8.400 C 382.483 7.960,381.905 7.600,381.515 7.600 C 381.126 7.600,380.582 7.240,380.307 6.800 C 380.032 6.360,379.491 6.000,379.104 6.000 C 378.717 6.000,378.400 5.820,378.400 5.600 C 378.400 5.380,378.040 5.200,377.600 5.200 C 377.160 5.200,376.800 5.020,376.800 4.800 C 376.800 4.580,376.440 4.400,376.000 4.400 C 375.560 4.400,375.200 4.220,375.200 4.000 C 375.200 3.780,374.840 3.600,374.400 3.600 C 373.960 3.600,373.600 3.420,373.600 3.200 C 373.600 2.980,373.251 2.800,372.824 2.800 C 372.397 2.800,371.936 2.620,371.800 2.400 C 371.664 2.180,370.933 2.000,370.176 2.000 C 369.419 2.000,368.800 1.820,368.800 1.600 C 368.800 1.380,368.296 1.200,367.680 1.200 C 367.064 1.200,366.386 1.026,366.172 0.812 C 365.746 0.386,354.191 -0.001,349.900 0.268 M245.659 64.769 C 244.261 64.943,242.976 65.316,242.802 65.597 C 242.606 65.914,242.107 66.013,241.489 65.858 C 240.841 65.696,240.319 65.815,240.000 66.200 C 239.690 66.574,239.156 66.704,238.554 66.553 C 237.847 66.375,237.600 66.479,237.600 66.952 C 237.600 67.369,237.287 67.566,236.700 67.520 C 235.711 67.442,229.600 70.317,229.600 70.861 C 229.600 71.047,229.280 71.200,228.888 71.200 C 228.497 71.200,227.917 71.560,227.600 72.000 C 227.283 72.440,226.799 72.800,226.526 72.800 C 225.935 72.800,217.600 81.046,217.600 81.631 C 217.600 81.852,217.236 82.425,216.790 82.903 C 216.345 83.381,216.063 83.988,216.165 84.253 C 216.266 84.517,216.114 84.824,215.827 84.934 C 215.260 85.152,213.200 89.029,213.200 89.879 C 213.200 90.165,213.020 90.400,212.800 90.400 C 212.580 90.400,212.400 90.850,212.400 91.400 C 212.400 91.950,212.220 92.400,212.000 92.400 C 211.780 92.400,211.600 93.120,211.600 94.000 C 211.600 94.880,211.420 95.600,211.200 95.600 C 210.980 95.600,210.800 96.500,210.800 97.600 C 210.800 98.700,210.620 99.600,210.400 99.600 C 210.154 99.600,210.000 101.600,210.000 104.800 C 210.000 108.000,209.846 110.000,209.600 110.000 C 209.334 110.000,209.200 163.333,209.200 269.200 C 209.200 375.067,209.334 428.400,209.600 428.400 C 209.846 428.400,210.000 430.400,210.000 433.600 C 210.000 436.800,210.154 438.800,210.400 438.800 C 210.620 438.800,210.800 439.700,210.800 440.800 C 210.800 441.900,210.980 442.800,211.200 442.800 C 211.420 442.800,211.600 443.520,211.600 444.400 C 211.600 445.280,211.780 446.000,212.000 446.000 C 212.220 446.000,212.400 446.439,212.400 446.976 C 212.400 447.513,212.580 448.064,212.800 448.200 C 213.020 448.336,213.200 448.797,213.200 449.224 C 213.200 449.651,213.380 450.000,213.600 450.000 C 213.820 450.000,214.000 450.360,214.000 450.800 C 214.000 451.240,214.180 451.600,214.400 451.600 C 214.620 451.600,214.800 451.958,214.800 452.397 C 214.800 452.835,215.142 453.407,215.560 453.668 C 215.978 453.929,216.233 454.370,216.127 454.647 C 216.020 454.924,216.308 455.386,216.767 455.672 C 217.225 455.958,217.600 456.375,217.600 456.597 C 217.600 457.208,225.894 465.600,226.498 465.600 C 226.787 465.600,227.283 465.960,227.600 466.400 C 227.917 466.840,228.457 467.200,228.800 467.200 C 229.143 467.200,229.683 467.560,230.000 468.000 C 230.317 468.440,230.897 468.800,231.288 468.800 C 231.680 468.800,232.000 468.980,232.000 469.200 C 232.000 469.420,232.360 469.600,232.800 469.600 C 233.240 469.600,233.600 469.780,233.600 470.000 C 233.600 470.220,233.949 470.400,234.376 470.400 C 234.803 470.400,235.264 470.580,235.400 470.800 C 235.536 471.020,236.087 471.200,236.624 471.200 C 237.161 471.200,237.600 471.380,237.600 471.600 C 237.600 471.820,238.140 472.000,238.800 472.000 C 239.460 472.000,240.000 472.180,240.000 472.400 C 240.000 472.620,240.594 472.800,241.320 472.800 C 242.046 472.800,242.865 473.025,243.140 473.300 C 243.856 474.016,261.263 474.011,261.501 473.296 C 261.595 473.014,262.343 472.800,263.233 472.800 C 264.095 472.800,264.800 472.620,264.800 472.400 C 264.800 472.180,265.340 472.000,266.000 472.000 C 266.660 472.000,267.200 471.820,267.200 471.600 C 267.200 471.380,267.639 471.200,268.176 471.200 C 268.713 471.200,269.264 471.020,269.400 470.800 C 269.536 470.580,269.997 470.400,270.424 470.400 C 270.851 470.400,271.200 470.220,271.200 470.000 C 271.200 469.780,271.560 469.600,272.000 469.600 C 272.440 469.600,272.800 469.420,272.800 469.200 C 272.800 468.980,273.120 468.800,273.512 468.800 C 273.903 468.800,274.483 468.440,274.800 468.000 C 275.117 467.560,275.657 467.200,276.000 467.200 C 276.343 467.200,276.883 466.840,277.200 466.400 C 277.517 465.960,277.997 465.600,278.266 465.600 C 278.535 465.600,279.440 464.870,280.277 463.978 C 281.115 463.085,282.925 461.243,284.300 459.883 C 285.675 458.524,286.800 457.186,286.800 456.909 C 286.800 456.633,287.160 456.182,287.600 455.907 C 288.040 455.632,288.400 455.173,288.400 454.887 C 288.400 454.601,288.760 453.980,289.200 453.508 C 289.640 453.036,290.000 452.413,290.000 452.125 C 290.000 451.836,290.180 451.600,290.400 451.600 C 290.620 451.600,290.800 451.335,290.800 451.012 C 290.800 450.689,291.160 449.783,291.600 449.000 C 292.040 448.217,292.400 447.232,292.400 446.811 C 292.400 446.391,292.580 445.936,292.800 445.800 C 293.020 445.664,293.200 444.933,293.200 444.176 C 293.200 443.419,293.380 442.800,293.600 442.800 C 293.820 442.800,294.000 441.900,294.000 440.800 C 294.000 439.700,294.180 438.800,294.400 438.800 C 294.646 438.800,294.800 436.800,294.800 433.600 C 294.800 430.400,294.954 428.400,295.200 428.400 C 295.466 428.400,295.600 375.141,295.600 269.424 C 295.600 163.871,295.466 110.364,295.200 110.200 C 294.967 110.056,294.800 107.796,294.800 104.776 C 294.800 101.592,294.646 99.600,294.400 99.600 C 294.180 99.600,294.000 98.700,294.000 97.600 C 294.000 96.500,293.820 95.600,293.600 95.600 C 293.380 95.600,293.200 94.981,293.200 94.224 C 293.200 93.467,293.020 92.736,292.800 92.600 C 292.580 92.464,292.400 91.913,292.400 91.376 C 292.400 90.839,292.220 90.400,292.000 90.400 C 291.780 90.400,291.600 90.040,291.600 89.600 C 291.600 89.160,291.420 88.800,291.200 88.800 C 290.980 88.800,290.800 88.440,290.800 88.000 C 290.800 87.560,290.620 87.200,290.400 87.200 C 290.180 87.200,290.000 86.880,290.000 86.488 C 290.000 86.097,289.640 85.517,289.200 85.200 C 288.760 84.883,288.400 84.343,288.400 84.000 C 288.400 83.657,288.040 83.117,287.600 82.800 C 287.160 82.483,286.800 81.964,286.800 81.647 C 286.800 81.055,278.854 72.802,278.283 72.801 C 278.109 72.800,277.580 72.440,277.108 72.000 C 276.636 71.560,276.013 71.200,275.725 71.200 C 275.436 71.200,275.200 71.047,275.200 70.861 C 275.200 70.330,269.101 67.441,268.140 67.517 C 267.667 67.554,267.176 67.314,267.049 66.982 C 266.892 66.574,266.510 66.457,265.863 66.620 C 265.199 66.787,264.834 66.665,264.663 66.220 C 264.491 65.771,264.128 65.653,263.446 65.824 C 262.854 65.973,262.088 65.814,261.480 65.416 C 260.315 64.652,249.978 64.229,245.659 64.769 M140.000 168.353 C 140.000 168.815,141.519 169.206,142.239 168.930 C 143.284 168.529,142.807 168.000,141.400 168.000 C 140.630 168.000,140.000 168.159,140.000 168.353 M153.700 168.500 C 153.792 168.775,154.077 168.982,154.333 168.960 C 154.590 168.938,155.171 168.893,155.624 168.860 C 156.895 168.767,156.109 168.000,154.743 168.000 C 153.953 168.000,153.591 168.173,153.700 168.500 M136.800 169.133 C 136.800 169.697,137.251 169.955,137.839 169.730 C 138.674 169.409,138.517 168.800,137.600 168.800 C 137.160 168.800,136.800 168.950,136.800 169.133 M158.000 169.133 C 158.000 169.696,158.450 169.956,159.037 169.731 C 159.344 169.613,159.496 169.355,159.374 169.158 C 159.095 168.706,158.000 168.687,158.000 169.133 M116.469 180.710 C 115.297 181.958,114.530 183.043,114.764 183.121 C 115.228 183.276,119.200 179.382,119.200 178.773 C 119.200 178.029,118.560 178.482,116.469 180.710 M176.809 178.700 C 176.824 179.200,181.194 183.339,181.444 183.090 C 181.665 182.868,177.440 178.400,177.009 178.400 C 176.894 178.400,176.804 178.535,176.809 178.700 M182.800 186.000 C 182.800 186.220,183.070 186.400,183.400 186.400 C 183.730 186.400,184.000 186.220,184.000 186.000 C 184.000 185.780,183.730 185.600,183.400 185.600 C 183.070 185.600,182.800 185.780,182.800 186.000 M110.800 188.200 C 110.800 188.530,110.980 188.800,111.200 188.800 C 111.420 188.800,111.600 188.530,111.600 188.200 C 111.600 187.870,111.420 187.600,111.200 187.600 C 110.980 187.600,110.800 187.870,110.800 188.200 M184.656 187.878 C 184.205 188.328,184.381 188.800,185.000 188.800 C 185.330 188.800,185.600 188.631,185.600 188.424 C 185.600 187.919,184.975 187.558,184.656 187.878 M109.200 190.600 C 109.200 190.930,109.380 191.200,109.600 191.200 C 109.820 191.200,110.000 190.930,110.000 190.600 C 110.000 190.270,109.820 190.000,109.600 190.000 C 109.380 190.000,109.200 190.270,109.200 190.600 M186.210 190.384 C 185.871 190.933,186.171 191.345,186.762 191.142 C 187.004 191.058,187.035 190.776,186.837 190.457 C 186.587 190.055,186.425 190.036,186.210 190.384 M108.400 192.200 C 108.400 192.530,108.580 192.800,108.800 192.800 C 109.020 192.800,109.200 192.530,109.200 192.200 C 109.200 191.870,109.020 191.600,108.800 191.600 C 108.580 191.600,108.400 191.870,108.400 192.200 M107.600 193.800 C 107.600 194.130,107.780 194.400,108.000 194.400 C 108.220 194.400,108.400 194.130,108.400 193.800 C 108.400 193.470,108.220 193.200,108.000 193.200 C 107.780 193.200,107.600 193.470,107.600 193.800 M106.800 196.200 C 106.800 196.530,106.980 196.800,107.200 196.800 C 107.420 196.800,107.600 196.530,107.600 196.200 C 107.600 195.870,107.420 195.600,107.200 195.600 C 106.980 195.600,106.800 195.870,106.800 196.200 M188.400 196.200 C 188.400 196.530,188.580 196.800,188.800 196.800 C 189.020 196.800,189.200 196.530,189.200 196.200 C 189.200 195.870,189.020 195.600,188.800 195.600 C 188.580 195.600,188.400 195.870,188.400 196.200 M106.000 198.600 C 106.000 198.930,106.180 199.200,106.400 199.200 C 106.620 199.200,106.800 198.930,106.800 198.600 C 106.800 198.270,106.620 198.000,106.400 198.000 C 106.180 198.000,106.000 198.270,106.000 198.600 M189.200 198.600 C 189.200 198.930,189.380 199.200,189.600 199.200 C 189.820 199.200,190.000 198.930,190.000 198.600 C 190.000 198.270,189.820 198.000,189.600 198.000 C 189.380 198.000,189.200 198.270,189.200 198.600 M105.200 202.200 C 105.200 202.750,105.380 203.200,105.600 203.200 C 105.820 203.200,106.000 202.750,106.000 202.200 C 106.000 201.650,105.820 201.200,105.600 201.200 C 105.380 201.200,105.200 201.650,105.200 202.200 M190.000 202.200 C 190.000 202.750,190.180 203.200,190.400 203.200 C 190.620 203.200,190.800 202.750,190.800 202.200 C 190.800 201.650,190.620 201.200,190.400 201.200 C 190.180 201.200,190.000 201.650,190.000 202.200 M104.400 209.200 C 104.400 210.533,104.578 211.600,104.800 211.600 C 105.022 211.600,105.200 210.533,105.200 209.200 C 105.200 207.867,105.022 206.800,104.800 206.800 C 104.578 206.800,104.400 207.867,104.400 209.200 M190.800 209.200 C 190.800 210.533,190.978 211.600,191.200 211.600 C 191.422 211.600,191.600 210.533,191.600 209.200 C 191.600 207.867,191.422 206.800,191.200 206.800 C 190.978 206.800,190.800 207.867,190.800 209.200 M35.200 269.953 C 35.200 270.393,36.366 270.692,37.300 270.491 C 38.538 270.226,38.046 269.600,36.600 269.600 C 35.830 269.600,35.200 269.759,35.200 269.953 M48.800 269.967 C 48.800 270.168,49.018 270.406,49.285 270.495 C 50.051 270.750,51.614 270.346,51.372 269.954 C 51.082 269.485,48.800 269.496,48.800 269.967 M32.000 270.800 C 32.000 271.020,32.360 271.200,32.800 271.200 C 33.240 271.200,33.600 271.020,33.600 270.800 C 33.600 270.580,33.240 270.400,32.800 270.400 C 32.360 270.400,32.000 270.580,32.000 270.800 M53.200 270.800 C 53.200 271.020,53.560 271.200,54.000 271.200 C 54.440 271.200,54.800 271.020,54.800 270.800 C 54.800 270.580,54.440 270.400,54.000 270.400 C 53.560 270.400,53.200 270.580,53.200 270.800 M23.200 274.000 C 23.200 274.220,23.470 274.400,23.800 274.400 C 24.130 274.400,24.400 274.220,24.400 274.000 C 24.400 273.780,24.130 273.600,23.800 273.600 C 23.470 273.600,23.200 273.780,23.200 274.000 M21.600 274.800 C 21.600 275.020,21.870 275.200,22.200 275.200 C 22.530 275.200,22.800 275.020,22.800 274.800 C 22.800 274.580,22.530 274.400,22.200 274.400 C 21.870 274.400,21.600 274.580,21.600 274.800 M19.200 276.400 C 19.200 276.620,19.470 276.800,19.800 276.800 C 20.130 276.800,20.400 276.620,20.400 276.400 C 20.400 276.180,20.130 276.000,19.800 276.000 C 19.470 276.000,19.200 276.180,19.200 276.400 M16.800 278.000 C 16.800 278.220,17.070 278.400,17.400 278.400 C 17.730 278.400,18.000 278.220,18.000 278.000 C 18.000 277.780,17.730 277.600,17.400 277.600 C 17.070 277.600,16.800 277.780,16.800 278.000 M12.063 282.259 C 10.887 283.469,10.019 284.553,10.134 284.667 C 10.340 284.873,14.800 280.611,14.800 280.209 C 14.800 279.660,14.022 280.243,12.063 282.259 M72.000 280.209 C 72.000 280.612,76.460 284.873,76.667 284.667 C 76.781 284.552,75.872 283.455,74.646 282.229 C 72.549 280.132,72.000 279.713,72.000 280.209 M6.000 289.800 C 6.000 290.130,6.180 290.400,6.400 290.400 C 6.620 290.400,6.800 290.130,6.800 289.800 C 6.800 289.470,6.620 289.200,6.400 289.200 C 6.180 289.200,6.000 289.470,6.000 289.800 M4.400 292.200 C 4.400 292.530,4.580 292.800,4.800 292.800 C 5.020 292.800,5.200 292.530,5.200 292.200 C 5.200 291.870,5.020 291.600,4.800 291.600 C 4.580 291.600,4.400 291.870,4.400 292.200 M3.600 293.800 C 3.600 294.130,3.780 294.400,4.000 294.400 C 4.220 294.400,4.400 294.130,4.400 293.800 C 4.400 293.470,4.220 293.200,4.000 293.200 C 3.780 293.200,3.600 293.470,3.600 293.800 M2.800 295.400 C 2.800 295.730,2.980 296.000,3.200 296.000 C 3.420 296.000,3.600 295.730,3.600 295.400 C 3.600 295.070,3.420 294.800,3.200 294.800 C 2.980 294.800,2.800 295.070,2.800 295.400 M2.000 297.800 C 2.000 298.130,2.180 298.400,2.400 298.400 C 2.620 298.400,2.800 298.130,2.800 297.800 C 2.800 297.470,2.620 297.200,2.400 297.200 C 2.180 297.200,2.000 297.470,2.000 297.800 M1.200 300.200 C 1.200 300.530,1.380 300.800,1.600 300.800 C 1.820 300.800,2.000 300.530,2.000 300.200 C 2.000 299.870,1.820 299.600,1.600 299.600 C 1.380 299.600,1.200 299.870,1.200 300.200 M84.584 300.027 C 84.439 300.261,84.416 300.549,84.533 300.667 C 84.820 300.953,85.600 300.448,85.600 299.976 C 85.600 299.465,84.909 299.499,84.584 300.027 M0.400 303.800 C 0.400 304.350,0.580 304.800,0.800 304.800 C 1.020 304.800,1.200 304.350,1.200 303.800 C 1.200 303.250,1.020 302.800,0.800 302.800 C 0.580 302.800,0.400 303.250,0.400 303.800 M85.473 303.060 C 85.047 303.486,85.152 304.800,85.613 304.800 C 86.204 304.800,86.576 303.616,86.126 303.166 C 85.918 302.958,85.624 302.910,85.473 303.060 M0.128 310.800 C 0.128 312.230,0.201 312.815,0.289 312.100 C 0.378 311.385,0.378 310.215,0.289 309.500 C 0.201 308.785,0.128 309.370,0.128 310.800 M86.256 308.678 C 85.883 309.050,85.954 312.109,86.350 312.734 C 86.798 313.440,87.033 312.790,87.146 310.532 C 87.224 308.955,86.820 308.113,86.256 308.678 M0.128 433.600 C 0.128 435.030,0.201 435.615,0.289 434.900 C 0.378 434.185,0.378 433.015,0.289 432.300 C 0.201 431.585,0.128 432.170,0.128 433.600 M86.256 431.478 C 86.115 431.618,86.000 432.618,86.000 433.700 C 86.000 436.335,86.981 436.106,87.045 433.456 C 87.089 431.656,86.800 430.933,86.256 431.478 M104.400 433.376 C 104.400 434.573,104.580 435.664,104.800 435.800 C 105.050 435.954,105.200 435.137,105.200 433.624 C 105.200 432.275,105.023 431.200,104.800 431.200 C 104.580 431.200,104.400 432.179,104.400 433.376 M190.800 433.624 C 190.800 435.137,190.950 435.954,191.200 435.800 C 191.420 435.664,191.600 434.573,191.600 433.376 C 191.600 432.179,191.420 431.200,191.200 431.200 C 190.977 431.200,190.800 432.275,190.800 433.624 M0.400 440.200 C 0.400 440.750,0.580 441.200,0.800 441.200 C 1.020 441.200,1.200 440.750,1.200 440.200 C 1.200 439.650,1.020 439.200,0.800 439.200 C 0.580 439.200,0.400 439.650,0.400 440.200 M85.473 439.461 C 84.965 439.969,85.196 441.200,85.800 441.200 C 86.130 441.200,86.397 440.975,86.394 440.700 C 86.385 439.955,85.785 439.148,85.473 439.461 M105.200 440.200 C 105.200 440.750,105.380 441.200,105.600 441.200 C 105.820 441.200,106.000 440.750,106.000 440.200 C 106.000 439.650,105.820 439.200,105.600 439.200 C 105.380 439.200,105.200 439.650,105.200 440.200 M190.000 440.200 C 190.000 440.750,190.180 441.200,190.400 441.200 C 190.620 441.200,190.800 440.750,190.800 440.200 C 190.800 439.650,190.620 439.200,190.400 439.200 C 190.180 439.200,190.000 439.650,190.000 440.200 M1.200 443.800 C 1.200 444.130,1.380 444.400,1.600 444.400 C 1.820 444.400,2.000 444.130,2.000 443.800 C 2.000 443.470,1.820 443.200,1.600 443.200 C 1.380 443.200,1.200 443.470,1.200 443.800 M84.588 443.620 C 84.207 444.235,84.728 444.632,85.242 444.118 C 85.529 443.831,85.536 443.607,85.262 443.439 C 85.039 443.300,84.735 443.382,84.588 443.620 M106.000 443.800 C 106.000 444.130,106.180 444.400,106.400 444.400 C 106.620 444.400,106.800 444.130,106.800 443.800 C 106.800 443.470,106.620 443.200,106.400 443.200 C 106.180 443.200,106.000 443.470,106.000 443.800 M189.200 443.800 C 189.200 444.130,189.380 444.400,189.600 444.400 C 189.820 444.400,190.000 444.130,190.000 443.800 C 190.000 443.470,189.820 443.200,189.600 443.200 C 189.380 443.200,189.200 443.470,189.200 443.800 M2.800 448.600 C 2.800 448.930,2.980 449.200,3.200 449.200 C 3.420 449.200,3.600 448.930,3.600 448.600 C 3.600 448.270,3.420 448.000,3.200 448.000 C 2.980 448.000,2.800 448.270,2.800 448.600 M107.600 448.600 C 107.600 448.930,107.780 449.200,108.000 449.200 C 108.220 449.200,108.400 448.930,108.400 448.600 C 108.400 448.270,108.220 448.000,108.000 448.000 C 107.780 448.000,107.600 448.270,107.600 448.600 M187.600 448.600 C 187.600 448.930,187.780 449.200,188.000 449.200 C 188.220 449.200,188.400 448.930,188.400 448.600 C 188.400 448.270,188.220 448.000,188.000 448.000 C 187.780 448.000,187.600 448.270,187.600 448.600 M3.600 450.200 C 3.600 450.530,3.780 450.800,4.000 450.800 C 4.220 450.800,4.400 450.530,4.400 450.200 C 4.400 449.870,4.220 449.600,4.000 449.600 C 3.780 449.600,3.600 449.870,3.600 450.200 M108.400 450.200 C 108.400 450.530,108.580 450.800,108.800 450.800 C 109.020 450.800,109.200 450.530,109.200 450.200 C 109.200 449.870,109.020 449.600,108.800 449.600 C 108.580 449.600,108.400 449.870,108.400 450.200 M7.600 456.600 C 7.600 456.930,7.780 457.200,8.000 457.200 C 8.220 457.200,8.400 456.930,8.400 456.600 C 8.400 456.270,8.220 456.000,8.000 456.000 C 7.780 456.000,7.600 456.270,7.600 456.600 M78.400 456.600 C 78.400 456.930,78.580 457.200,78.800 457.200 C 79.020 457.200,79.200 456.930,79.200 456.600 C 79.200 456.270,79.020 456.000,78.800 456.000 C 78.580 456.000,78.400 456.270,78.400 456.600 M112.400 456.576 C 112.400 456.893,112.580 457.264,112.800 457.400 C 113.020 457.536,113.200 457.277,113.200 456.824 C 113.200 456.371,113.020 456.000,112.800 456.000 C 112.580 456.000,112.400 456.259,112.400 456.576 M182.984 456.427 C 182.839 456.661,182.816 456.949,182.933 457.067 C 183.220 457.353,184.000 456.848,184.000 456.376 C 184.000 455.865,183.309 455.899,182.984 456.427 M10.000 459.530 C 10.000 459.712,10.315 460.156,10.700 460.518 C 11.085 460.880,12.087 461.830,12.927 462.628 C 15.355 464.937,15.111 463.893,12.646 461.429 C 10.426 459.209,10.000 458.903,10.000 459.530 M74.063 461.459 C 72.887 462.669,72.019 463.752,72.133 463.867 C 72.351 464.084,76.800 459.867,76.800 459.443 C 76.800 458.859,76.060 459.404,74.063 461.459 M114.839 459.900 C 115.571 460.855,118.768 464.000,119.007 464.000 C 119.602 464.000,118.973 463.021,117.226 461.227 C 115.327 459.277,113.644 458.342,114.839 459.900 M178.863 461.489 C 177.687 462.682,176.819 463.752,176.933 463.867 C 177.048 463.981,178.150 463.082,179.383 461.869 C 180.616 460.655,181.484 459.585,181.312 459.490 C 181.141 459.396,180.038 460.295,178.863 461.489 M16.800 466.000 C 16.800 466.220,17.070 466.400,17.400 466.400 C 17.730 466.400,18.000 466.220,18.000 466.000 C 18.000 465.780,17.730 465.600,17.400 465.600 C 17.070 465.600,16.800 465.780,16.800 466.000 M19.200 467.600 C 19.200 467.820,19.470 468.000,19.800 468.000 C 20.130 468.000,20.400 467.820,20.400 467.600 C 20.400 467.380,20.130 467.200,19.800 467.200 C 19.470 467.200,19.200 467.380,19.200 467.600 M23.200 470.000 C 23.200 470.220,23.470 470.400,23.800 470.400 C 24.130 470.400,24.400 470.220,24.400 470.000 C 24.400 469.780,24.130 469.600,23.800 469.600 C 23.470 469.600,23.200 469.780,23.200 470.000 M24.800 470.800 C 24.800 471.020,25.070 471.200,25.400 471.200 C 25.730 471.200,26.000 471.020,26.000 470.800 C 26.000 470.580,25.730 470.400,25.400 470.400 C 25.070 470.400,24.800 470.580,24.800 470.800 M160.800 472.400 C 160.800 472.620,161.070 472.800,161.400 472.800 C 161.730 472.800,162.000 472.620,162.000 472.400 C 162.000 472.180,161.730 472.000,161.400 472.000 C 161.070 472.000,160.800 472.180,160.800 472.400 M32.000 473.200 C 32.000 473.420,32.360 473.600,32.800 473.600 C 33.240 473.600,33.600 473.420,33.600 473.200 C 33.600 472.980,33.240 472.800,32.800 472.800 C 32.360 472.800,32.000 472.980,32.000 473.200 M53.200 473.200 C 53.200 473.420,53.560 473.600,54.000 473.600 C 54.440 473.600,54.800 473.420,54.800 473.200 C 54.800 472.980,54.440 472.800,54.000 472.800 C 53.560 472.800,53.200 472.980,53.200 473.200 M136.800 473.200 C 136.800 473.420,137.160 473.600,137.600 473.600 C 138.040 473.600,138.400 473.420,138.400 473.200 C 138.400 472.980,138.040 472.800,137.600 472.800 C 137.160 472.800,136.800 472.980,136.800 473.200 M158.000 473.200 C 158.000 473.420,158.360 473.600,158.800 473.600 C 159.240 473.600,159.600 473.420,159.600 473.200 C 159.600 472.980,159.240 472.800,158.800 472.800 C 158.360 472.800,158.000 472.980,158.000 473.200 M35.905 473.883 C 36.402 473.979,37.122 473.975,37.505 473.875 C 37.887 473.775,37.480 473.696,36.600 473.701 C 35.720 473.705,35.407 473.787,35.905 473.883 M49.505 473.883 C 50.002 473.979,50.722 473.975,51.105 473.875 C 51.487 473.775,51.080 473.696,50.200 473.701 C 49.320 473.705,49.007 473.787,49.505 473.883 M140.300 473.882 C 140.795 473.978,141.605 473.978,142.100 473.882 C 142.595 473.787,142.190 473.709,141.200 473.709 C 140.210 473.709,139.805 473.787,140.300 473.882 M154.305 473.883 C 154.802 473.979,155.522 473.975,155.905 473.875 C 156.287 473.775,155.880 473.696,155.000 473.701 C 154.120 473.705,153.807 473.787,154.305 473.883 " stroke="none" fill="#d4d4d4" fill-rule="evenodd"></path>
    <path id="path1" d="M251.100 64.289 C 251.815 64.378,252.985 64.378,253.700 64.289 C 254.415 64.201,253.830 64.128,252.400 64.128 C 250.970 64.128,250.385 64.201,251.100 64.289 M142.518 168.580 C 142.186 168.957,141.516 169.059,140.377 168.906 C 139.218 168.751,138.618 168.847,138.384 169.225 C 138.183 169.551,137.482 169.729,136.625 169.671 C 135.841 169.618,135.200 169.761,135.200 169.987 C 135.200 170.214,134.660 170.400,134.000 170.400 C 133.340 170.400,132.800 170.580,132.800 170.800 C 132.800 171.020,132.249 171.200,131.576 171.200 C 130.863 171.200,130.456 171.367,130.600 171.600 C 130.740 171.827,130.404 172.000,129.824 172.000 C 129.261 172.000,128.800 172.180,128.800 172.400 C 128.800 172.620,128.440 172.800,128.000 172.800 C 127.560 172.800,127.200 172.980,127.200 173.200 C 127.200 173.420,126.880 173.600,126.488 173.600 C 126.097 173.600,125.517 173.960,125.200 174.400 C 124.883 174.840,124.343 175.200,124.000 175.200 C 123.657 175.200,123.117 175.560,122.800 176.000 C 122.483 176.440,121.948 176.805,121.612 176.812 C 121.275 176.819,120.550 177.368,120.000 178.033 C 118.412 179.954,115.275 183.200,115.008 183.200 C 114.465 183.200,112.952 185.057,113.110 185.530 C 113.203 185.809,112.901 186.365,112.440 186.766 C 111.978 187.166,111.600 187.744,111.600 188.051 C 111.600 188.357,111.240 188.832,110.800 189.107 C 110.360 189.382,110.000 189.965,110.000 190.403 C 110.000 190.842,109.820 191.200,109.600 191.200 C 109.380 191.200,109.200 191.560,109.200 192.000 C 109.200 192.440,109.020 192.800,108.800 192.800 C 108.580 192.800,108.400 193.160,108.400 193.600 C 108.400 194.040,108.220 194.400,108.000 194.400 C 107.780 194.400,107.600 194.940,107.600 195.600 C 107.600 196.260,107.420 196.800,107.200 196.800 C 106.980 196.800,106.800 197.340,106.800 198.000 C 106.800 198.660,106.620 199.200,106.400 199.200 C 106.180 199.200,106.000 200.100,106.000 201.200 C 106.000 202.300,105.820 203.200,105.600 203.200 C 105.359 203.200,105.200 204.867,105.200 207.400 C 105.200 209.933,105.041 211.600,104.800 211.600 C 104.534 211.600,104.400 248.467,104.400 321.400 C 104.400 394.333,104.534 431.200,104.800 431.200 C 105.040 431.200,105.200 432.800,105.200 435.200 C 105.200 437.600,105.360 439.200,105.600 439.200 C 105.820 439.200,106.000 440.100,106.000 441.200 C 106.000 442.300,106.180 443.200,106.400 443.200 C 106.620 443.200,106.800 443.830,106.800 444.600 C 106.800 445.370,106.980 446.000,107.200 446.000 C 107.420 446.000,107.600 446.450,107.600 447.000 C 107.600 447.550,107.780 448.000,108.000 448.000 C 108.220 448.000,108.400 448.360,108.400 448.800 C 108.400 449.240,108.580 449.600,108.800 449.600 C 109.020 449.600,109.200 450.050,109.200 450.600 C 109.200 451.150,109.380 451.600,109.600 451.600 C 109.820 451.600,110.000 451.920,110.000 452.312 C 110.000 452.703,110.360 453.283,110.800 453.600 C 111.240 453.917,111.600 454.485,111.600 454.861 C 111.600 455.238,111.960 455.660,112.400 455.800 C 112.892 455.956,113.200 456.405,113.200 456.965 C 113.200 457.814,114.290 459.200,114.957 459.200 C 115.266 459.200,118.287 462.296,120.000 464.367 C 120.550 465.032,121.275 465.581,121.612 465.588 C 121.948 465.595,122.483 465.960,122.800 466.400 C 123.117 466.840,123.657 467.200,124.000 467.200 C 124.343 467.200,124.883 467.560,125.200 468.000 C 125.517 468.440,126.097 468.800,126.488 468.800 C 126.880 468.800,127.200 468.980,127.200 469.200 C 127.200 469.420,127.560 469.600,128.000 469.600 C 128.440 469.600,128.800 469.780,128.800 470.000 C 128.800 470.220,129.261 470.400,129.824 470.400 C 130.404 470.400,130.740 470.573,130.600 470.800 C 130.456 471.033,130.863 471.200,131.576 471.200 C 132.249 471.200,132.800 471.380,132.800 471.600 C 132.800 471.820,133.340 472.000,134.000 472.000 C 134.660 472.000,135.200 472.180,135.200 472.400 C 135.200 472.620,135.905 472.800,136.767 472.800 C 137.664 472.800,138.404 473.013,138.500 473.300 C 138.627 473.681,140.929 473.800,148.200 473.800 C 155.471 473.800,157.773 473.681,157.900 473.300 C 157.992 473.025,158.682 472.800,159.433 472.800 C 160.185 472.800,160.800 472.620,160.800 472.400 C 160.800 472.180,161.340 472.000,162.000 472.000 C 162.660 472.000,163.200 471.820,163.200 471.600 C 163.200 471.380,163.740 471.200,164.400 471.200 C 165.060 471.200,165.600 471.020,165.600 470.800 C 165.600 470.580,165.960 470.400,166.400 470.400 C 166.840 470.400,167.200 470.220,167.200 470.000 C 167.200 469.780,167.560 469.600,168.000 469.600 C 168.440 469.600,168.800 469.420,168.800 469.200 C 168.800 468.980,169.120 468.800,169.512 468.800 C 169.903 468.800,170.483 468.440,170.800 468.000 C 171.117 467.560,171.657 467.200,172.000 467.200 C 172.343 467.200,172.883 466.840,173.200 466.400 C 173.517 465.960,174.015 465.600,174.305 465.600 C 174.596 465.600,176.267 464.152,178.017 462.383 C 179.768 460.613,181.200 459.271,181.200 459.401 C 181.200 459.530,181.648 459.188,182.196 458.640 C 182.779 458.058,183.094 457.390,182.957 457.032 C 182.801 456.625,183.081 456.255,183.787 455.933 C 184.522 455.598,184.795 455.222,184.664 454.724 C 184.560 454.326,184.651 454.000,184.866 454.000 C 185.617 454.000,186.399 452.862,186.129 452.160 C 185.927 451.632,186.017 451.521,186.500 451.706 C 186.998 451.897,187.100 451.742,186.966 451.001 C 186.871 450.479,186.975 449.939,187.197 449.802 C 187.419 449.665,187.600 449.203,187.600 448.776 C 187.600 448.349,187.780 448.000,188.000 448.000 C 188.220 448.000,188.400 447.550,188.400 447.000 C 188.400 446.450,188.580 446.000,188.800 446.000 C 189.020 446.000,189.200 445.370,189.200 444.600 C 189.200 443.830,189.380 443.200,189.600 443.200 C 189.820 443.200,190.000 442.300,190.000 441.200 C 190.000 440.100,190.180 439.200,190.400 439.200 C 190.640 439.200,190.800 437.600,190.800 435.200 C 190.800 432.800,190.960 431.200,191.200 431.200 C 191.466 431.200,191.600 394.333,191.600 321.400 C 191.600 248.467,191.466 211.600,191.200 211.600 C 190.959 211.600,190.800 209.933,190.800 207.400 C 190.800 204.867,190.641 203.200,190.400 203.200 C 190.180 203.200,190.000 202.300,190.000 201.200 C 190.000 200.100,189.820 199.200,189.600 199.200 C 189.380 199.200,189.200 198.660,189.200 198.000 C 189.200 197.340,189.020 196.800,188.800 196.800 C 188.580 196.800,188.400 196.260,188.400 195.600 C 188.400 194.940,188.220 194.400,188.000 194.400 C 187.780 194.400,187.600 194.040,187.600 193.600 C 187.600 193.160,187.408 192.800,187.173 192.800 C 186.928 192.800,186.854 192.459,187.000 192.000 C 187.180 191.434,187.072 191.200,186.632 191.200 C 186.226 191.200,186.043 190.889,186.105 190.306 C 186.169 189.705,185.902 189.279,185.295 189.008 C 184.787 188.783,184.479 188.371,184.593 188.073 C 184.821 187.479,183.914 186.400,183.186 186.400 C 182.927 186.400,182.817 186.133,182.942 185.808 C 183.189 185.162,175.134 176.800,174.265 176.800 C 173.996 176.800,173.517 176.440,173.200 176.000 C 172.883 175.560,172.343 175.200,172.000 175.200 C 171.657 175.200,171.117 174.840,170.800 174.400 C 170.483 173.960,169.903 173.600,169.512 173.600 C 169.120 173.600,168.800 173.420,168.800 173.200 C 168.800 172.980,168.440 172.800,168.000 172.800 C 167.560 172.800,167.200 172.620,167.200 172.400 C 167.200 172.180,166.840 172.000,166.400 172.000 C 165.960 172.000,165.600 171.800,165.600 171.555 C 165.600 171.287,165.120 171.180,164.400 171.285 C 163.581 171.406,163.200 171.293,163.200 170.931 C 163.200 170.639,162.930 170.400,162.600 170.400 C 162.270 170.400,161.997 170.175,161.994 169.900 C 161.990 169.566,161.857 169.599,161.594 170.000 C 161.262 170.506,161.144 170.513,160.843 170.045 C 160.622 169.703,160.081 169.568,159.432 169.692 C 158.744 169.823,158.263 169.684,158.042 169.289 C 157.786 168.831,157.246 168.736,155.822 168.896 C 154.436 169.053,153.884 168.962,153.727 168.554 C 153.421 167.757,143.220 167.780,142.518 168.580 M37.911 270.066 C 37.815 270.355,36.964 270.504,35.678 270.459 C 34.486 270.417,33.600 270.559,33.600 270.793 C 33.600 271.017,32.880 271.200,32.000 271.200 C 31.120 271.200,30.400 271.380,30.400 271.600 C 30.400 271.820,29.860 272.000,29.200 272.000 C 28.540 272.000,28.000 272.180,28.000 272.400 C 28.000 272.620,27.449 272.800,26.776 272.800 C 26.063 272.800,25.656 272.967,25.800 273.200 C 25.936 273.420,25.677 273.600,25.224 273.600 C 24.771 273.600,24.400 273.780,24.400 274.000 C 24.400 274.220,24.040 274.400,23.600 274.400 C 23.160 274.400,22.800 274.580,22.800 274.800 C 22.800 275.020,22.362 275.200,21.827 275.200 C 21.205 275.200,20.762 275.489,20.600 276.000 C 20.440 276.503,19.995 276.800,19.400 276.800 C 18.805 276.800,18.360 277.097,18.200 277.600 C 18.047 278.082,17.595 278.400,17.061 278.400 C 16.575 278.400,15.912 278.777,15.588 279.237 C 14.298 281.074,13.627 281.664,13.159 281.375 C 12.853 281.185,12.780 281.245,12.961 281.538 C 13.131 281.811,12.263 282.964,10.823 284.377 C 9.490 285.685,8.400 287.024,8.400 287.351 C 8.400 287.678,8.040 288.060,7.600 288.200 C 7.097 288.360,6.800 288.805,6.800 289.400 C 6.800 289.995,6.503 290.440,6.000 290.600 C 5.489 290.762,5.200 291.205,5.200 291.827 C 5.200 292.362,5.020 292.800,4.800 292.800 C 4.580 292.800,4.400 293.160,4.400 293.600 C 4.400 294.040,4.220 294.400,4.000 294.400 C 3.780 294.400,3.600 294.760,3.600 295.200 C 3.600 295.640,3.420 296.000,3.200 296.000 C 2.980 296.000,2.800 296.540,2.800 297.200 C 2.800 297.860,2.620 298.400,2.400 298.400 C 2.180 298.400,2.000 298.940,2.000 299.600 C 2.000 300.260,1.820 300.800,1.600 300.800 C 1.380 300.800,1.200 301.685,1.200 302.767 C 1.200 303.984,1.010 304.797,0.700 304.900 C -0.035 305.145,-0.035 438.855,0.700 439.100 C 1.010 439.203,1.200 440.016,1.200 441.233 C 1.200 442.315,1.380 443.200,1.600 443.200 C 1.820 443.200,2.000 443.830,2.000 444.600 C 2.000 445.370,2.180 446.000,2.400 446.000 C 2.620 446.000,2.800 446.450,2.800 447.000 C 2.800 447.550,2.980 448.000,3.200 448.000 C 3.420 448.000,3.600 448.360,3.600 448.800 C 3.600 449.240,3.780 449.600,4.000 449.600 C 4.220 449.600,4.400 450.050,4.400 450.600 C 4.400 451.150,4.580 451.600,4.800 451.600 C 5.020 451.600,5.200 451.920,5.200 452.312 C 5.200 452.703,5.560 453.283,6.000 453.600 C 6.440 453.917,6.800 454.485,6.800 454.861 C 6.800 455.238,7.160 455.660,7.600 455.800 C 8.082 455.953,8.400 456.405,8.400 456.939 C 8.400 457.425,8.782 458.088,9.248 458.412 C 10.998 459.625,13.245 462.004,13.006 462.390 C 12.857 462.631,13.033 462.686,13.449 462.526 C 13.971 462.325,14.078 462.419,13.890 462.910 C 13.714 463.367,13.812 463.493,14.220 463.337 C 14.539 463.214,14.800 463.286,14.800 463.496 C 14.800 464.236,16.304 465.600,17.120 465.600 C 17.595 465.600,18.054 465.940,18.200 466.400 C 18.360 466.903,18.805 467.200,19.400 467.200 C 19.995 467.200,20.440 467.497,20.600 468.000 C 20.762 468.511,21.205 468.800,21.827 468.800 C 22.362 468.800,22.800 468.980,22.800 469.200 C 22.800 469.420,23.160 469.600,23.600 469.600 C 24.040 469.600,24.400 469.780,24.400 470.000 C 24.400 470.220,24.760 470.400,25.200 470.400 C 25.640 470.400,26.000 470.580,26.000 470.800 C 26.000 471.020,26.450 471.200,27.000 471.200 C 27.550 471.200,28.000 471.380,28.000 471.600 C 28.000 471.820,28.540 472.000,29.200 472.000 C 29.860 472.000,30.400 472.180,30.400 472.400 C 30.400 472.620,31.105 472.800,31.967 472.800 C 32.864 472.800,33.604 473.013,33.700 473.300 C 33.827 473.681,36.129 473.800,43.400 473.800 C 50.671 473.800,52.973 473.681,53.100 473.300 C 53.192 473.025,53.882 472.800,54.633 472.800 C 55.385 472.800,56.000 472.620,56.000 472.400 C 56.000 472.180,56.540 472.000,57.200 472.000 C 57.860 472.000,58.400 471.820,58.400 471.600 C 58.400 471.380,58.940 471.200,59.600 471.200 C 60.260 471.200,60.800 471.020,60.800 470.800 C 60.800 470.580,61.160 470.400,61.600 470.400 C 62.040 470.400,62.400 470.220,62.400 470.000 C 62.400 469.780,62.760 469.600,63.200 469.600 C 63.640 469.600,64.000 469.420,64.000 469.200 C 64.000 468.980,64.320 468.800,64.712 468.800 C 65.103 468.800,65.683 468.440,66.000 468.000 C 66.317 467.560,66.857 467.200,67.200 467.200 C 67.543 467.200,68.083 466.840,68.400 466.400 C 68.717 465.960,69.209 465.600,69.494 465.600 C 69.779 465.600,71.511 464.115,73.343 462.300 C 75.176 460.485,77.063 458.735,77.537 458.412 C 78.012 458.088,78.400 457.425,78.400 456.939 C 78.400 456.405,78.718 455.953,79.200 455.800 C 79.640 455.660,80.000 455.238,80.000 454.861 C 80.000 454.485,80.360 453.917,80.800 453.600 C 81.240 453.283,81.600 452.693,81.600 452.288 C 81.600 451.884,81.780 451.664,82.000 451.800 C 82.234 451.945,82.400 451.530,82.400 450.800 C 82.400 450.070,82.566 449.655,82.800 449.800 C 83.028 449.941,83.200 449.596,83.200 449.000 C 83.200 448.321,83.360 448.051,83.654 448.233 C 83.968 448.427,84.051 448.127,83.923 447.257 C 83.792 446.362,83.899 446.000,84.295 446.000 C 84.682 446.000,84.813 445.604,84.726 444.700 C 84.635 443.758,84.753 443.433,85.154 443.518 C 85.594 443.612,85.654 443.228,85.444 441.648 C 85.200 439.808,85.658 438.515,86.134 439.698 C 86.246 439.974,86.351 439.291,86.368 438.180 C 86.386 437.069,86.625 435.933,86.900 435.656 C 87.301 435.252,87.257 435.207,86.677 435.428 C 86.027 435.675,85.967 435.486,86.077 433.552 C 86.160 432.093,86.361 431.432,86.700 431.500 C 87.098 431.580,87.199 419.449,87.194 371.900 C 87.191 339.065,87.036 312.440,86.850 312.734 C 86.198 313.761,85.957 311.935,86.237 308.111 C 86.485 304.736,86.448 304.407,85.847 304.637 C 85.258 304.863,85.212 304.636,85.447 302.637 C 85.678 300.675,85.629 300.414,85.076 300.626 C 84.542 300.831,84.477 300.636,84.675 299.417 C 84.854 298.315,84.779 297.992,84.368 298.082 C 83.978 298.167,83.860 297.823,83.948 296.855 C 84.029 295.964,83.923 295.600,83.635 295.778 C 83.375 295.939,83.200 295.715,83.200 295.224 C 83.200 294.771,83.020 294.400,82.800 294.400 C 82.580 294.400,82.400 294.040,82.400 293.600 C 82.400 293.160,82.220 292.800,82.000 292.800 C 81.780 292.800,81.600 292.362,81.600 291.827 C 81.600 291.205,81.311 290.762,80.800 290.600 C 80.297 290.440,80.000 289.995,80.000 289.400 C 80.000 288.805,79.703 288.360,79.200 288.200 C 78.760 288.060,78.400 287.686,78.400 287.368 C 78.400 286.652,70.204 278.400,69.493 278.400 C 69.209 278.400,68.717 278.040,68.400 277.600 C 68.083 277.160,67.543 276.800,67.200 276.800 C 66.857 276.800,66.317 276.440,66.000 276.000 C 65.683 275.560,65.103 275.200,64.712 275.200 C 64.320 275.200,64.000 275.020,64.000 274.800 C 64.000 274.580,63.640 274.400,63.200 274.400 C 62.760 274.400,62.400 274.220,62.400 274.000 C 62.400 273.780,62.040 273.600,61.600 273.600 C 61.160 273.600,60.800 273.420,60.800 273.200 C 60.800 272.980,60.260 272.800,59.600 272.800 C 58.940 272.800,58.400 272.620,58.400 272.400 C 58.400 272.180,57.860 272.000,57.200 272.000 C 56.540 272.000,56.000 271.820,56.000 271.600 C 56.000 271.380,55.370 271.200,54.600 271.200 C 53.830 271.200,53.200 271.011,53.200 270.780 C 53.200 270.529,52.367 270.398,51.125 270.455 C 49.804 270.515,48.992 270.377,48.892 270.075 C 48.671 269.412,38.132 269.404,37.911 270.066 " stroke="none" fill="#fc0c1c" fill-rule="evenodd"></path>
  </g>
</svg>